<ttFont>
<head>
    <!-- Most of this table will be recalculated by the compiler -->
    <tableVersion value="1.0"/>
    <fontRevision value="1.0"/>
    <checkSumAdjustment value="0xf3653cd3"/>
    <magicNumber value="0x5f0f3cf5"/>
    <flags value="00000000 00000001"/>
    <unitsPerEm value="1024"/>
    <created value="Sat Mar  7 16:38:15 2026"/>
    <modified value="Mon Mar  9 03:32:16 2026"/>
    <xMin value="51"/>
    <yMin value="-250"/>
    <xMax value="1200"/>
    <yMax value="950"/>
    <macStyle value="00000000 00000000"/>
    <lowestRecPPEM value="6"/>
    <fontDirectionHint value="2"/>
    <indexToLocFormat value="0"/>
    <glyphDataFormat value="0"/>
  </head>
    <TTGlyph name=".notdef" xMin="51" yMin="-250" xMax="461" yMax="950">
      <contour>
        <pt x="51" y="-250" on="1"/>
        <pt x="51" y="950" on="1"/>
        <pt x="461" y="950" on="1"/>
        <pt x="461" y="-250" on="1"/>
      </contour>
      <contour>
        <pt x="102" y="-199" on="1"/>
        <pt x="410" y="-199" on="1"/>
        <pt x="410" y="899" on="1"/>
        <pt x="102" y="899" on="1"/>
      </contour>
    </TTGlyph>
    <TTGlyph name="A" xMin="120" yMin="-140" xMax="1140" yMax="860">
      <contour>
        <pt x="1140" y="860" on="1"/>
        <pt x="120" y="-140" on="1"/>
      </contour>
    </TTGlyph>
    <TTGlyph name="B" xMin="140" yMin="-140" xMax="1120" yMax="840">
      <contour>
        <pt x="1120" y="840" on="1"/>
        <pt x="140" y="-140" on="1"/>
      </contour>
    </TTGlyph>
    <TTGlyph name="K" xMin="120" yMin="-140" xMax="1160" yMax="880">
      <contour>
        <pt x="1160" y="880" on="1"/>
        <pt x="120" y="-140" on="1"/>
      </contour>
    </TTGlyph>
    <TTGlyph name="M" xMin="120" yMin="-140" xMax="1140" yMax="820">
      <contour>
        <pt x="1140" y="820" on="1"/>
        <pt x="120" y="-140" on="1"/>
      </contour>
    </TTGlyph>
    <TTGlyph name="N" xMin="120" yMin="-160" xMax="1140" yMax="840">
      <contour>
        <pt x="1140" y="840" on="1"/>
        <pt x="120" y="-160" on="1"/>
      </contour>
    </TTGlyph>
    <TTGlyph name="P" xMin="280" yMin="-140" xMax="980" yMax="840">
      <contour>
        <pt x="980" y="840" on="1"/>
        <pt x="280" y="-140" on="1"/>
      </contour>
    </TTGlyph>
    <TTGlyph name="Q" xMin="80" yMin="-160" xMax="1200" yMax="860">
      <contour>
        <pt x="1200" y="860" on="1"/>
        <pt x="80" y="-160" on="1"/>
      </contour>
    </TTGlyph>
    <TTGlyph name="R" xMin="220" yMin="-160" xMax="1040" yMax="820">
      <contour>
        <pt x="1040" y="820" on="1"/>
        <pt x="220" y="-160" on="1"/>
      </contour>
    </TTGlyph>
    <TTGlyph name="a" xMin="120" yMin="-140" xMax="1140" yMax="860">
      <contour>
        <pt x="1140" y="860" on="1"/>
        <pt x="120" y="-140" on="1"/>
      </contour>
    </TTGlyph>
    <TTGlyph name="b" xMin="140" yMin="-120" xMax="1120" yMax="860">
      <contour>
        <pt x="1120" y="860" on="1"/>
        <pt x="140" y="-120" on="1"/>
      </contour>
    </TTGlyph>
    <TTGlyph name="glyph00018" xMin="139" yMin="-126" xMax="1136" yMax="855">
      <contour>
        <pt x="469" y="-124" on="1"/>
        <pt x="468" y="-126" on="1"/>
        <pt x="802" y="-126" on="1"/>
        <pt x="1136" y="-126" on="1"/>
        <pt x="1136" y="-123" on="1"/>
        <pt x="1136" y="-117" on="0"/>
        <pt x="1134" y="-77" on="0"/>
        <pt x="1131" y="-35" on="0"/>
        <pt x="1130" y="-26" on="1"/>
        <pt x="1122" y="47" on="0"/>
        <pt x="1101" y="111" on="1"/>
        <pt x="1098" y="119" on="0"/>
        <pt x="1089" y="145" on="0"/>
        <pt x="1086" y="150" on="1"/>
        <pt x="1085" y="154" on="0"/>
        <pt x="1085" y="154" on="1"/>
        <pt x="1085" y="154" on="0"/>
        <pt x="1083" y="158" on="1"/>
        <pt x="1081" y="162" on="0"/>
        <pt x="1080" y="164" on="1"/>
        <pt x="1078" y="168" on="0"/>
        <pt x="1066" y="192" on="0"/>
        <pt x="1064" y="196" on="1"/>
        <pt x="1061" y="201" on="0"/>
        <pt x="1059" y="205" on="1"/>
        <pt x="1057" y="209" on="0"/>
        <pt x="1054" y="214" on="1"/>
        <pt x="1046" y="227" on="0"/>
        <pt x="1045" y="229" on="1"/>
        <pt x="1031" y="249" on="0"/>
        <pt x="1029" y="253" on="1"/>
        <pt x="1027" y="255" on="0"/>
        <pt x="1019" y="266" on="0"/>
        <pt x="1018" y="267" on="1"/>
        <pt x="1018" y="268" on="0"/>
        <pt x="1015" y="271" on="1"/>
        <pt x="1012" y="275" on="0"/>
        <pt x="1011" y="277" on="1"/>
        <pt x="1009" y="279" on="0"/>
        <pt x="1009" y="279" on="1"/>
        <pt x="1008" y="280" on="0"/>
        <pt x="1006" y="282" on="1"/>
        <pt x="1005" y="285" on="0"/>
        <pt x="1004" y="286" on="1"/>
        <pt x="1003" y="286" on="0"/>
        <pt x="1002" y="288" on="1"/>
        <pt x="1000" y="290" on="0"/>
        <pt x="995" y="296" on="1"/>
        <pt x="994" y="297" on="0"/>
        <pt x="989" y="303" on="1"/>
        <pt x="986" y="306" on="0"/>
        <pt x="965" y="327" on="0"/>
        <pt x="960" y="332" on="1"/>
        <pt x="958" y="334" on="0"/>
        <pt x="939" y="349" on="0"/>
        <pt x="938" y="351" on="1"/>
        <pt x="936" y="351" on="0"/>
        <pt x="929" y="357" on="1"/>
        <pt x="922" y="362" on="0"/>
        <pt x="918" y="365" on="0"/>
        <pt x="910" y="371" on="1"/>
        <pt x="902" y="376" on="0"/>
        <pt x="891" y="383" on="0"/>
        <pt x="890" y="383" on="1"/>
        <pt x="890" y="383" on="0"/>
        <pt x="889" y="384" on="1"/>
        <pt x="888" y="384" on="0"/>
        <pt x="885" y="386" on="1"/>
        <pt x="883" y="387" on="0"/>
        <pt x="880" y="389" on="1"/>
        <pt x="874" y="392" on="0"/>
        <pt x="867" y="396" on="1"/>
        <pt x="863" y="398" on="0"/>
        <pt x="863" y="399" on="0"/>
        <pt x="866" y="403" on="1"/>
        <pt x="883" y="426" on="0"/>
        <pt x="888" y="452" on="1"/>
        <pt x="893" y="476" on="0"/>
        <pt x="891" y="511" on="0"/>
        <pt x="884" y="533" on="1"/>
        <pt x="873" y="567" on="0"/>
        <pt x="859" y="582" on="1"/>
        <pt x="859" y="583" on="0"/>
        <pt x="857" y="585" on="1"/>
        <pt x="855" y="588" on="0"/>
        <pt x="839" y="603" on="0"/>
        <pt x="836" y="606" on="1"/>
        <pt x="827" y="612" on="0"/>
        <pt x="825" y="614" on="1"/>
        <pt x="823" y="615" on="0"/>
        <pt x="822" y="616" on="1"/>
        <pt x="821" y="617" on="0"/>
        <pt x="821" y="617" on="1"/>
        <pt x="820" y="617" on="0"/>
        <pt x="816" y="620" on="1"/>
        <pt x="811" y="624" on="0"/>
        <pt x="811" y="624" on="1"/>
        <pt x="810" y="624" on="0"/>
        <pt x="808" y="625" on="1"/>
        <pt x="806" y="627" on="0"/>
        <pt x="806" y="627" on="1"/>
        <pt x="806" y="627" on="0"/>
        <pt x="803" y="628" on="1"/>
        <pt x="801" y="630" on="0"/>
        <pt x="796" y="633" on="1"/>
        <pt x="791" y="636" on="0"/>
        <pt x="789" y="637" on="1"/>
        <pt x="787" y="639" on="0"/>
        <pt x="786" y="639" on="1"/>
        <pt x="785" y="640" on="0"/>
        <pt x="773" y="648" on="0"/>
        <pt x="769" y="651" on="1"/>
        <pt x="765" y="654" on="0"/>
        <pt x="760" y="657" on="1"/>
        <pt x="755" y="661" on="0"/>
        <pt x="754" y="661" on="1"/>
        <pt x="753" y="662" on="0"/>
        <pt x="753" y="662" on="1"/>
        <pt x="752" y="662" on="0"/>
        <pt x="751" y="664" on="1"/>
        <pt x="749" y="665" on="0"/>
        <pt x="749" y="665" on="1"/>
        <pt x="748" y="665" on="0"/>
        <pt x="746" y="667" on="1"/>
        <pt x="744" y="668" on="0"/>
        <pt x="742" y="670" on="1"/>
        <pt x="740" y="671" on="0"/>
        <pt x="738" y="673" on="1"/>
        <pt x="735" y="675" on="0"/>
        <pt x="733" y="677" on="1"/>
        <pt x="731" y="678" on="0"/>
        <pt x="727" y="681" on="1"/>
        <pt x="723" y="684" on="0"/>
        <pt x="721" y="686" on="1"/>
        <pt x="719" y="688" on="0"/>
        <pt x="703" y="701" on="0"/>
        <pt x="702" y="702" on="1"/>
        <pt x="700" y="704" on="0"/>
        <pt x="698" y="706" on="1"/>
        <pt x="696" y="707" on="0"/>
        <pt x="683" y="719" on="0"/>
        <pt x="678" y="724" on="1"/>
        <pt x="674" y="728" on="1"/>
        <pt x="679" y="731" on="1"/>
        <pt x="684" y="734" on="0"/>
        <pt x="693" y="739" on="1"/>
        <pt x="699" y="744" on="0"/>
        <pt x="706" y="752" on="1"/>
        <pt x="718" y="769" on="0"/>
        <pt x="717" y="791" on="1"/>
        <pt x="716" y="801" on="0"/>
        <pt x="714" y="808" on="1"/>
        <pt x="711" y="817" on="0"/>
        <pt x="706" y="823" on="1"/>
        <pt x="705" y="824" on="0"/>
        <pt x="704" y="826" on="1"/>
        <pt x="700" y="830" on="0"/>
        <pt x="693" y="837" on="1"/>
        <pt x="679" y="848" on="0"/>
        <pt x="661" y="853" on="1"/>
        <pt x="652" y="855" on="0"/>
        <pt x="623" y="855" on="0"/>
        <pt x="614" y="853" on="1"/>
        <pt x="609" y="852" on="0"/>
        <pt x="609" y="852" on="1"/>
        <pt x="607" y="852" on="0"/>
        <pt x="591" y="844" on="0"/>
        <pt x="591" y="843" on="1"/>
        <pt x="590" y="842" on="0"/>
        <pt x="589" y="842" on="1"/>
        <pt x="589" y="842" on="0"/>
        <pt x="585" y="839" on="1"/>
        <pt x="565" y="824" on="0"/>
        <pt x="560" y="804" on="1"/>
        <pt x="558" y="798" on="0"/>
        <pt x="558" y="789" on="1"/>
        <pt x="558" y="775" on="0"/>
        <pt x="562" y="764" on="1"/>
        <pt x="567" y="752" on="0"/>
        <pt x="581" y="741" on="1"/>
        <pt x="586" y="736" on="0"/>
        <pt x="587" y="736" on="1"/>
        <pt x="588" y="736" on="0"/>
        <pt x="588" y="735" on="1"/>
        <pt x="589" y="734" on="0"/>
        <pt x="595" y="731" on="1"/>
        <pt x="601" y="728" on="1"/>
        <pt x="598" y="725" on="1"/>
        <pt x="596" y="723" on="0"/>
        <pt x="583" y="712" on="0"/>
        <pt x="579" y="707" on="1"/>
        <pt x="575" y="704" on="0"/>
        <pt x="555" y="687" on="0"/>
        <pt x="555" y="687" on="1"/>
        <pt x="555" y="687" on="0"/>
        <pt x="551" y="684" on="1"/>
        <pt x="547" y="681" on="0"/>
        <pt x="547" y="681" on="1"/>
        <pt x="547" y="681" on="0"/>
        <pt x="544" y="679" on="1"/>
        <pt x="539" y="675" on="0"/>
        <pt x="535" y="672" on="1"/>
        <pt x="533" y="671" on="0"/>
        <pt x="531" y="669" on="1"/>
        <pt x="528" y="667" on="0"/>
        <pt x="523" y="664" on="1"/>
        <pt x="519" y="660" on="0"/>
        <pt x="518" y="660" on="1"/>
        <pt x="518" y="659" on="0"/>
        <pt x="517" y="659" on="1"/>
        <pt x="515" y="658" on="0"/>
        <pt x="512" y="656" on="1"/>
        <pt x="508" y="653" on="0"/>
        <pt x="507" y="652" on="1"/>
        <pt x="506" y="652" on="0"/>
        <pt x="505" y="651" on="1"/>
        <pt x="504" y="649" on="0"/>
        <pt x="503" y="649" on="1"/>
        <pt x="503" y="649" on="0"/>
        <pt x="500" y="648" on="1"/>
        <pt x="498" y="646" on="0"/>
        <pt x="497" y="646" on="1"/>
        <pt x="496" y="645" on="0"/>
        <pt x="489" y="640" on="1"/>
        <pt x="481" y="634" on="0"/>
        <pt x="479" y="633" on="1"/>
        <pt x="477" y="632" on="0"/>
        <pt x="476" y="631" on="1"/>
        <pt x="475" y="630" on="0"/>
        <pt x="474" y="630" on="1"/>
        <pt x="474" y="630" on="0"/>
        <pt x="469" y="627" on="1"/>
        <pt x="465" y="624" on="0"/>
        <pt x="464" y="624" on="1"/>
        <pt x="464" y="624" on="0"/>
        <pt x="460" y="621" on="1"/>
        <pt x="455" y="617" on="0"/>
        <pt x="454" y="617" on="1"/>
        <pt x="433" y="603" on="0"/>
        <pt x="417" y="584" on="1"/>
        <pt x="406" y="572" on="0"/>
        <pt x="400" y="560" on="1"/>
        <pt x="397" y="552" on="0"/>
        <pt x="388" y="529" on="0"/>
        <pt x="387" y="523" on="1"/>
        <pt x="386" y="519" on="0"/>
        <pt x="386" y="519" on="1"/>
        <pt x="386" y="519" on="0"/>
        <pt x="381" y="521" on="1"/>
        <pt x="377" y="523" on="0"/>
        <pt x="375" y="524" on="1"/>
        <pt x="372" y="525" on="0"/>
        <pt x="371" y="525" on="1"/>
        <pt x="370" y="526" on="0"/>
        <pt x="367" y="527" on="1"/>
        <pt x="363" y="529" on="0"/>
        <pt x="358" y="530" on="1"/>
        <pt x="353" y="532" on="0"/>
        <pt x="350" y="533" on="1"/>
        <pt x="348" y="534" on="0"/>
        <pt x="344" y="535" on="1"/>
        <pt x="341" y="537" on="0"/>
        <pt x="340" y="537" on="1"/>
        <pt x="339" y="537" on="0"/>
        <pt x="337" y="538" on="1"/>
        <pt x="334" y="539" on="0"/>
        <pt x="329" y="540" on="1"/>
        <pt x="324" y="542" on="1"/>
        <pt x="323" y="538" on="1"/>
        <pt x="320" y="494" on="0"/>
        <pt x="330" y="450" on="1"/>
        <pt x="336" y="426" on="0"/>
        <pt x="345" y="402" on="1"/>
        <pt x="348" y="393" on="1"/>
        <pt x="347" y="391" on="1"/>
        <pt x="345" y="389" on="0"/>
        <pt x="341" y="386" on="1"/>
        <pt x="338" y="383" on="0"/>
        <pt x="317" y="363" on="0"/>
        <pt x="313" y="359" on="1"/>
        <pt x="306" y="351" on="0"/>
        <pt x="304" y="347" on="1"/>
        <pt x="303" y="346" on="0"/>
        <pt x="300" y="342" on="1"/>
        <pt x="297" y="339" on="0"/>
        <pt x="296" y="337" on="1"/>
        <pt x="295" y="336" on="0"/>
        <pt x="294" y="335" on="1"/>
        <pt x="294" y="334" on="0"/>
        <pt x="291" y="329" on="1"/>
        <pt x="285" y="320" on="0"/>
        <pt x="282" y="311" on="1"/>
        <pt x="280" y="305" on="0"/>
        <pt x="276" y="277" on="0"/>
        <pt x="276" y="269" on="1"/>
        <pt x="276" y="256" on="0"/>
        <pt x="266" y="236" on="1"/>
        <pt x="260" y="222" on="0"/>
        <pt x="250" y="209" on="1"/>
        <pt x="244" y="199" on="0"/>
        <pt x="242" y="196" on="1"/>
        <pt x="241" y="195" on="0"/>
        <pt x="238" y="191" on="1"/>
        <pt x="235" y="187" on="0"/>
        <pt x="234" y="186" on="1"/>
        <pt x="233" y="185" on="0"/>
        <pt x="232" y="184" on="1"/>
        <pt x="231" y="182" on="0"/>
        <pt x="228" y="178" on="1"/>
        <pt x="225" y="175" on="0"/>
        <pt x="224" y="173" on="1"/>
        <pt x="223" y="172" on="0"/>
        <pt x="222" y="171" on="1"/>
        <pt x="221" y="170" on="0"/>
        <pt x="219" y="167" on="1"/>
        <pt x="217" y="165" on="0"/>
        <pt x="216" y="165" on="1"/>
        <pt x="216" y="164" on="0"/>
        <pt x="212" y="160" on="1"/>
        <pt x="208" y="155" on="0"/>
        <pt x="207" y="154" on="1"/>
        <pt x="207" y="153" on="0"/>
        <pt x="203" y="150" on="1"/>
        <pt x="200" y="146" on="0"/>
        <pt x="199" y="145" on="1"/>
        <pt x="198" y="144" on="0"/>
        <pt x="195" y="140" on="1"/>
        <pt x="191" y="136" on="0"/>
        <pt x="190" y="135" on="1"/>
        <pt x="186" y="130" on="0"/>
        <pt x="184" y="127" on="1"/>
        <pt x="183" y="126" on="0"/>
        <pt x="183" y="125" on="1"/>
        <pt x="182" y="125" on="0"/>
        <pt x="180" y="123" on="1"/>
        <pt x="178" y="119" on="0"/>
        <pt x="173" y="113" on="1"/>
        <pt x="173" y="112" on="0"/>
        <pt x="170" y="109" on="1"/>
        <pt x="168" y="106" on="0"/>
        <pt x="168" y="106" on="1"/>
        <pt x="168" y="106" on="0"/>
        <pt x="163" y="99" on="1"/>
        <pt x="145" y="72" on="0"/>
        <pt x="141" y="50" on="1"/>
        <pt x="139" y="44" on="0"/>
        <pt x="139" y="32" on="1"/>
        <pt x="139" y="-10" on="0"/>
        <pt x="157" y="-37" on="1"/>
        <pt x="164" y="-47" on="0"/>
        <pt x="174" y="-58" on="1"/>
        <pt x="186" y="-70" on="0"/>
        <pt x="187" y="-70" on="1"/>
        <pt x="188" y="-70" on="0"/>
        <pt x="190" y="-71" on="1"/>
        <pt x="191" y="-73" on="0"/>
        <pt x="192" y="-73" on="1"/>
        <pt x="192" y="-73" on="0"/>
        <pt x="194" y="-74" on="1"/>
        <pt x="196" y="-76" on="0"/>
        <pt x="202" y="-79" on="1"/>
        <pt x="203" y="-79" on="0"/>
        <pt x="205" y="-80" on="1"/>
        <pt x="212" y="-84" on="0"/>
        <pt x="229" y="-90" on="1"/>
        <pt x="235" y="-92" on="1"/>
        <pt x="244" y="-92" on="1"/>
        <pt x="252" y="-91" on="0"/>
        <pt x="274" y="-88" on="0"/>
        <pt x="277" y="-87" on="1"/>
        <pt x="278" y="-87" on="0"/>
        <pt x="280" y="-89" on="1"/>
        <pt x="283" y="-93" on="0"/>
        <pt x="286" y="-96" on="1"/>
        <pt x="287" y="-98" on="0"/>
        <pt x="296" y="-105" on="0"/>
        <pt x="296" y="-105" on="1"/>
        <pt x="297" y="-105" on="0"/>
        <pt x="298" y="-106" on="1"/>
        <pt x="304" y="-110" on="0"/>
        <pt x="315" y="-112" on="1"/>
        <pt x="321" y="-114" on="0"/>
        <pt x="329" y="-113" on="1"/>
        <pt x="352" y="-112" on="0"/>
        <pt x="364" y="-100" on="1"/>
        <pt x="371" y="-93" on="0"/>
        <pt x="379" y="-81" on="1"/>
        <pt x="380" y="-79" on="0"/>
        <pt x="383" y="-75" on="0"/>
        <pt x="384" y="-73" on="1"/>
        <pt x="386" y="-70" on="0"/>
        <pt x="389" y="-66" on="1"/>
        <pt x="392" y="-61" on="0"/>
        <pt x="402" y="-45" on="0"/>
        <pt x="402" y="-45" on="1"/>
        <pt x="403" y="-44" on="0"/>
        <pt x="405" y="-41" on="1"/>
        <pt x="407" y="-38" on="0"/>
        <pt x="407" y="-38" on="1"/>
        <pt x="408" y="-38" on="0"/>
        <pt x="410" y="-35" on="1"/>
        <pt x="412" y="-32" on="0"/>
        <pt x="413" y="-31" on="1"/>
        <pt x="427" y="-15" on="0"/>
        <pt x="443" y="-1" on="1"/>
        <pt x="453" y="7" on="0"/>
        <pt x="453" y="7" on="1"/>
        <pt x="454" y="7" on="0"/>
        <pt x="456" y="9" on="1"/>
        <pt x="457" y="11" on="0"/>
        <pt x="458" y="11" on="1"/>
        <pt x="458" y="11" on="0"/>
        <pt x="460" y="12" on="1"/>
        <pt x="461" y="13" on="0"/>
        <pt x="462" y="14" on="1"/>
        <pt x="463" y="15" on="0"/>
        <pt x="467" y="17" on="1"/>
        <pt x="470" y="19" on="0"/>
        <pt x="471" y="20" on="1"/>
        <pt x="472" y="20" on="0"/>
        <pt x="474" y="22" on="1"/>
        <pt x="475" y="23" on="0"/>
        <pt x="482" y="27" on="0"/>
        <pt x="482" y="27" on="1"/>
        <pt x="482" y="27" on="0"/>
        <pt x="486" y="29" on="1"/>
        <pt x="492" y="33" on="0"/>
        <pt x="521" y="47" on="0"/>
        <pt x="529" y="51" on="1"/>
        <pt x="533" y="52" on="0"/>
        <pt x="536" y="54" on="1"/>
        <pt x="541" y="56" on="0"/>
        <pt x="573" y="67" on="0"/>
        <pt x="576" y="68" on="1"/>
        <pt x="581" y="69" on="0"/>
        <pt x="605" y="79" on="0"/>
        <pt x="611" y="82" on="1"/>
        <pt x="612" y="82" on="0"/>
        <pt x="615" y="84" on="1"/>
        <pt x="623" y="88" on="0"/>
        <pt x="625" y="90" on="1"/>
        <pt x="627" y="91" on="0"/>
        <pt x="627" y="91" on="1"/>
        <pt x="628" y="91" on="0"/>
        <pt x="630" y="92" on="1"/>
        <pt x="631" y="94" on="0"/>
        <pt x="632" y="94" on="1"/>
        <pt x="632" y="94" on="0"/>
        <pt x="634" y="95" on="1"/>
        <pt x="635" y="96" on="1"/>
        <pt x="635" y="93" on="1"/>
        <pt x="636" y="67" on="0"/>
        <pt x="624" y="37" on="1"/>
        <pt x="622" y="31" on="0"/>
        <pt x="612" y="12" on="0"/>
        <pt x="611" y="10" on="1"/>
        <pt x="610" y="9" on="0"/>
        <pt x="607" y="5" on="1"/>
        <pt x="600" y="-5" on="0"/>
        <pt x="589" y="-17" on="1"/>
        <pt x="583" y="-22" on="0"/>
        <pt x="572" y="-33" on="0"/>
        <pt x="557" y="-45" on="1"/>
        <pt x="550" y="-52" on="0"/>
        <pt x="549" y="-53" on="1"/>
        <pt x="548" y="-54" on="0"/>
        <pt x="540" y="-61" on="1"/>
        <pt x="532" y="-67" on="0"/>
        <pt x="531" y="-69" on="1"/>
        <pt x="529" y="-70" on="0"/>
        <pt x="521" y="-77" on="1"/>
        <pt x="513" y="-84" on="0"/>
        <pt x="512" y="-85" on="1"/>
        <pt x="511" y="-86" on="0"/>
        <pt x="503" y="-92" on="1"/>
        <pt x="495" y="-99" on="0"/>
        <pt x="492" y="-102" on="1"/>
        <pt x="490" y="-105" on="0"/>
        <pt x="485" y="-108" on="1"/>
        <pt x="482" y="-111" on="0"/>
        <pt x="471" y="-122" on="0"/>
      </contour>
      <contour>
        <pt x="1069" y="-61" on="1"/>
        <pt x="1069" y="-100" on="1"/>
        <pt x="809" y="-100" on="1"/>
        <pt x="737" y="-100" on="0"/>
        <pt x="619" y="-100" on="0"/>
        <pt x="548" y="-100" on="0"/>
        <pt x="548" y="-100" on="1"/>
        <pt x="548" y="-99" on="0"/>
        <pt x="554" y="-95" on="0"/>
        <pt x="555" y="-94" on="1"/>
        <pt x="556" y="-93" on="0"/>
        <pt x="564" y="-87" on="1"/>
        <pt x="572" y="-81" on="0"/>
        <pt x="576" y="-78" on="1"/>
        <pt x="579" y="-76" on="0"/>
        <pt x="583" y="-74" on="1"/>
        <pt x="585" y="-72" on="0"/>
        <pt x="585" y="-72" on="1"/>
        <pt x="586" y="-72" on="0"/>
        <pt x="588" y="-70" on="1"/>
        <pt x="590" y="-68" on="0"/>
        <pt x="594" y="-65" on="1"/>
        <pt x="631" y="-36" on="0"/>
        <pt x="647" y="-13" on="1"/>
        <pt x="651" y="-7" on="0"/>
        <pt x="655" y="0" on="0"/>
        <pt x="659" y="9" on="1"/>
        <pt x="673" y="36" on="0"/>
        <pt x="677" y="61" on="1"/>
        <pt x="679" y="69" on="0"/>
        <pt x="679" y="83" on="1"/>
        <pt x="679" y="106" on="0"/>
        <pt x="673" y="125" on="1"/>
        <pt x="671" y="130" on="0"/>
        <pt x="674" y="133" on="1"/>
        <pt x="674" y="134" on="0"/>
        <pt x="678" y="139" on="1"/>
        <pt x="706" y="178" on="0"/>
        <pt x="708" y="224" on="1"/>
        <pt x="709" y="232" on="0"/>
        <pt x="708" y="235" on="1"/>
        <pt x="703" y="249" on="0"/>
        <pt x="684" y="248" on="1"/>
        <pt x="670" y="247" on="0"/>
        <pt x="668" y="241" on="1"/>
        <pt x="666" y="239" on="0"/>
        <pt x="667" y="229" on="1"/>
        <pt x="669" y="207" on="0"/>
        <pt x="663" y="189" on="1"/>
        <pt x="659" y="179" on="0"/>
        <pt x="652" y="168" on="1"/>
        <pt x="650" y="165" on="0"/>
        <pt x="642" y="154" on="0"/>
        <pt x="641" y="153" on="1"/>
        <pt x="641" y="152" on="0"/>
        <pt x="638" y="149" on="1"/>
        <pt x="632" y="141" on="0"/>
        <pt x="611" y="124" on="0"/>
        <pt x="607" y="121" on="1"/>
        <pt x="606" y="121" on="0"/>
        <pt x="603" y="119" on="1"/>
        <pt x="591" y="111" on="0"/>
        <pt x="574" y="104" on="1"/>
        <pt x="558" y="98" on="0"/>
        <pt x="553" y="96" on="1"/>
        <pt x="544" y="93" on="0"/>
        <pt x="539" y="91" on="1"/>
        <pt x="536" y="90" on="0"/>
        <pt x="533" y="89" on="1"/>
        <pt x="531" y="88" on="0"/>
        <pt x="525" y="86" on="1"/>
        <pt x="519" y="84" on="0"/>
        <pt x="517" y="83" on="1"/>
        <pt x="515" y="82" on="0"/>
        <pt x="504" y="78" on="1"/>
        <pt x="495" y="74" on="0"/>
        <pt x="480" y="65" on="1"/>
        <pt x="471" y="60" on="0"/>
        <pt x="466" y="57" on="1"/>
        <pt x="462" y="55" on="0"/>
        <pt x="461" y="54" on="1"/>
        <pt x="460" y="54" on="0"/>
        <pt x="448" y="46" on="0"/>
        <pt x="447" y="44" on="1"/>
        <pt x="445" y="43" on="0"/>
        <pt x="443" y="42" on="1"/>
        <pt x="441" y="41" on="0"/>
        <pt x="431" y="33" on="1"/>
        <pt x="427" y="30" on="0"/>
        <pt x="418" y="23" on="1"/>
        <pt x="415" y="20" on="0"/>
        <pt x="398" y="4" on="0"/>
        <pt x="395" y="1" on="1"/>
        <pt x="392" y="-3" on="0"/>
        <pt x="391" y="-4" on="1"/>
        <pt x="390" y="-6" on="0"/>
        <pt x="388" y="-7" on="1"/>
        <pt x="387" y="-9" on="0"/>
        <pt x="386" y="-10" on="1"/>
        <pt x="386" y="-11" on="0"/>
        <pt x="382" y="-17" on="1"/>
        <pt x="377" y="-22" on="0"/>
        <pt x="377" y="-23" on="1"/>
        <pt x="376" y="-24" on="0"/>
        <pt x="374" y="-28" on="1"/>
        <pt x="371" y="-32" on="0"/>
        <pt x="370" y="-33" on="1"/>
        <pt x="370" y="-33" on="0"/>
        <pt x="369" y="-34" on="1"/>
        <pt x="368" y="-36" on="0"/>
        <pt x="368" y="-36" on="1"/>
        <pt x="367" y="-38" on="0"/>
        <pt x="359" y="-51" on="0"/>
        <pt x="354" y="-59" on="1"/>
        <pt x="347" y="-70" on="0"/>
        <pt x="343" y="-76" on="0"/>
        <pt x="340" y="-80" on="1"/>
        <pt x="327" y="-92" on="0"/>
        <pt x="317" y="-88" on="1"/>
        <pt x="312" y="-86" on="0"/>
        <pt x="309" y="-78" on="1"/>
        <pt x="306" y="-72" on="0"/>
        <pt x="309" y="-69" on="1"/>
        <pt x="312" y="-66" on="0"/>
        <pt x="313" y="-65" on="1"/>
        <pt x="314" y="-63" on="0"/>
        <pt x="316" y="-62" on="1"/>
        <pt x="317" y="-60" on="0"/>
        <pt x="319" y="-58" on="1"/>
        <pt x="320" y="-56" on="0"/>
        <pt x="321" y="-56" on="1"/>
        <pt x="321" y="-55" on="0"/>
        <pt x="331" y="-39" on="0"/>
        <pt x="331" y="-39" on="1"/>
        <pt x="331" y="-39" on="0"/>
        <pt x="334" y="-32" on="1"/>
        <pt x="340" y="-17" on="0"/>
        <pt x="340" y="-14" on="1"/>
        <pt x="338" y="-5" on="0"/>
        <pt x="331" y="-3" on="1"/>
        <pt x="327" y="-2" on="0"/>
        <pt x="325" y="-2" on="1"/>
        <pt x="320" y="-2" on="0"/>
        <pt x="314" y="-8" on="1"/>
        <pt x="307" y="-15" on="0"/>
        <pt x="299" y="-29" on="1"/>
        <pt x="295" y="-37" on="0"/>
        <pt x="293" y="-40" on="1"/>
        <pt x="292" y="-40" on="0"/>
        <pt x="291" y="-41" on="1"/>
        <pt x="288" y="-46" on="0"/>
        <pt x="280" y="-50" on="1"/>
        <pt x="270" y="-54" on="0"/>
        <pt x="262" y="-55" on="1"/>
        <pt x="245" y="-58" on="0"/>
        <pt x="233" y="-53" on="1"/>
        <pt x="218" y="-47" on="0"/>
        <pt x="209" y="-39" on="1"/>
        <pt x="205" y="-36" on="0"/>
        <pt x="205" y="-36" on="1"/>
        <pt x="204" y="-36" on="0"/>
        <pt x="194" y="-26" on="0"/>
        <pt x="192" y="-23" on="1"/>
        <pt x="184" y="-12" on="0"/>
        <pt x="180" y="5" on="1"/>
        <pt x="176" y="22" on="0"/>
        <pt x="179" y="37" on="1"/>
        <pt x="180" y="41" on="0"/>
        <pt x="185" y="59" on="0"/>
        <pt x="187" y="62" on="1"/>
        <pt x="191" y="71" on="0"/>
        <pt x="194" y="76" on="1"/>
        <pt x="198" y="84" on="0"/>
        <pt x="200" y="86" on="1"/>
        <pt x="201" y="87" on="0"/>
        <pt x="202" y="89" on="1"/>
        <pt x="204" y="91" on="0"/>
        <pt x="205" y="92" on="1"/>
        <pt x="206" y="94" on="0"/>
        <pt x="209" y="97" on="0"/>
        <pt x="215" y="105" on="1"/>
        <pt x="222" y="114" on="0"/>
        <pt x="223" y="115" on="1"/>
        <pt x="224" y="116" on="0"/>
        <pt x="229" y="122" on="1"/>
        <pt x="234" y="129" on="0"/>
        <pt x="235" y="131" on="1"/>
        <pt x="238" y="134" on="0"/>
        <pt x="242" y="140" on="1"/>
        <pt x="246" y="145" on="0"/>
        <pt x="248" y="146" on="1"/>
        <pt x="249" y="148" on="0"/>
        <pt x="253" y="153" on="1"/>
        <pt x="256" y="158" on="0"/>
        <pt x="259" y="161" on="1"/>
        <pt x="262" y="165" on="0"/>
        <pt x="263" y="166" on="1"/>
        <pt x="263" y="167" on="0"/>
        <pt x="265" y="169" on="1"/>
        <pt x="266" y="170" on="0"/>
        <pt x="268" y="174" on="1"/>
        <pt x="271" y="177" on="0"/>
        <pt x="276" y="184" on="1"/>
        <pt x="281" y="191" on="0"/>
        <pt x="282" y="191" on="1"/>
        <pt x="282" y="192" on="0"/>
        <pt x="284" y="195" on="1"/>
        <pt x="286" y="198" on="0"/>
        <pt x="287" y="198" on="1"/>
        <pt x="286" y="198" on="0"/>
        <pt x="289" y="201" on="1"/>
        <pt x="291" y="204" on="0"/>
        <pt x="291" y="204" on="1"/>
        <pt x="292" y="205" on="0"/>
        <pt x="299" y="216" on="0"/>
        <pt x="300" y="218" on="1"/>
        <pt x="310" y="235" on="0"/>
        <pt x="315" y="255" on="1"/>
        <pt x="316" y="259" on="0"/>
        <pt x="316" y="263" on="0"/>
        <pt x="315" y="271" on="1"/>
        <pt x="314" y="281" on="0"/>
        <pt x="315" y="285" on="1"/>
        <pt x="316" y="293" on="0"/>
        <pt x="320" y="300" on="1"/>
        <pt x="321" y="303" on="0"/>
        <pt x="323" y="307" on="1"/>
        <pt x="325" y="310" on="0"/>
        <pt x="337" y="329" on="0"/>
        <pt x="343" y="336" on="1"/>
        <pt x="349" y="345" on="0"/>
        <pt x="359" y="354" on="1"/>
        <pt x="363" y="357" on="0"/>
        <pt x="363" y="358" on="1"/>
        <pt x="363" y="361" on="0"/>
        <pt x="366" y="356" on="1"/>
        <pt x="375" y="340" on="0"/>
        <pt x="383" y="335" on="1"/>
        <pt x="386" y="333" on="0"/>
        <pt x="390" y="333" on="1"/>
        <pt x="395" y="333" on="0"/>
        <pt x="400" y="335" on="1"/>
        <pt x="414" y="342" on="0"/>
        <pt x="412" y="351" on="1"/>
        <pt x="411" y="357" on="0"/>
        <pt x="409" y="359" on="1"/>
        <pt x="409" y="359" on="0"/>
        <pt x="402" y="370" on="0"/>
        <pt x="400" y="374" on="1"/>
        <pt x="398" y="377" on="0"/>
        <pt x="389" y="396" on="0"/>
        <pt x="389" y="396" on="1"/>
        <pt x="389" y="396" on="0"/>
        <pt x="388" y="399" on="1"/>
        <pt x="386" y="403" on="0"/>
        <pt x="386" y="403" on="1"/>
        <pt x="386" y="403" on="0"/>
        <pt x="385" y="406" on="1"/>
        <pt x="381" y="414" on="0"/>
        <pt x="372" y="443" on="0"/>
        <pt x="370" y="455" on="1"/>
        <pt x="367" y="466" on="0"/>
        <pt x="364" y="489" on="0"/>
        <pt x="364" y="490" on="1"/>
        <pt x="364" y="490" on="0"/>
        <pt x="368" y="489" on="1"/>
        <pt x="372" y="487" on="0"/>
        <pt x="375" y="486" on="1"/>
        <pt x="380" y="483" on="0"/>
        <pt x="391" y="478" on="1"/>
        <pt x="406" y="471" on="0"/>
        <pt x="422" y="461" on="1"/>
        <pt x="425" y="459" on="0"/>
        <pt x="426" y="459" on="1"/>
        <pt x="427" y="458" on="0"/>
        <pt x="429" y="457" on="1"/>
        <pt x="440" y="449" on="0"/>
        <pt x="441" y="449" on="1"/>
        <pt x="442" y="448" on="0"/>
        <pt x="446" y="445" on="1"/>
        <pt x="450" y="443" on="0"/>
        <pt x="451" y="442" on="1"/>
        <pt x="452" y="442" on="0"/>
        <pt x="453" y="440" on="1"/>
        <pt x="454" y="439" on="0"/>
        <pt x="456" y="438" on="1"/>
        <pt x="461" y="435" on="0"/>
        <pt x="467" y="429" on="1"/>
        <pt x="471" y="426" on="0"/>
        <pt x="474" y="424" on="1"/>
        <pt x="478" y="421" on="0"/>
        <pt x="478" y="419" on="1"/>
        <pt x="478" y="419" on="0"/>
        <pt x="476" y="418" on="1"/>
        <pt x="467" y="414" on="0"/>
        <pt x="461" y="412" on="1"/>
        <pt x="457" y="410" on="0"/>
        <pt x="453" y="409" on="1"/>
        <pt x="450" y="407" on="0"/>
        <pt x="446" y="406" on="1"/>
        <pt x="431" y="399" on="0"/>
        <pt x="429" y="394" on="1"/>
        <pt x="425" y="387" on="0"/>
        <pt x="434" y="377" on="1"/>
        <pt x="438" y="372" on="0"/>
        <pt x="444" y="371" on="1"/>
        <pt x="449" y="371" on="0"/>
        <pt x="461" y="376" on="1"/>
        <pt x="474" y="382" on="0"/>
        <pt x="480" y="384" on="1"/>
        <pt x="496" y="390" on="0"/>
        <pt x="498" y="390" on="1"/>
        <pt x="501" y="391" on="0"/>
        <pt x="504" y="392" on="1"/>
        <pt x="510" y="394" on="0"/>
        <pt x="509" y="392" on="1"/>
        <pt x="507" y="387" on="0"/>
        <pt x="509" y="381" on="1"/>
        <pt x="512" y="376" on="0"/>
        <pt x="518" y="373" on="1"/>
        <pt x="521" y="371" on="0"/>
        <pt x="529" y="371" on="1"/>
        <pt x="537" y="371" on="0"/>
        <pt x="540" y="373" on="1"/>
        <pt x="545" y="376" on="0"/>
        <pt x="547" y="381" on="1"/>
        <pt x="547" y="382" on="0"/>
        <pt x="548" y="390" on="1"/>
        <pt x="551" y="418" on="0"/>
        <pt x="565" y="443" on="1"/>
        <pt x="569" y="448" on="0"/>
        <pt x="569" y="448" on="1"/>
        <pt x="569" y="449" on="0"/>
        <pt x="571" y="452" on="1"/>
        <pt x="576" y="459" on="0"/>
        <pt x="594" y="478" on="0"/>
        <pt x="596" y="478" on="1"/>
        <pt x="598" y="478" on="0"/>
        <pt x="611" y="465" on="1"/>
        <pt x="621" y="455" on="0"/>
        <pt x="629" y="443" on="1"/>
        <pt x="632" y="439" on="0"/>
        <pt x="638" y="428" on="1"/>
        <pt x="642" y="420" on="0"/>
        <pt x="646" y="407" on="1"/>
        <pt x="650" y="392" on="0"/>
        <pt x="651" y="372" on="1"/>
        <pt x="651" y="362" on="0"/>
        <pt x="652" y="356" on="0"/>
        <pt x="655" y="354" on="1"/>
        <pt x="665" y="344" on="0"/>
        <pt x="680" y="351" on="1"/>
        <pt x="687" y="354" on="0"/>
        <pt x="691" y="364" on="0"/>
        <pt x="690" y="378" on="1"/>
        <pt x="690" y="394" on="0"/>
        <pt x="687" y="408" on="1"/>
        <pt x="686" y="414" on="0"/>
        <pt x="686" y="414" on="1"/>
        <pt x="686" y="415" on="0"/>
        <pt x="705" y="411" on="0"/>
        <pt x="728" y="406" on="0"/>
        <pt x="734" y="405" on="1"/>
        <pt x="739" y="403" on="0"/>
        <pt x="740" y="403" on="1"/>
        <pt x="741" y="403" on="0"/>
        <pt x="758" y="398" on="1"/>
        <pt x="774" y="393" on="0"/>
        <pt x="789" y="387" on="1"/>
        <pt x="794" y="386" on="0"/>
        <pt x="797" y="384" on="1"/>
        <pt x="818" y="376" on="0"/>
        <pt x="845" y="362" on="1"/>
        <pt x="855" y="356" on="0"/>
        <pt x="862" y="352" on="1"/>
        <pt x="870" y="347" on="0"/>
        <pt x="872" y="346" on="1"/>
        <pt x="874" y="345" on="0"/>
        <pt x="875" y="344" on="1"/>
        <pt x="877" y="343" on="0"/>
        <pt x="879" y="341" on="1"/>
        <pt x="881" y="340" on="0"/>
        <pt x="882" y="339" on="1"/>
        <pt x="888" y="335" on="0"/>
        <pt x="892" y="332" on="1"/>
        <pt x="894" y="331" on="0"/>
        <pt x="896" y="330" on="1"/>
        <pt x="897" y="329" on="0"/>
        <pt x="902" y="325" on="0"/>
        <pt x="909" y="319" on="1"/>
        <pt x="925" y="306" on="0"/>
        <pt x="941" y="289" on="1"/>
        <pt x="945" y="285" on="0"/>
        <pt x="965" y="260" on="0"/>
        <pt x="967" y="257" on="1"/>
        <pt x="968" y="255" on="0"/>
        <pt x="971" y="252" on="1"/>
        <pt x="973" y="248" on="0"/>
        <pt x="979" y="240" on="1"/>
        <pt x="985" y="231" on="0"/>
        <pt x="986" y="230" on="1"/>
        <pt x="987" y="227" on="0"/>
        <pt x="999" y="207" on="0"/>
        <pt x="1002" y="201" on="1"/>
        <pt x="1012" y="184" on="0"/>
        <pt x="1019" y="168" on="1"/>
        <pt x="1021" y="162" on="0"/>
        <pt x="1022" y="160" on="1"/>
        <pt x="1031" y="141" on="0"/>
        <pt x="1040" y="113" on="1"/>
        <pt x="1059" y="58" on="0"/>
        <pt x="1065" y="11" on="1"/>
        <pt x="1068" y="-7" on="0"/>
        <pt x="1069" y="-29" on="0"/>
      </contour>
      <contour>
        <pt x="221" y="5" on="1"/>
        <pt x="229" y="2" on="0"/>
        <pt x="238" y="5" on="1"/>
        <pt x="250" y="7" on="0"/>
        <pt x="251" y="20" on="1"/>
        <pt x="252" y="27" on="0"/>
        <pt x="256" y="31" on="1"/>
        <pt x="256" y="32" on="0"/>
        <pt x="258" y="35" on="1"/>
        <pt x="263" y="41" on="0"/>
        <pt x="270" y="44" on="1"/>
        <pt x="273" y="45" on="0"/>
        <pt x="276" y="49" on="1"/>
        <pt x="282" y="54" on="0"/>
        <pt x="280" y="60" on="1"/>
        <pt x="277" y="69" on="0"/>
        <pt x="268" y="73" on="1"/>
        <pt x="262" y="75" on="0"/>
        <pt x="258" y="75" on="1"/>
        <pt x="254" y="74" on="0"/>
        <pt x="247" y="70" on="0"/>
        <pt x="237" y="64" on="1"/>
        <pt x="231" y="60" on="0"/>
        <pt x="224" y="51" on="1"/>
        <pt x="216" y="40" on="0"/>
        <pt x="213" y="25" on="1"/>
        <pt x="212" y="17" on="0"/>
        <pt x="213" y="13" on="1"/>
        <pt x="215" y="7" on="0"/>
      </contour>
      <contour>
        <pt x="362" y="218" on="1"/>
        <pt x="371" y="215" on="0"/>
        <pt x="378" y="219" on="1"/>
        <pt x="382" y="222" on="0"/>
        <pt x="385" y="227" on="1"/>
        <pt x="387" y="230" on="0"/>
        <pt x="393" y="240" on="0"/>
        <pt x="393" y="240" on="1"/>
        <pt x="394" y="240" on="0"/>
        <pt x="396" y="238" on="1"/>
        <pt x="399" y="237" on="0"/>
        <pt x="404" y="235" on="1"/>
        <pt x="410" y="234" on="0"/>
        <pt x="418" y="234" on="1"/>
        <pt x="427" y="234" on="0"/>
        <pt x="431" y="235" on="1"/>
        <pt x="442" y="239" on="0"/>
        <pt x="448" y="249" on="1"/>
        <pt x="456" y="265" on="0"/>
        <pt x="448" y="278" on="1"/>
        <pt x="446" y="281" on="1"/>
        <pt x="450" y="283" on="1"/>
        <pt x="454" y="285" on="0"/>
        <pt x="457" y="286" on="1"/>
        <pt x="472" y="292" on="0"/>
        <pt x="471" y="302" on="1"/>
        <pt x="470" y="314" on="0"/>
        <pt x="459" y="318" on="1"/>
        <pt x="450" y="322" on="0"/>
        <pt x="434" y="315" on="1"/>
        <pt x="431" y="314" on="0"/>
        <pt x="426" y="312" on="1"/>
        <pt x="420" y="310" on="0"/>
        <pt x="403" y="301" on="0"/>
        <pt x="400" y="299" on="1"/>
        <pt x="396" y="297" on="0"/>
        <pt x="394" y="295" on="1"/>
        <pt x="390" y="293" on="0"/>
        <pt x="373" y="277" on="0"/>
        <pt x="369" y="273" on="1"/>
        <pt x="367" y="271" on="0"/>
        <pt x="366" y="269" on="1"/>
        <pt x="364" y="267" on="0"/>
        <pt x="359" y="260" on="1"/>
        <pt x="354" y="253" on="0"/>
        <pt x="350" y="244" on="1"/>
        <pt x="347" y="239" on="0"/>
        <pt x="347" y="235" on="1"/>
        <pt x="347" y="229" on="0"/>
        <pt x="351" y="224" on="1"/>
        <pt x="355" y="220" on="0"/>
      </contour>
      <contour>
        <pt x="826" y="416" on="1"/>
        <pt x="825" y="415" on="0"/>
        <pt x="824" y="416" on="1"/>
        <pt x="823" y="416" on="0"/>
        <pt x="820" y="417" on="1"/>
        <pt x="817" y="418" on="0"/>
        <pt x="812" y="420" on="1"/>
        <pt x="801" y="424" on="0"/>
        <pt x="788" y="428" on="1"/>
        <pt x="778" y="431" on="0"/>
        <pt x="771" y="433" on="0"/>
        <pt x="771" y="433" on="1"/>
        <pt x="770" y="433" on="0"/>
        <pt x="765" y="435" on="1"/>
        <pt x="754" y="438" on="0"/>
        <pt x="713" y="445" on="0"/>
        <pt x="702" y="446" on="1"/>
        <pt x="695" y="447" on="0"/>
        <pt x="687" y="447" on="1"/>
        <pt x="679" y="448" on="0"/>
        <pt x="674" y="449" on="1"/>
        <pt x="669" y="449" on="0"/>
        <pt x="669" y="450" on="1"/>
        <pt x="669" y="451" on="0"/>
        <pt x="660" y="464" on="0"/>
        <pt x="659" y="465" on="1"/>
        <pt x="658" y="465" on="0"/>
        <pt x="658" y="472" on="0"/>
        <pt x="658" y="484" on="1"/>
        <pt x="658" y="502" on="1"/>
        <pt x="687" y="502" on="1"/>
        <pt x="717" y="503" on="1"/>
        <pt x="720" y="505" on="1"/>
        <pt x="724" y="507" on="0"/>
        <pt x="724" y="507" on="1"/>
        <pt x="724" y="507" on="0"/>
        <pt x="725" y="509" on="1"/>
        <pt x="728" y="512" on="0"/>
        <pt x="728" y="519" on="1"/>
        <pt x="728" y="530" on="0"/>
        <pt x="718" y="534" on="1"/>
        <pt x="715" y="535" on="1"/>
        <pt x="686" y="536" on="1"/>
        <pt x="658" y="536" on="1"/>
        <pt x="658" y="560" on="1"/>
        <pt x="658" y="583" on="1"/>
        <pt x="656" y="587" on="1"/>
        <pt x="652" y="595" on="0"/>
        <pt x="638" y="595" on="1"/>
        <pt x="623" y="595" on="0"/>
        <pt x="618" y="586" on="1"/>
        <pt x="617" y="583" on="1"/>
        <pt x="617" y="560" on="1"/>
        <pt x="616" y="536" on="1"/>
        <pt x="589" y="536" on="1"/>
        <pt x="561" y="535" on="1"/>
        <pt x="557" y="534" on="1"/>
        <pt x="549" y="530" on="0"/>
        <pt x="548" y="521" on="1"/>
        <pt x="547" y="504" on="0"/>
        <pt x="563" y="503" on="1"/>
        <pt x="567" y="502" on="0"/>
        <pt x="567" y="502" on="1"/>
        <pt x="567" y="501" on="0"/>
        <pt x="565" y="500" on="1"/>
        <pt x="562" y="498" on="0"/>
        <pt x="548" y="482" on="0"/>
        <pt x="546" y="479" on="1"/>
        <pt x="544" y="477" on="0"/>
        <pt x="542" y="475" on="1"/>
        <pt x="542" y="475" on="0"/>
        <pt x="533" y="461" on="0"/>
        <pt x="532" y="459" on="1"/>
        <pt x="527" y="451" on="0"/>
        <pt x="522" y="439" on="1"/>
        <pt x="520" y="433" on="0"/>
        <pt x="519" y="432" on="1"/>
        <pt x="519" y="432" on="0"/>
        <pt x="515" y="435" on="1"/>
        <pt x="511" y="439" on="0"/>
        <pt x="507" y="443" on="1"/>
        <pt x="502" y="447" on="0"/>
        <pt x="501" y="448" on="1"/>
        <pt x="500" y="449" on="0"/>
        <pt x="500" y="449" on="1"/>
        <pt x="499" y="449" on="0"/>
        <pt x="493" y="454" on="1"/>
        <pt x="480" y="465" on="0"/>
        <pt x="479" y="465" on="1"/>
        <pt x="479" y="465" on="0"/>
        <pt x="477" y="467" on="1"/>
        <pt x="476" y="468" on="0"/>
        <pt x="475" y="468" on="1"/>
        <pt x="474" y="468" on="0"/>
        <pt x="473" y="470" on="1"/>
        <pt x="472" y="471" on="0"/>
        <pt x="471" y="471" on="1"/>
        <pt x="470" y="472" on="0"/>
        <pt x="466" y="474" on="1"/>
        <pt x="463" y="477" on="0"/>
        <pt x="462" y="477" on="1"/>
        <pt x="461" y="478" on="0"/>
        <pt x="459" y="479" on="1"/>
        <pt x="457" y="481" on="0"/>
        <pt x="456" y="481" on="1"/>
        <pt x="454" y="483" on="0"/>
        <pt x="444" y="489" on="1"/>
        <pt x="439" y="492" on="0"/>
        <pt x="436" y="494" on="1"/>
        <pt x="424" y="500" on="0"/>
        <pt x="424" y="501" on="1"/>
        <pt x="424" y="502" on="0"/>
        <pt x="426" y="514" on="0"/>
        <pt x="427" y="517" on="1"/>
        <pt x="433" y="539" on="0"/>
        <pt x="444" y="555" on="1"/>
        <pt x="448" y="561" on="0"/>
        <pt x="448" y="561" on="1"/>
        <pt x="449" y="561" on="0"/>
        <pt x="450" y="563" on="1"/>
        <pt x="452" y="566" on="0"/>
        <pt x="464" y="578" on="0"/>
        <pt x="468" y="582" on="1"/>
        <pt x="477" y="589" on="0"/>
        <pt x="490" y="598" on="1"/>
        <pt x="492" y="599" on="0"/>
        <pt x="494" y="601" on="1"/>
        <pt x="495" y="602" on="0"/>
        <pt x="496" y="603" on="1"/>
        <pt x="503" y="607" on="0"/>
        <pt x="508" y="611" on="1"/>
        <pt x="510" y="612" on="0"/>
        <pt x="510" y="612" on="1"/>
        <pt x="511" y="612" on="0"/>
        <pt x="512" y="614" on="1"/>
        <pt x="513" y="615" on="0"/>
        <pt x="514" y="616" on="1"/>
        <pt x="516" y="616" on="0"/>
        <pt x="521" y="620" on="1"/>
        <pt x="527" y="624" on="0"/>
        <pt x="528" y="625" on="1"/>
        <pt x="531" y="627" on="0"/>
        <pt x="539" y="633" on="1"/>
        <pt x="544" y="637" on="0"/>
        <pt x="546" y="638" on="1"/>
        <pt x="548" y="639" on="0"/>
        <pt x="550" y="641" on="1"/>
        <pt x="555" y="644" on="0"/>
        <pt x="559" y="647" on="1"/>
        <pt x="561" y="648" on="0"/>
        <pt x="568" y="654" on="1"/>
        <pt x="575" y="659" on="0"/>
        <pt x="577" y="660" on="1"/>
        <pt x="583" y="665" on="0"/>
        <pt x="589" y="670" on="1"/>
        <pt x="593" y="673" on="0"/>
        <pt x="593" y="673" on="1"/>
        <pt x="594" y="673" on="0"/>
        <pt x="613" y="689" on="0"/>
        <pt x="614" y="691" on="1"/>
        <pt x="615" y="692" on="0"/>
        <pt x="618" y="694" on="1"/>
        <pt x="622" y="697" on="0"/>
        <pt x="633" y="708" on="1"/>
        <pt x="637" y="711" on="0"/>
        <pt x="638" y="711" on="1"/>
        <pt x="638" y="711" on="0"/>
        <pt x="641" y="709" on="1"/>
        <pt x="650" y="700" on="0"/>
        <pt x="688" y="668" on="0"/>
        <pt x="697" y="660" on="1"/>
        <pt x="716" y="647" on="0"/>
        <pt x="720" y="644" on="1"/>
        <pt x="722" y="643" on="0"/>
        <pt x="724" y="641" on="1"/>
        <pt x="727" y="639" on="0"/>
        <pt x="728" y="638" on="1"/>
        <pt x="734" y="635" on="0"/>
        <pt x="739" y="631" on="1"/>
        <pt x="742" y="628" on="0"/>
        <pt x="746" y="625" on="1"/>
        <pt x="755" y="619" on="0"/>
        <pt x="758" y="617" on="1"/>
        <pt x="760" y="616" on="0"/>
        <pt x="761" y="615" on="1"/>
        <pt x="763" y="614" on="0"/>
        <pt x="769" y="609" on="1"/>
        <pt x="772" y="607" on="0"/>
        <pt x="773" y="606" on="1"/>
        <pt x="775" y="605" on="0"/>
        <pt x="781" y="601" on="1"/>
        <pt x="788" y="596" on="0"/>
        <pt x="791" y="594" on="1"/>
        <pt x="802" y="586" on="0"/>
        <pt x="815" y="574" on="1"/>
        <pt x="830" y="558" on="0"/>
        <pt x="839" y="540" on="1"/>
        <pt x="853" y="511" on="0"/>
        <pt x="852" y="486" on="1"/>
        <pt x="851" y="457" on="0"/>
        <pt x="836" y="431" on="1"/>
        <pt x="835" y="429" on="0"/>
        <pt x="827" y="418" on="0"/>
      </contour>
      <contour>
        <pt x="651" y="756" on="1"/>
        <pt x="648" y="755" on="0"/>
        <pt x="640" y="755" on="1"/>
        <pt x="628" y="754" on="0"/>
        <pt x="622" y="756" on="1"/>
        <pt x="619" y="757" on="0"/>
        <pt x="617" y="757" on="1"/>
        <pt x="609" y="759" on="0"/>
        <pt x="602" y="769" on="1"/>
        <pt x="598" y="775" on="0"/>
        <pt x="598" y="786" on="1"/>
        <pt x="597" y="806" on="0"/>
        <pt x="610" y="815" on="1"/>
        <pt x="625" y="826" on="0"/>
        <pt x="652" y="821" on="1"/>
        <pt x="674" y="816" on="0"/>
        <pt x="677" y="795" on="1"/>
        <pt x="679" y="779" on="0"/>
        <pt x="673" y="769" on="1"/>
        <pt x="666" y="759" on="0"/>
        <pt x="657" y="757" on="1"/>
        <pt x="655" y="757" on="0"/>
      </contour>
    </TTGlyph>
    <TTGlyph name="glyph00019" xMin="599" yMin="753" xMax="676" yMax="821">
      <contour>
        <pt x="623" y="757" on="1"/>
        <pt x="640" y="753" on="0"/>
        <pt x="669" y="763" on="0"/>
        <pt x="674" y="774" on="1"/>
        <pt x="676" y="779" on="0"/>
        <pt x="676" y="798" on="0"/>
        <pt x="674" y="803" on="1"/>
        <pt x="666" y="821" on="0"/>
        <pt x="638" y="821" on="1"/>
        <pt x="609" y="821" on="0"/>
        <pt x="601" y="803" on="1"/>
        <pt x="599" y="798" on="0"/>
        <pt x="599" y="779" on="0"/>
        <pt x="601" y="774" on="1"/>
        <pt x="607" y="760" on="0"/>
      </contour>
    </TTGlyph>
    <TTGlyph name="glyph00020" xMin="424" yMin="417" xMax="871" yMax="711">
      <contour>
        <pt x="807" y="423" on="1"/>
        <pt x="822" y="417" on="0"/>
        <pt x="824" y="417" on="1"/>
        <pt x="826" y="417" on="0"/>
        <pt x="830" y="423" on="1"/>
        <pt x="871" y="485" on="0"/>
        <pt x="832" y="550" on="1"/>
        <pt x="825" y="563" on="0"/>
        <pt x="793" y="591" on="0"/>
        <pt x="762" y="613" on="1"/>
        <pt x="732" y="634" on="0"/>
        <pt x="695" y="661" on="0"/>
        <pt x="666" y="685" on="0"/>
        <pt x="649" y="700" on="1"/>
        <pt x="637" y="711" on="1"/>
        <pt x="623" y="697" on="1"/>
        <pt x="604" y="680" on="0"/>
        <pt x="562" y="648" on="0"/>
        <pt x="523" y="621" on="1"/>
        <pt x="492" y="598" on="0"/>
        <pt x="460" y="573" on="0"/>
        <pt x="444" y="553" on="0"/>
        <pt x="438" y="541" on="1"/>
        <pt x="432" y="529" on="0"/>
        <pt x="424" y="504" on="0"/>
        <pt x="425" y="502" on="1"/>
        <pt x="426" y="501" on="0"/>
        <pt x="436" y="495" on="0"/>
        <pt x="443" y="490" on="1"/>
        <pt x="458" y="482" on="0"/>
        <pt x="495" y="454" on="0"/>
        <pt x="508" y="443" on="1"/>
        <pt x="519" y="433" on="1"/>
        <pt x="523" y="444" on="1"/>
        <pt x="534" y="469" on="0"/>
        <pt x="555" y="491" on="1"/>
        <pt x="565" y="502" on="0"/>
        <pt x="563" y="502" on="1"/>
        <pt x="554" y="502" on="0"/>
        <pt x="545" y="518" on="0"/>
        <pt x="549" y="527" on="1"/>
        <pt x="551" y="533" on="0"/>
        <pt x="565" y="536" on="0"/>
        <pt x="588" y="536" on="1"/>
        <pt x="615" y="536" on="1"/>
        <pt x="615" y="560" on="1"/>
        <pt x="615" y="577" on="0"/>
        <pt x="617" y="586" on="0"/>
        <pt x="619" y="589" on="1"/>
        <pt x="624" y="595" on="0"/>
        <pt x="648" y="597" on="0"/>
        <pt x="654" y="591" on="1"/>
        <pt x="658" y="587" on="0"/>
        <pt x="658" y="576" on="1"/>
        <pt x="658" y="566" on="0"/>
        <pt x="659" y="551" on="1"/>
        <pt x="660" y="536" on="1"/>
        <pt x="690" y="536" on="1"/>
        <pt x="720" y="535" on="1"/>
        <pt x="724" y="531" on="1"/>
        <pt x="735" y="518" on="0"/>
        <pt x="723" y="507" on="1"/>
        <pt x="719" y="502" on="1"/>
        <pt x="689" y="502" on="1"/>
        <pt x="660" y="502" on="1"/>
        <pt x="660" y="484" on="1"/>
        <pt x="660" y="471" on="0"/>
        <pt x="661" y="464" on="0"/>
        <pt x="665" y="458" on="1"/>
        <pt x="670" y="450" on="1"/>
        <pt x="691" y="448" on="1"/>
        <pt x="720" y="445" on="0"/>
        <pt x="783" y="431" on="0"/>
      </contour>
    </TTGlyph>
    <TTGlyph name="glyph00021" xMin="179" yMin="-99" xMax="1069" yMax="489">
      <contour>
        <pt x="552" y="-98" on="1"/>
        <pt x="552" y="-98" on="0"/>
        <pt x="621" y="-99" on="0"/>
        <pt x="739" y="-99" on="0"/>
        <pt x="810" y="-99" on="1"/>
        <pt x="1069" y="-99" on="1"/>
        <pt x="1068" y="-69" on="1"/>
        <pt x="1067" y="-28" on="0"/>
        <pt x="1066" y="6" on="0"/>
        <pt x="1064" y="19" on="1"/>
        <pt x="1060" y="46" on="0"/>
        <pt x="1040" y="112" on="0"/>
        <pt x="1014" y="177" on="0"/>
        <pt x="1001" y="202" on="1"/>
        <pt x="957" y="280" on="0"/>
        <pt x="900" y="325" on="1"/>
        <pt x="816" y="391" on="0"/>
        <pt x="692" y="413" on="1"/>
        <pt x="688" y="413" on="0"/>
        <pt x="687" y="412" on="0"/>
        <pt x="688" y="408" on="1"/>
        <pt x="690" y="399" on="0"/>
        <pt x="691" y="362" on="0"/>
        <pt x="689" y="359" on="1"/>
        <pt x="685" y="348" on="0"/>
        <pt x="670" y="348" on="1"/>
        <pt x="658" y="348" on="0"/>
        <pt x="650" y="359" on="0"/>
        <pt x="650" y="375" on="1"/>
        <pt x="650" y="397" on="0"/>
        <pt x="640" y="420" on="1"/>
        <pt x="631" y="442" on="0"/>
        <pt x="610" y="464" on="1"/>
        <pt x="599" y="476" on="0"/>
        <pt x="592" y="475" on="0"/>
        <pt x="581" y="462" on="1"/>
        <pt x="557" y="433" on="0"/>
        <pt x="550" y="396" on="1"/>
        <pt x="547" y="379" on="0"/>
        <pt x="540" y="371" on="0"/>
        <pt x="529" y="371" on="1"/>
        <pt x="521" y="371" on="0"/>
        <pt x="516" y="373" on="0"/>
        <pt x="512" y="376" on="1"/>
        <pt x="508" y="381" on="0"/>
        <pt x="508" y="387" on="1"/>
        <pt x="508" y="392" on="0"/>
        <pt x="507" y="392" on="1"/>
        <pt x="506" y="392" on="0"/>
        <pt x="474" y="381" on="0"/>
        <pt x="465" y="377" on="1"/>
        <pt x="452" y="371" on="0"/>
        <pt x="439" y="371" on="0"/>
        <pt x="433" y="377" on="1"/>
        <pt x="428" y="383" on="0"/>
        <pt x="428" y="389" on="1"/>
        <pt x="428" y="395" on="0"/>
        <pt x="437" y="402" on="0"/>
        <pt x="455" y="411" on="1"/>
        <pt x="464" y="414" on="0"/>
        <pt x="475" y="420" on="0"/>
        <pt x="475" y="421" on="1"/>
        <pt x="475" y="422" on="0"/>
        <pt x="463" y="431" on="1"/>
        <pt x="426" y="460" on="0"/>
        <pt x="381" y="482" on="1"/>
        <pt x="366" y="489" on="1"/>
        <pt x="366" y="484" on="1"/>
        <pt x="366" y="477" on="0"/>
        <pt x="374" y="441" on="0"/>
        <pt x="379" y="426" on="1"/>
        <pt x="390" y="394" on="0"/>
        <pt x="406" y="366" on="1"/>
        <pt x="413" y="354" on="0"/>
        <pt x="413" y="350" on="1"/>
        <pt x="413" y="340" on="0"/>
        <pt x="390" y="329" on="0"/>
        <pt x="381" y="335" on="1"/>
        <pt x="379" y="336" on="0"/>
        <pt x="372" y="345" on="0"/>
        <pt x="364" y="356" on="1"/>
        <pt x="363" y="358" on="0"/>
        <pt x="343" y="334" on="0"/>
        <pt x="336" y="324" on="1"/>
        <pt x="322" y="303" on="0"/>
        <pt x="316" y="288" on="0"/>
        <pt x="316" y="272" on="1"/>
        <pt x="316" y="253" on="0"/>
        <pt x="307" y="228" on="0"/>
        <pt x="296" y="210" on="1"/>
        <pt x="292" y="205" on="0"/>
        <pt x="268" y="172" on="0"/>
        <pt x="236" y="130" on="0"/>
        <pt x="221" y="111" on="1"/>
        <pt x="212" y="99" on="0"/>
        <pt x="195" y="76" on="0"/>
        <pt x="193" y="72" on="1"/>
        <pt x="180" y="50" on="0"/>
        <pt x="179" y="-1" on="0"/>
        <pt x="191" y="-19" on="1"/>
        <pt x="195" y="-26" on="0"/>
        <pt x="216" y="-44" on="0"/>
        <pt x="226" y="-49" on="1"/>
        <pt x="256" y="-64" on="0"/>
        <pt x="284" y="-45" on="1"/>
        <pt x="290" y="-41" on="0"/>
        <pt x="300" y="-25" on="1"/>
        <pt x="310" y="-10" on="0"/>
        <pt x="320" y="-1" on="0"/>
        <pt x="327" y="-2" on="1"/>
        <pt x="333" y="-2" on="0"/>
        <pt x="336" y="-5" on="1"/>
        <pt x="343" y="-11" on="0"/>
        <pt x="329" y="-48" on="0"/>
        <pt x="314" y="-65" on="1"/>
        <pt x="306" y="-74" on="0"/>
        <pt x="314" y="-83" on="1"/>
        <pt x="319" y="-91" on="0"/>
        <pt x="339" y="-81" on="0"/>
        <pt x="349" y="-65" on="1"/>
        <pt x="366" y="-37" on="0"/>
        <pt x="392" y="-1" on="0"/>
        <pt x="418" y="25" on="0"/>
        <pt x="437" y="39" on="1"/>
        <pt x="461" y="56" on="0"/>
        <pt x="507" y="81" on="0"/>
        <pt x="539" y="92" on="1"/>
        <pt x="576" y="105" on="0"/>
        <pt x="613" y="125" on="0"/>
        <pt x="628" y="141" on="1"/>
        <pt x="650" y="162" on="0"/>
        <pt x="661" y="187" on="1"/>
        <pt x="663" y="194" on="0"/>
        <pt x="665" y="206" on="0"/>
        <pt x="666" y="220" on="1"/>
        <pt x="667" y="243" on="1"/>
        <pt x="673" y="246" on="1"/>
        <pt x="678" y="249" on="0"/>
        <pt x="689" y="248" on="1"/>
        <pt x="699" y="248" on="0"/>
        <pt x="704" y="242" on="1"/>
        <pt x="709" y="237" on="1"/>
        <pt x="708" y="220" on="1"/>
        <pt x="706" y="180" on="0"/>
        <pt x="682" y="143" on="1"/>
        <pt x="672" y="129" on="1"/>
        <pt x="676" y="116" on="1"/>
        <pt x="678" y="107" on="0"/>
        <pt x="679" y="95" on="0"/>
        <pt x="679" y="79" on="1"/>
        <pt x="678" y="59" on="0"/>
        <pt x="672" y="33" on="0"/>
        <pt x="662" y="13" on="1"/>
        <pt x="650" y="-13" on="0"/>
        <pt x="611" y="-54" on="0"/>
        <pt x="573" y="-82" on="1"/>
        <pt x="565" y="-88" on="0"/>
        <pt x="553" y="-97" on="0"/>
      </contour>
      <contour>
        <pt x="243" y="6" on="1"/>
        <pt x="225" y="-1" on="0"/>
        <pt x="216" y="8" on="1"/>
        <pt x="212" y="11" on="0"/>
        <pt x="213" y="22" on="1"/>
        <pt x="214" y="40" on="0"/>
        <pt x="227" y="56" on="1"/>
        <pt x="233" y="62" on="0"/>
        <pt x="251" y="74" on="0"/>
        <pt x="256" y="75" on="1"/>
        <pt x="265" y="77" on="0"/>
        <pt x="281" y="65" on="0"/>
        <pt x="281" y="57" on="1"/>
        <pt x="281" y="51" on="0"/>
        <pt x="275" y="47" on="1"/>
        <pt x="263" y="38" on="0"/>
        <pt x="254" y="28" on="0"/>
        <pt x="253" y="21" on="1"/>
        <pt x="250" y="8" on="0"/>
      </contour>
      <contour>
        <pt x="379" y="219" on="1"/>
        <pt x="369" y="213" on="0"/>
        <pt x="346" y="225" on="0"/>
        <pt x="346" y="235" on="1"/>
        <pt x="346" y="242" on="0"/>
        <pt x="364" y="268" on="0"/>
        <pt x="390" y="294" on="0"/>
        <pt x="402" y="302" on="1"/>
        <pt x="429" y="317" on="0"/>
        <pt x="448" y="320" on="1"/>
        <pt x="463" y="322" on="0"/>
        <pt x="469" y="310" on="1"/>
        <pt x="477" y="294" on="0"/>
        <pt x="456" y="285" on="1"/>
        <pt x="447" y="281" on="1"/>
        <pt x="450" y="276" on="1"/>
        <pt x="454" y="268" on="0"/>
        <pt x="448" y="244" on="0"/>
        <pt x="439" y="238" on="1"/>
        <pt x="426" y="229" on="0"/>
        <pt x="406" y="234" on="1"/>
        <pt x="399" y="236" on="0"/>
        <pt x="396" y="237" on="1"/>
        <pt x="392" y="238" on="0"/>
        <pt x="388" y="230" on="1"/>
        <pt x="383" y="221" on="0"/>
      </contour>
    </TTGlyph>
    <TTGlyph name="glyph00022" xMin="158" yMin="-130" xMax="1118" yMax="834">
      <contour>
        <pt x="482" y="-128" on="1"/>
        <pt x="502" y="-130" on="0"/>
        <pt x="521" y="-126" on="1"/>
        <pt x="549" y="-121" on="0"/>
        <pt x="579" y="-102" on="1"/>
        <pt x="590" y="-95" on="0"/>
        <pt x="615" y="-74" on="0"/>
        <pt x="620" y="-67" on="1"/>
        <pt x="629" y="-55" on="0"/>
        <pt x="635" y="-32" on="1"/>
        <pt x="637" y="-25" on="0"/>
        <pt x="638" y="-25" on="1"/>
        <pt x="638" y="-25" on="0"/>
        <pt x="639" y="-30" on="1"/>
        <pt x="645" y="-54" on="0"/>
        <pt x="654" y="-65" on="1"/>
        <pt x="659" y="-71" on="0"/>
        <pt x="690" y="-98" on="0"/>
        <pt x="699" y="-104" on="1"/>
        <pt x="724" y="-121" on="0"/>
        <pt x="752" y="-126" on="1"/>
        <pt x="772" y="-130" on="0"/>
        <pt x="792" y="-128" on="1"/>
        <pt x="795" y="-128" on="0"/>
        <pt x="848" y="-120" on="0"/>
        <pt x="882" y="-116" on="1"/>
        <pt x="917" y="-111" on="0"/>
        <pt x="970" y="-104" on="0"/>
        <pt x="972" y="-103" on="1"/>
        <pt x="978" y="-103" on="0"/>
        <pt x="986" y="-104" on="1"/>
        <pt x="994" y="-105" on="0"/>
        <pt x="999" y="-105" on="1"/>
        <pt x="1014" y="-105" on="0"/>
        <pt x="1034" y="-112" on="1"/>
        <pt x="1049" y="-117" on="0"/>
        <pt x="1057" y="-124" on="1"/>
        <pt x="1060" y="-127" on="1"/>
        <pt x="1061" y="-125" on="1"/>
        <pt x="1062" y="-124" on="0"/>
        <pt x="1079" y="-96" on="0"/>
        <pt x="1090" y="-78" on="1"/>
        <pt x="1118" y="-33" on="1"/>
        <pt x="1112" y="-28" on="1"/>
        <pt x="1103" y="-19" on="0"/>
        <pt x="1088" y="-12" on="1"/>
        <pt x="1057" y="4" on="0"/>
        <pt x="1022" y="10" on="1"/>
        <pt x="1012" y="12" on="0"/>
        <pt x="995" y="13" on="0"/>
        <pt x="977" y="13" on="1"/>
        <pt x="967" y="13" on="0"/>
        <pt x="951" y="13" on="0"/>
        <pt x="948" y="13" on="1"/>
        <pt x="944" y="14" on="0"/>
        <pt x="938" y="13" on="0"/>
        <pt x="927" y="12" on="1"/>
        <pt x="911" y="9" on="0"/>
        <pt x="856" y="1" on="0"/>
        <pt x="811" y="-5" on="0"/>
        <pt x="809" y="-5" on="1"/>
        <pt x="787" y="-5" on="0"/>
        <pt x="774" y="-1" on="1"/>
        <pt x="769" y="1" on="0"/>
        <pt x="749" y="12" on="0"/>
        <pt x="741" y="18" on="1"/>
        <pt x="736" y="22" on="0"/>
        <pt x="717" y="43" on="0"/>
        <pt x="718" y="43" on="1"/>
        <pt x="719" y="43" on="0"/>
        <pt x="729" y="44" on="1"/>
        <pt x="774" y="51" on="0"/>
        <pt x="827" y="69" on="1"/>
        <pt x="838" y="72" on="0"/>
        <pt x="837" y="73" on="1"/>
        <pt x="837" y="73" on="0"/>
        <pt x="820" y="116" on="0"/>
        <pt x="808" y="146" on="1"/>
        <pt x="796" y="176" on="0"/>
        <pt x="779" y="220" on="0"/>
        <pt x="778" y="221" on="1"/>
        <pt x="777" y="224" on="1"/>
        <pt x="789" y="231" on="1"/>
        <pt x="817" y="248" on="0"/>
        <pt x="848" y="273" on="0"/>
        <pt x="858" y="286" on="1"/>
        <pt x="880" y="315" on="0"/>
        <pt x="887" y="349" on="1"/>
        <pt x="891" y="365" on="0"/>
        <pt x="893" y="405" on="0"/>
        <pt x="891" y="418" on="1"/>
        <pt x="886" y="450" on="0"/>
        <pt x="875" y="479" on="1"/>
        <pt x="861" y="516" on="0"/>
        <pt x="827" y="545" on="1"/>
        <pt x="820" y="550" on="0"/>
        <pt x="806" y="561" on="1"/>
        <pt x="764" y="593" on="0"/>
        <pt x="734" y="620" on="1"/>
        <pt x="709" y="642" on="0"/>
        <pt x="678" y="677" on="1"/>
        <pt x="674" y="682" on="1"/>
        <pt x="678" y="684" on="1"/>
        <pt x="719" y="708" on="0"/>
        <pt x="717" y="756" on="1"/>
        <pt x="716" y="778" on="0"/>
        <pt x="704" y="796" on="1"/>
        <pt x="701" y="801" on="0"/>
        <pt x="686" y="816" on="0"/>
        <pt x="681" y="819" on="1"/>
        <pt x="668" y="828" on="0"/>
        <pt x="653" y="831" on="1"/>
        <pt x="637" y="834" on="0"/>
        <pt x="621" y="831" on="1"/>
        <pt x="598" y="826" on="0"/>
        <pt x="582" y="809" on="1"/>
        <pt x="571" y="799" on="0"/>
        <pt x="565" y="786" on="1"/>
        <pt x="550" y="755" on="0"/>
        <pt x="564" y="720" on="1"/>
        <pt x="573" y="698" on="0"/>
        <pt x="597" y="684" on="1"/>
        <pt x="601" y="682" on="1"/>
        <pt x="596" y="676" on="1"/>
        <pt x="565" y="641" on="0"/>
        <pt x="534" y="614" on="1"/>
        <pt x="521" y="603" on="0"/>
        <pt x="484" y="573" on="0"/>
        <pt x="467" y="560" on="1"/>
        <pt x="454" y="550" on="0"/>
        <pt x="449" y="546" on="1"/>
        <pt x="428" y="528" on="0"/>
        <pt x="414" y="507" on="1"/>
        <pt x="391" y="473" on="0"/>
        <pt x="383" y="420" on="1"/>
        <pt x="382" y="412" on="0"/>
        <pt x="382" y="380" on="0"/>
        <pt x="383" y="372" on="1"/>
        <pt x="386" y="352" on="0"/>
        <pt x="394" y="327" on="0"/>
        <pt x="402" y="311" on="1"/>
        <pt x="414" y="286" on="0"/>
        <pt x="429" y="271" on="1"/>
        <pt x="445" y="256" on="0"/>
        <pt x="484" y="232" on="1"/>
        <pt x="498" y="224" on="1"/>
        <pt x="497" y="221" on="1"/>
        <pt x="496" y="220" on="0"/>
        <pt x="479" y="176" on="0"/>
        <pt x="467" y="146" on="1"/>
        <pt x="455" y="116" on="0"/>
        <pt x="438" y="73" on="0"/>
        <pt x="438" y="73" on="1"/>
        <pt x="437" y="72" on="0"/>
        <pt x="443" y="70" on="0"/>
        <pt x="455" y="66" on="1"/>
        <pt x="505" y="49" on="0"/>
        <pt x="552" y="43" on="1"/>
        <pt x="557" y="42" on="1"/>
        <pt x="555" y="39" on="1"/>
        <pt x="546" y="28" on="0"/>
        <pt x="529" y="14" on="0"/>
        <pt x="514" y="5" on="1"/>
        <pt x="504" y="-1" on="0"/>
        <pt x="492" y="-3" on="1"/>
        <pt x="480" y="-5" on="0"/>
        <pt x="466" y="-5" on="1"/>
        <pt x="464" y="-5" on="0"/>
        <pt x="422" y="1" on="0"/>
        <pt x="369" y="8" on="0"/>
        <pt x="350" y="11" on="1"/>
        <pt x="338" y="13" on="0"/>
        <pt x="331" y="14" on="0"/>
        <pt x="327" y="13" on="1"/>
        <pt x="320" y="13" on="0"/>
        <pt x="298" y="13" on="1"/>
        <pt x="281" y="13" on="0"/>
        <pt x="264" y="12" on="0"/>
        <pt x="254" y="10" on="1"/>
        <pt x="222" y="5" on="0"/>
        <pt x="189" y="-11" on="1"/>
        <pt x="178" y="-16" on="0"/>
        <pt x="168" y="-23" on="0"/>
        <pt x="162" y="-29" on="1"/>
        <pt x="158" y="-33" on="1"/>
        <pt x="185" y="-79" on="1"/>
        <pt x="197" y="-97" on="0"/>
        <pt x="213" y="-125" on="0"/>
        <pt x="214" y="-125" on="1"/>
        <pt x="215" y="-127" on="1"/>
        <pt x="217" y="-125" on="1"/>
        <pt x="222" y="-120" on="0"/>
        <pt x="229" y="-116" on="1"/>
        <pt x="252" y="-105" on="0"/>
        <pt x="276" y="-105" on="1"/>
        <pt x="280" y="-105" on="0"/>
        <pt x="288" y="-104" on="1"/>
        <pt x="296" y="-103" on="0"/>
        <pt x="302" y="-103" on="1"/>
        <pt x="304" y="-104" on="0"/>
        <pt x="327" y="-106" on="0"/>
        <pt x="340" y="-108" on="1"/>
        <pt x="412" y="-118" on="0"/>
        <pt x="479" y="-128" on="0"/>
      </contour>
      <contour>
        <pt x="495" y="-88" on="1"/>
        <pt x="486" y="-89" on="0"/>
        <pt x="458" y="-89" on="0"/>
        <pt x="450" y="-88" on="1"/>
        <pt x="428" y="-86" on="0"/>
        <pt x="401" y="-82" on="1"/>
        <pt x="373" y="-78" on="0"/>
        <pt x="347" y="-74" on="1"/>
        <pt x="331" y="-72" on="0"/>
        <pt x="322" y="-71" on="1"/>
        <pt x="316" y="-70" on="0"/>
        <pt x="308" y="-69" on="0"/>
        <pt x="299" y="-69" on="1"/>
        <pt x="285" y="-69" on="0"/>
        <pt x="269" y="-71" on="0"/>
        <pt x="247" y="-76" on="1"/>
        <pt x="238" y="-78" on="0"/>
        <pt x="233" y="-83" on="1"/>
        <pt x="232" y="-85" on="1"/>
        <pt x="230" y="-82" on="1"/>
        <pt x="229" y="-81" on="0"/>
        <pt x="220" y="-65" on="0"/>
        <pt x="208" y="-46" on="1"/>
        <pt x="203" y="-39" on="1"/>
        <pt x="208" y="-37" on="1"/>
        <pt x="231" y="-25" on="0"/>
        <pt x="263" y="-20" on="1"/>
        <pt x="276" y="-18" on="0"/>
        <pt x="291" y="-17" on="0"/>
        <pt x="306" y="-17" on="1"/>
        <pt x="323" y="-17" on="0"/>
        <pt x="337" y="-19" on="0"/>
        <pt x="350" y="-22" on="1"/>
        <pt x="367" y="-27" on="0"/>
        <pt x="389" y="-31" on="0"/>
        <pt x="417" y="-35" on="1"/>
        <pt x="450" y="-41" on="0"/>
        <pt x="465" y="-42" on="0"/>
        <pt x="472" y="-42" on="1"/>
        <pt x="485" y="-42" on="0"/>
        <pt x="496" y="-39" on="1"/>
        <pt x="508" y="-36" on="0"/>
        <pt x="542" y="-21" on="0"/>
        <pt x="549" y="-15" on="1"/>
        <pt x="570" y="1" on="0"/>
        <pt x="592" y="34" on="1"/>
        <pt x="598" y="43" on="1"/>
        <pt x="607" y="43" on="1"/>
        <pt x="617" y="43" on="1"/>
        <pt x="616" y="35" on="1"/>
        <pt x="614" y="1" on="0"/>
        <pt x="598" y="-24" on="1"/>
        <pt x="582" y="-48" on="0"/>
        <pt x="565" y="-62" on="1"/>
        <pt x="541" y="-83" on="0"/>
      </contour>
      <contour>
        <pt x="834" y="-87" on="1"/>
        <pt x="783" y="-93" on="0"/>
        <pt x="743" y="-80" on="1"/>
        <pt x="710" y="-69" on="0"/>
        <pt x="685" y="-36" on="1"/>
        <pt x="660" y="-4" on="0"/>
        <pt x="658" y="35" on="1"/>
        <pt x="658" y="43" on="1"/>
        <pt x="667" y="43" on="1"/>
        <pt x="677" y="43" on="1"/>
        <pt x="684" y="32" on="1"/>
        <pt x="707" y="-2" on="0"/>
        <pt x="728" y="-17" on="1"/>
        <pt x="743" y="-27" on="0"/>
        <pt x="766" y="-35" on="1"/>
        <pt x="784" y="-41" on="0"/>
        <pt x="803" y="-42" on="1"/>
        <pt x="808" y="-42" on="0"/>
        <pt x="815" y="-42" on="0"/>
        <pt x="836" y="-39" on="0"/>
        <pt x="860" y="-35" on="1"/>
        <pt x="899" y="-29" on="0"/>
        <pt x="918" y="-24" on="1"/>
        <pt x="927" y="-21" on="0"/>
        <pt x="933" y="-20" on="1"/>
        <pt x="951" y="-16" on="0"/>
        <pt x="1010" y="-19" on="0"/>
        <pt x="1033" y="-25" on="1"/>
        <pt x="1043" y="-27" on="0"/>
        <pt x="1071" y="-38" on="0"/>
        <pt x="1071" y="-39" on="1"/>
        <pt x="1071" y="-39" on="0"/>
        <pt x="1058" y="-61" on="0"/>
        <pt x="1045" y="-83" on="0"/>
        <pt x="1044" y="-84" on="1"/>
        <pt x="1043" y="-85" on="0"/>
        <pt x="1041" y="-83" on="1"/>
        <pt x="1035" y="-78" on="0"/>
        <pt x="1027" y="-76" on="1"/>
        <pt x="1005" y="-71" on="0"/>
        <pt x="989" y="-69" on="0"/>
        <pt x="976" y="-69" on="1"/>
        <pt x="961" y="-69" on="0"/>
        <pt x="954" y="-70" on="1"/>
        <pt x="947" y="-72" on="0"/>
        <pt x="927" y="-74" on="1"/>
        <pt x="906" y="-77" on="0"/>
        <pt x="885" y="-80" on="1"/>
        <pt x="866" y="-83" on="0"/>
        <pt x="846" y="-86" on="0"/>
      </contour>
      <contour>
        <pt x="661" y="75" on="1"/>
        <pt x="653" y="75" on="0"/>
        <pt x="625" y="75" on="0"/>
        <pt x="618" y="75" on="1"/>
        <pt x="578" y="77" on="0"/>
        <pt x="531" y="87" on="1"/>
        <pt x="521" y="89" on="0"/>
        <pt x="488" y="97" on="0"/>
        <pt x="488" y="98" on="1"/>
        <pt x="488" y="98" on="0"/>
        <pt x="518" y="105" on="0"/>
        <pt x="531" y="107" on="1"/>
        <pt x="578" y="116" on="0"/>
        <pt x="692" y="116" on="0"/>
        <pt x="740" y="108" on="1"/>
        <pt x="753" y="106" on="0"/>
        <pt x="787" y="98" on="0"/>
        <pt x="787" y="98" on="1"/>
        <pt x="787" y="97" on="0"/>
        <pt x="753" y="89" on="0"/>
        <pt x="737" y="86" on="1"/>
        <pt x="695" y="77" on="0"/>
      </contour>
      <contour>
        <pt x="518" y="146" on="1"/>
        <pt x="507" y="144" on="0"/>
        <pt x="506" y="144" on="1"/>
        <pt x="505" y="143" on="0"/>
        <pt x="506" y="146" on="1"/>
        <pt x="507" y="147" on="0"/>
        <pt x="515" y="168" on="0"/>
        <pt x="520" y="182" on="1"/>
        <pt x="525" y="195" on="0"/>
        <pt x="533" y="215" on="0"/>
        <pt x="533" y="215" on="1"/>
        <pt x="534" y="216" on="0"/>
        <pt x="552" y="218" on="0"/>
        <pt x="563" y="219" on="1"/>
        <pt x="637" y="228" on="0"/>
        <pt x="711" y="220" on="1"/>
        <pt x="721" y="218" on="0"/>
        <pt x="741" y="216" on="0"/>
        <pt x="741" y="215" on="1"/>
        <pt x="741" y="215" on="0"/>
        <pt x="750" y="193" on="0"/>
        <pt x="761" y="165" on="0"/>
        <pt x="769" y="144" on="0"/>
        <pt x="769" y="144" on="1"/>
        <pt x="769" y="143" on="0"/>
        <pt x="763" y="145" on="1"/>
        <pt x="726" y="152" on="0"/>
        <pt x="677" y="156" on="1"/>
        <pt x="670" y="156" on="0"/>
        <pt x="637" y="157" on="0"/>
        <pt x="605" y="156" on="0"/>
        <pt x="598" y="156" on="1"/>
        <pt x="555" y="153" on="0"/>
      </contour>
      <contour>
        <pt x="541" y="257" on="1"/>
        <pt x="532" y="255" on="0"/>
        <pt x="530" y="255" on="1"/>
        <pt x="528" y="255" on="0"/>
        <pt x="507" y="263" on="0"/>
        <pt x="498" y="268" on="1"/>
        <pt x="480" y="278" on="0"/>
        <pt x="465" y="292" on="1"/>
        <pt x="450" y="307" on="0"/>
        <pt x="441" y="325" on="1"/>
        <pt x="424" y="358" on="0"/>
        <pt x="423" y="396" on="1"/>
        <pt x="422" y="425" on="0"/>
        <pt x="435" y="458" on="1"/>
        <pt x="447" y="488" on="0"/>
        <pt x="471" y="511" on="1"/>
        <pt x="479" y="519" on="0"/>
        <pt x="548" y="577" on="1"/>
        <pt x="572" y="597" on="0"/>
        <pt x="609" y="631" on="0"/>
        <pt x="631" y="655" on="1"/>
        <pt x="637" y="662" on="0"/>
        <pt x="637" y="662" on="1"/>
        <pt x="638" y="662" on="0"/>
        <pt x="649" y="650" on="1"/>
        <pt x="657" y="641" on="0"/>
        <pt x="690" y="608" on="0"/>
        <pt x="698" y="601" on="1"/>
        <pt x="705" y="594" on="0"/>
        <pt x="728" y="575" on="0"/>
        <pt x="760" y="549" on="1"/>
        <pt x="776" y="535" on="0"/>
        <pt x="802" y="513" on="0"/>
        <pt x="805" y="510" on="1"/>
        <pt x="833" y="481" on="0"/>
        <pt x="846" y="441" on="1"/>
        <pt x="853" y="417" on="0"/>
        <pt x="852" y="395" on="1"/>
        <pt x="849" y="334" on="0"/>
        <pt x="811" y="295" on="1"/>
        <pt x="789" y="271" on="0"/>
        <pt x="753" y="257" on="1"/>
        <pt x="747" y="255" on="1"/>
        <pt x="739" y="256" on="1"/>
        <pt x="693" y="263" on="0"/>
        <pt x="588" y="264" on="0"/>
      </contour>
      <contour>
        <pt x="630" y="346" on="1"/>
        <pt x="633" y="345" on="0"/>
        <pt x="639" y="345" on="1"/>
        <pt x="645" y="345" on="0"/>
        <pt x="649" y="347" on="1"/>
        <pt x="652" y="349" on="0"/>
        <pt x="654" y="352" on="1"/>
        <pt x="657" y="356" on="0"/>
        <pt x="658" y="364" on="0"/>
        <pt x="658" y="387" on="1"/>
        <pt x="658" y="414" on="1"/>
        <pt x="685" y="414" on="1"/>
        <pt x="707" y="414" on="0"/>
        <pt x="717" y="415" on="0"/>
        <pt x="720" y="417" on="1"/>
        <pt x="728" y="421" on="0"/>
        <pt x="728" y="447" on="0"/>
        <pt x="721" y="451" on="1"/>
        <pt x="717" y="453" on="0"/>
        <pt x="707" y="454" on="0"/>
        <pt x="685" y="454" on="1"/>
        <pt x="658" y="454" on="1"/>
        <pt x="658" y="482" on="1"/>
        <pt x="658" y="507" on="0"/>
        <pt x="656" y="516" on="0"/>
        <pt x="653" y="520" on="1"/>
        <pt x="648" y="525" on="0"/>
        <pt x="638" y="525" on="1"/>
        <pt x="629" y="525" on="0"/>
        <pt x="624" y="521" on="1"/>
        <pt x="621" y="519" on="0"/>
        <pt x="619" y="515" on="1"/>
        <pt x="617" y="511" on="1"/>
        <pt x="617" y="483" on="1"/>
        <pt x="616" y="454" on="1"/>
        <pt x="589" y="454" on="1"/>
        <pt x="561" y="454" on="1"/>
        <pt x="558" y="452" on="1"/>
        <pt x="552" y="450" on="0"/>
        <pt x="550" y="444" on="1"/>
        <pt x="548" y="441" on="0"/>
        <pt x="548" y="434" on="1"/>
        <pt x="548" y="427" on="0"/>
        <pt x="550" y="424" on="1"/>
        <pt x="552" y="419" on="0"/>
        <pt x="558" y="416" on="1"/>
        <pt x="560" y="415" on="0"/>
        <pt x="566" y="414" on="0"/>
        <pt x="579" y="414" on="1"/>
        <pt x="596" y="414" on="0"/>
        <pt x="606" y="414" on="1"/>
        <pt x="616" y="414" on="1"/>
        <pt x="616" y="388" on="1"/>
        <pt x="616" y="363" on="0"/>
        <pt x="617" y="359" on="1"/>
        <pt x="619" y="349" on="0"/>
      </contour>
      <contour>
        <pt x="647" y="714" on="1"/>
        <pt x="627" y="711" on="0"/>
        <pt x="614" y="718" on="1"/>
        <pt x="608" y="722" on="0"/>
        <pt x="604" y="728" on="1"/>
        <pt x="598" y="737" on="0"/>
        <pt x="597" y="767" on="0"/>
        <pt x="603" y="776" on="1"/>
        <pt x="606" y="783" on="0"/>
        <pt x="613" y="787" on="1"/>
        <pt x="629" y="797" on="0"/>
        <pt x="653" y="791" on="1"/>
        <pt x="661" y="788" on="0"/>
        <pt x="667" y="783" on="1"/>
        <pt x="672" y="778" on="0"/>
        <pt x="675" y="770" on="1"/>
        <pt x="678" y="761" on="0"/>
        <pt x="676" y="736" on="0"/>
        <pt x="672" y="729" on="1"/>
        <pt x="668" y="723" on="0"/>
        <pt x="662" y="719" on="1"/>
        <pt x="656" y="715" on="0"/>
      </contour>
    </TTGlyph>
    <TTGlyph name="glyph00023" xMin="599" yMin="714" xMax="678" yMax="791">
      <contour>
        <pt x="621" y="716" on="1"/>
        <pt x="628" y="714" on="0"/>
        <pt x="640" y="715" on="1"/>
        <pt x="661" y="715" on="0"/>
        <pt x="670" y="728" on="1"/>
        <pt x="675" y="735" on="0"/>
        <pt x="676" y="749" on="1"/>
        <pt x="678" y="791" on="0"/>
        <pt x="637" y="791" on="1"/>
        <pt x="599" y="791" on="0"/>
        <pt x="599" y="754" on="1"/>
        <pt x="599" y="743" on="0"/>
        <pt x="601" y="736" on="1"/>
        <pt x="603" y="730" on="0"/>
        <pt x="615" y="718" on="0"/>
      </contour>
    </TTGlyph>
    <TTGlyph name="glyph00024" xMin="425" yMin="255" xMax="854" yMax="661">
      <contour>
        <pt x="517" y="261" on="1"/>
        <pt x="530" y="255" on="0"/>
        <pt x="532" y="256" on="1"/>
        <pt x="540" y="259" on="0"/>
        <pt x="592" y="262" on="0"/>
        <pt x="623" y="263" on="1"/>
        <pt x="658" y="264" on="0"/>
        <pt x="709" y="261" on="0"/>
        <pt x="732" y="258" on="1"/>
        <pt x="746" y="256" on="1"/>
        <pt x="760" y="261" on="1"/>
        <pt x="806" y="281" on="0"/>
        <pt x="830" y="321" on="1"/>
        <pt x="844" y="346" on="0"/>
        <pt x="849" y="374" on="1"/>
        <pt x="854" y="409" on="0"/>
        <pt x="833" y="478" on="0"/>
        <pt x="809" y="503" on="1"/>
        <pt x="804" y="508" on="0"/>
        <pt x="772" y="537" on="0"/>
        <pt x="753" y="553" on="1"/>
        <pt x="713" y="586" on="0"/>
        <pt x="671" y="624" on="0"/>
        <pt x="655" y="642" on="1"/>
        <pt x="638" y="661" on="1"/>
        <pt x="620" y="643" on="1"/>
        <pt x="601" y="623" on="0"/>
        <pt x="561" y="586" on="0"/>
        <pt x="523" y="554" on="1"/>
        <pt x="492" y="527" on="0"/>
        <pt x="461" y="499" on="0"/>
        <pt x="446" y="478" on="0"/>
        <pt x="439" y="464" on="1"/>
        <pt x="430" y="445" on="0"/>
        <pt x="425" y="420" on="0"/>
        <pt x="425" y="398" on="1"/>
        <pt x="426" y="375" on="0"/>
        <pt x="431" y="350" on="0"/>
        <pt x="440" y="331" on="1"/>
        <pt x="463" y="282" on="0"/>
      </contour>
      <contour>
        <pt x="653" y="350" on="1"/>
        <pt x="648" y="345" on="0"/>
        <pt x="638" y="345" on="1"/>
        <pt x="627" y="345" on="0"/>
        <pt x="622" y="350" on="1"/>
        <pt x="616" y="355" on="1"/>
        <pt x="616" y="383" on="1"/>
        <pt x="615" y="412" on="1"/>
        <pt x="605" y="413" on="1"/>
        <pt x="595" y="414" on="0"/>
        <pt x="577" y="414" on="1"/>
        <pt x="563" y="414" on="0"/>
        <pt x="557" y="415" on="0"/>
        <pt x="553" y="418" on="1"/>
        <pt x="547" y="424" on="0"/>
        <pt x="547" y="446" on="0"/>
        <pt x="555" y="451" on="1"/>
        <pt x="557" y="453" on="0"/>
        <pt x="568" y="454" on="0"/>
        <pt x="587" y="454" on="1"/>
        <pt x="615" y="454" on="1"/>
        <pt x="615" y="484" on="1"/>
        <pt x="615" y="514" on="1"/>
        <pt x="621" y="519" on="1"/>
        <pt x="625" y="523" on="0"/>
        <pt x="630" y="525" on="0"/>
        <pt x="637" y="525" on="1"/>
        <pt x="648" y="525" on="0"/>
        <pt x="653" y="520" on="1"/>
        <pt x="657" y="517" on="0"/>
        <pt x="658" y="511" on="0"/>
        <pt x="658" y="501" on="1"/>
        <pt x="658" y="486" on="0"/>
        <pt x="659" y="470" on="1"/>
        <pt x="660" y="454" on="1"/>
        <pt x="688" y="454" on="1"/>
        <pt x="710" y="454" on="0"/>
        <pt x="723" y="451" on="0"/>
        <pt x="726" y="446" on="1"/>
        <pt x="730" y="438" on="0"/>
        <pt x="725" y="418" on="0"/>
        <pt x="719" y="415" on="1"/>
        <pt x="717" y="415" on="0"/>
        <pt x="699" y="414" on="0"/>
        <pt x="687" y="414" on="1"/>
        <pt x="660" y="414" on="1"/>
        <pt x="659" y="399" on="1"/>
        <pt x="658" y="384" on="0"/>
        <pt x="658" y="369" on="1"/>
        <pt x="658" y="359" on="0"/>
        <pt x="657" y="353" on="0"/>
      </contour>
    </TTGlyph>
    <TTGlyph name="glyph00025" xMin="506" yMin="144" xMax="767" yMax="222">
      <contour>
        <pt x="508" y="149" on="1"/>
        <pt x="506" y="144" on="0"/>
        <pt x="509" y="145" on="1"/>
        <pt x="512" y="146" on="0"/>
        <pt x="535" y="150" on="0"/>
        <pt x="548" y="152" on="1"/>
        <pt x="596" y="158" on="0"/>
        <pt x="709" y="156" on="0"/>
        <pt x="756" y="147" on="1"/>
        <pt x="764" y="145" on="0"/>
        <pt x="767" y="146" on="0"/>
        <pt x="767" y="147" on="1"/>
        <pt x="766" y="148" on="0"/>
        <pt x="758" y="169" on="0"/>
        <pt x="753" y="182" on="1"/>
        <pt x="746" y="201" on="0"/>
        <pt x="739" y="215" on="0"/>
        <pt x="737" y="215" on="1"/>
        <pt x="736" y="215" on="0"/>
        <pt x="720" y="218" on="0"/>
        <pt x="710" y="219" on="1"/>
        <pt x="688" y="222" on="0"/>
        <pt x="618" y="222" on="0"/>
        <pt x="552" y="219" on="0"/>
        <pt x="538" y="215" on="1"/>
        <pt x="535" y="214" on="0"/>
        <pt x="529" y="203" on="0"/>
        <pt x="522" y="185" on="1"/>
        <pt x="517" y="172" on="0"/>
        <pt x="509" y="152" on="0"/>
      </contour>
    </TTGlyph>
    <TTGlyph name="glyph00026" xMin="493" yMin="76" xMax="784" yMax="115">
      <contour>
        <pt x="597" y="77" on="1"/>
        <pt x="606" y="77" on="0"/>
        <pt x="645" y="76" on="0"/>
        <pt x="684" y="78" on="0"/>
        <pt x="693" y="79" on="1"/>
        <pt x="701" y="80" on="0"/>
        <pt x="737" y="87" on="0"/>
        <pt x="772" y="94" on="0"/>
        <pt x="777" y="96" on="1"/>
        <pt x="784" y="98" on="1"/>
        <pt x="767" y="102" on="1"/>
        <pt x="709" y="114" on="0"/>
        <pt x="577" y="115" on="0"/>
        <pt x="521" y="104" on="1"/>
        <pt x="496" y="99" on="0"/>
        <pt x="493" y="97" on="0"/>
        <pt x="509" y="93" on="1"/>
        <pt x="537" y="87" on="0"/>
        <pt x="576" y="80" on="0"/>
      </contour>
    </TTGlyph>
    <TTGlyph name="glyph00027" xMin="204" yMin="-88" xMax="616" yMax="41">
      <contour>
        <pt x="440" y="-86" on="1"/>
        <pt x="450" y="-88" on="0"/>
        <pt x="497" y="-87" on="0"/>
        <pt x="507" y="-85" on="1"/>
        <pt x="535" y="-80" on="0"/>
        <pt x="572" y="-57" on="0"/>
        <pt x="590" y="-33" on="1"/>
        <pt x="612" y="-4" on="0"/>
        <pt x="615" y="30" on="1"/>
        <pt x="616" y="41" on="1"/>
        <pt x="607" y="41" on="1"/>
        <pt x="598" y="41" on="1"/>
        <pt x="588" y="27" on="1"/>
        <pt x="579" y="13" on="0"/>
        <pt x="563" y="-3" on="1"/>
        <pt x="548" y="-18" on="0"/>
        <pt x="535" y="-25" on="1"/>
        <pt x="509" y="-37" on="0"/>
        <pt x="472" y="-44" on="0"/>
        <pt x="450" y="-41" on="1"/>
        <pt x="423" y="-38" on="0"/>
        <pt x="368" y="-28" on="0"/>
        <pt x="353" y="-24" on="1"/>
        <pt x="339" y="-21" on="0"/>
        <pt x="324" y="-19" on="0"/>
        <pt x="305" y="-19" on="1"/>
        <pt x="252" y="-19" on="0"/>
        <pt x="216" y="-34" on="1"/>
        <pt x="204" y="-39" on="1"/>
        <pt x="218" y="-60" on="1"/>
        <pt x="223" y="-69" on="0"/>
        <pt x="231" y="-82" on="0"/>
        <pt x="231" y="-82" on="1"/>
        <pt x="231" y="-83" on="0"/>
        <pt x="237" y="-79" on="1"/>
        <pt x="243" y="-76" on="0"/>
        <pt x="275" y="-69" on="0"/>
        <pt x="291" y="-69" on="1"/>
        <pt x="301" y="-68" on="0"/>
        <pt x="320" y="-69" on="0"/>
        <pt x="338" y="-72" on="1"/>
        <pt x="390" y="-79" on="0"/>
        <pt x="436" y="-86" on="0"/>
      </contour>
    </TTGlyph>
    <TTGlyph name="glyph00028" xMin="660" yMin="-87" xMax="1069" yMax="41">
      <contour>
        <pt x="767" y="-85" on="1"/>
        <pt x="767" y="-85" on="1"/>
        <pt x="780" y="-87" on="0"/>
        <pt x="809" y="-87" on="1"/>
        <pt x="822" y="-87" on="0"/>
        <pt x="843" y="-85" on="0"/>
        <pt x="875" y="-81" on="0"/>
        <pt x="903" y="-77" on="1"/>
        <pt x="945" y="-71" on="0"/>
        <pt x="973" y="-68" on="0"/>
        <pt x="984" y="-69" on="1"/>
        <pt x="998" y="-69" on="0"/>
        <pt x="1032" y="-76" on="0"/>
        <pt x="1038" y="-79" on="1"/>
        <pt x="1043" y="-83" on="1"/>
        <pt x="1050" y="-72" on="1"/>
        <pt x="1058" y="-59" on="0"/>
        <pt x="1069" y="-40" on="0"/>
        <pt x="1069" y="-40" on="1"/>
        <pt x="1069" y="-38" on="0"/>
        <pt x="1035" y="-26" on="0"/>
        <pt x="1022" y="-23" on="1"/>
        <pt x="966" y="-12" on="0"/>
        <pt x="917" y="-25" on="1"/>
        <pt x="904" y="-28" on="0"/>
        <pt x="849" y="-38" on="0"/>
        <pt x="826" y="-41" on="1"/>
        <pt x="785" y="-47" on="0"/>
        <pt x="744" y="-26" on="1"/>
        <pt x="710" y="-10" on="0"/>
        <pt x="683" y="31" on="1"/>
        <pt x="677" y="41" on="1"/>
        <pt x="668" y="41" on="1"/>
        <pt x="660" y="41" on="1"/>
        <pt x="660" y="33" on="1"/>
        <pt x="660" y="-1" on="0"/>
        <pt x="686" y="-35" on="1"/>
        <pt x="716" y="-76" on="0"/>
      </contour>
    </TTGlyph>
    <TTGlyph name="glyph00029" xMin="131" yMin="-133" xMax="1142" yMax="866">
      <contour>
        <pt x="598" y="-132" on="1"/>
        <pt x="624" y="-133" on="0"/>
        <pt x="700" y="-132" on="0"/>
        <pt x="728" y="-131" on="1"/>
        <pt x="807" y="-127" on="0"/>
        <pt x="938" y="-105" on="0"/>
        <pt x="975" y="-90" on="1"/>
        <pt x="983" y="-87" on="0"/>
        <pt x="1001" y="-77" on="0"/>
        <pt x="1004" y="-74" on="1"/>
        <pt x="1005" y="-72" on="1"/>
        <pt x="986" y="0" on="1"/>
        <pt x="967" y="72" on="1"/>
        <pt x="976" y="127" on="1"/>
        <pt x="983" y="166" on="0"/>
        <pt x="986" y="183" on="0"/>
        <pt x="987" y="185" on="1"/>
        <pt x="990" y="189" on="0"/>
        <pt x="1002" y="195" on="1"/>
        <pt x="1014" y="202" on="0"/>
        <pt x="1039" y="222" on="0"/>
        <pt x="1065" y="245" on="1"/>
        <pt x="1086" y="263" on="0"/>
        <pt x="1110" y="295" on="0"/>
        <pt x="1120" y="315" on="1"/>
        <pt x="1137" y="351" on="0"/>
        <pt x="1141" y="396" on="1"/>
        <pt x="1142" y="404" on="0"/>
        <pt x="1141" y="428" on="0"/>
        <pt x="1140" y="435" on="1"/>
        <pt x="1133" y="474" on="0"/>
        <pt x="1107" y="512" on="1"/>
        <pt x="1098" y="524" on="0"/>
        <pt x="1074" y="551" on="0"/>
        <pt x="1064" y="559" on="1"/>
        <pt x="1008" y="603" on="0"/>
        <pt x="925" y="599" on="1"/>
        <pt x="880" y="598" on="0"/>
        <pt x="820" y="576" on="1"/>
        <pt x="764" y="555" on="0"/>
        <pt x="749" y="546" on="1"/>
        <pt x="745" y="544" on="1"/>
        <pt x="746" y="545" on="1"/>
        <pt x="746" y="548" on="0"/>
        <pt x="748" y="565" on="0"/>
        <pt x="748" y="569" on="1"/>
        <pt x="748" y="593" on="0"/>
        <pt x="738" y="614" on="1"/>
        <pt x="727" y="638" on="0"/>
        <pt x="685" y="671" on="0"/>
        <pt x="661" y="676" on="1"/>
        <pt x="629" y="683" on="0"/>
        <pt x="569" y="660" on="0"/>
        <pt x="549" y="634" on="1"/>
        <pt x="542" y="625" on="0"/>
        <pt x="537" y="615" on="1"/>
        <pt x="526" y="591" on="0"/>
        <pt x="527" y="564" on="1"/>
        <pt x="527" y="551" on="0"/>
        <pt x="529" y="544" on="1"/>
        <pt x="530" y="543" on="0"/>
        <pt x="525" y="546" on="1"/>
        <pt x="518" y="551" on="0"/>
        <pt x="503" y="557" on="0"/>
        <pt x="473" y="568" on="1"/>
        <pt x="459" y="574" on="0"/>
        <pt x="451" y="577" on="1"/>
        <pt x="434" y="584" on="0"/>
        <pt x="380" y="597" on="0"/>
        <pt x="359" y="598" on="1"/>
        <pt x="352" y="599" on="0"/>
        <pt x="317" y="598" on="0"/>
        <pt x="310" y="598" on="1"/>
        <pt x="251" y="590" on="0"/>
        <pt x="209" y="556" on="1"/>
        <pt x="186" y="538" on="0"/>
        <pt x="167" y="511" on="1"/>
        <pt x="139" y="472" on="0"/>
        <pt x="134" y="434" on="1"/>
        <pt x="131" y="414" on="0"/>
        <pt x="135" y="383" on="1"/>
        <pt x="143" y="320" on="0"/>
        <pt x="179" y="276" on="1"/>
        <pt x="186" y="266" on="0"/>
        <pt x="210" y="243" on="0"/>
        <pt x="231" y="225" on="1"/>
        <pt x="249" y="210" on="0"/>
        <pt x="263" y="200" on="0"/>
        <pt x="273" y="195" on="1"/>
        <pt x="286" y="188" on="0"/>
        <pt x="288" y="184" on="1"/>
        <pt x="289" y="182" on="0"/>
        <pt x="293" y="160" on="0"/>
        <pt x="299" y="127" on="1"/>
        <pt x="309" y="73" on="1"/>
        <pt x="289" y="1" on="1"/>
        <pt x="270" y="-70" on="1"/>
        <pt x="272" y="-72" on="1"/>
        <pt x="283" y="-82" on="0"/>
        <pt x="299" y="-89" on="1"/>
        <pt x="336" y="-104" on="0"/>
        <pt x="405" y="-116" on="1"/>
        <pt x="489" y="-130" on="0"/>
      </contour>
      <contour>
        <pt x="703" y="-92" on="1"/>
        <pt x="696" y="-92" on="0"/>
        <pt x="650" y="-93" on="0"/>
        <pt x="604" y="-93" on="0"/>
        <pt x="596" y="-93" on="1"/>
        <pt x="421" y="-89" on="0"/>
        <pt x="330" y="-56" on="1"/>
        <pt x="321" y="-53" on="0"/>
        <pt x="320" y="-53" on="1"/>
        <pt x="319" y="-52" on="0"/>
        <pt x="319" y="-52" on="1"/>
        <pt x="319" y="-52" on="0"/>
        <pt x="336" y="-45" on="0"/>
        <pt x="343" y="-43" on="1"/>
        <pt x="423" y="-15" on="0"/>
        <pt x="546" y="-8" on="1"/>
        <pt x="566" y="-7" on="0"/>
        <pt x="597" y="-6" on="0"/>
        <pt x="623" y="-5" on="1"/>
        <pt x="830" y="-3" on="0"/>
        <pt x="948" y="-47" on="1"/>
        <pt x="957" y="-50" on="0"/>
        <pt x="957" y="-51" on="1"/>
        <pt x="957" y="-51" on="0"/>
        <pt x="949" y="-54" on="1"/>
        <pt x="866" y="-85" on="0"/>
      </contour>
      <contour>
        <pt x="341" y="6" on="1"/>
        <pt x="334" y="4" on="0"/>
        <pt x="333" y="4" on="1"/>
        <pt x="332" y="3" on="0"/>
        <pt x="332" y="5" on="1"/>
        <pt x="333" y="5" on="0"/>
        <pt x="338" y="25" on="0"/>
        <pt x="342" y="38" on="1"/>
        <pt x="346" y="52" on="0"/>
        <pt x="351" y="71" on="0"/>
        <pt x="351" y="71" on="1"/>
        <pt x="352" y="72" on="0"/>
        <pt x="376" y="77" on="0"/>
        <pt x="388" y="79" on="1"/>
        <pt x="502" y="99" on="0"/>
        <pt x="656" y="97" on="1"/>
        <pt x="719" y="97" on="0"/>
        <pt x="819" y="90" on="0"/>
        <pt x="866" y="82" on="1"/>
        <pt x="882" y="80" on="0"/>
        <pt x="924" y="72" on="0"/>
        <pt x="924" y="71" on="1"/>
        <pt x="925" y="71" on="0"/>
        <pt x="930" y="51" on="0"/>
        <pt x="937" y="25" on="0"/>
        <pt x="942" y="4" on="0"/>
        <pt x="942" y="4" on="1"/>
        <pt x="942" y="4" on="0"/>
        <pt x="939" y="5" on="1"/>
        <pt x="928" y="8" on="0"/>
        <pt x="906" y="13" on="1"/>
        <pt x="796" y="38" on="0"/>
        <pt x="621" y="36" on="1"/>
        <pt x="586" y="36" on="0"/>
        <pt x="540" y="34" on="0"/>
        <pt x="512" y="32" on="1"/>
        <pt x="411" y="25" on="0"/>
      </contour>
      <contour>
        <pt x="357" y="111" on="1"/>
        <pt x="347" y="109" on="0"/>
        <pt x="346" y="109" on="1"/>
        <pt x="345" y="108" on="0"/>
        <pt x="345" y="109" on="1"/>
        <pt x="345" y="109" on="0"/>
        <pt x="340" y="134" on="0"/>
        <pt x="337" y="152" on="1"/>
        <pt x="333" y="175" on="0"/>
        <pt x="330" y="195" on="0"/>
        <pt x="331" y="195" on="1"/>
        <pt x="331" y="196" on="0"/>
        <pt x="355" y="202" on="0"/>
        <pt x="364" y="203" on="1"/>
        <pt x="404" y="212" on="0"/>
        <pt x="510" y="224" on="0"/>
        <pt x="561" y="225" on="1"/>
        <pt x="574" y="226" on="0"/>
        <pt x="576" y="226" on="1"/>
        <pt x="576" y="226" on="0"/>
        <pt x="601" y="227" on="0"/>
        <pt x="618" y="227" on="1"/>
        <pt x="791" y="228" on="0"/>
        <pt x="908" y="205" on="1"/>
        <pt x="918" y="203" on="0"/>
        <pt x="945" y="196" on="0"/>
        <pt x="945" y="196" on="1"/>
        <pt x="945" y="196" on="0"/>
        <pt x="941" y="170" on="0"/>
        <pt x="936" y="136" on="0"/>
        <pt x="931" y="110" on="0"/>
        <pt x="931" y="110" on="1"/>
        <pt x="931" y="110" on="0"/>
        <pt x="926" y="111" on="1"/>
        <pt x="913" y="114" on="0"/>
        <pt x="870" y="122" on="0"/>
        <pt x="852" y="124" on="1"/>
        <pt x="809" y="130" on="0"/>
        <pt x="717" y="136" on="0"/>
        <pt x="658" y="136" on="1"/>
        <pt x="472" y="138" on="0"/>
      </contour>
      <contour>
        <pt x="306" y="228" on="1"/>
        <pt x="302" y="227" on="0"/>
        <pt x="302" y="227" on="1"/>
        <pt x="301" y="227" on="0"/>
        <pt x="277" y="246" on="0"/>
        <pt x="252" y="267" on="0"/>
        <pt x="249" y="269" on="1"/>
        <pt x="241" y="275" on="0"/>
        <pt x="221" y="295" on="0"/>
        <pt x="216" y="302" on="1"/>
        <pt x="181" y="342" on="0"/>
        <pt x="181" y="404" on="1"/>
        <pt x="181" y="454" on="0"/>
        <pt x="205" y="489" on="1"/>
        <pt x="232" y="530" on="0"/>
        <pt x="273" y="546" on="1"/>
        <pt x="317" y="563" on="0"/>
        <pt x="376" y="556" on="1"/>
        <pt x="415" y="551" on="0"/>
        <pt x="499" y="518" on="0"/>
        <pt x="525" y="497" on="1"/>
        <pt x="529" y="493" on="0"/>
        <pt x="538" y="484" on="1"/>
        <pt x="579" y="442" on="0"/>
        <pt x="603" y="374" on="1"/>
        <pt x="613" y="343" on="0"/>
        <pt x="615" y="311" on="1"/>
        <pt x="616" y="304" on="0"/>
        <pt x="617" y="272" on="0"/>
        <pt x="617" y="269" on="1"/>
        <pt x="617" y="267" on="1"/>
        <pt x="601" y="266" on="1"/>
        <pt x="499" y="264" on="0"/>
        <pt x="355" y="245" on="0"/>
      </contour>
      <contour>
        <pt x="998" y="247" on="1"/>
        <pt x="988" y="239" on="0"/>
        <pt x="973" y="227" on="0"/>
        <pt x="973" y="227" on="1"/>
        <pt x="973" y="227" on="0"/>
        <pt x="973" y="228" on="1"/>
        <pt x="972" y="228" on="0"/>
        <pt x="962" y="231" on="1"/>
        <pt x="913" y="246" on="0"/>
        <pt x="764" y="264" on="0"/>
        <pt x="674" y="267" on="1"/>
        <pt x="657" y="267" on="1"/>
        <pt x="658" y="283" on="1"/>
        <pt x="658" y="314" on="0"/>
        <pt x="664" y="351" on="0"/>
        <pt x="673" y="376" on="1"/>
        <pt x="695" y="442" on="0"/>
        <pt x="737" y="485" on="1"/>
        <pt x="759" y="507" on="0"/>
        <pt x="795" y="525" on="1"/>
        <pt x="848" y="550" on="0"/>
        <pt x="904" y="557" on="1"/>
        <pt x="914" y="558" on="0"/>
        <pt x="949" y="558" on="0"/>
        <pt x="957" y="557" on="1"/>
        <pt x="1015" y="550" on="0"/>
        <pt x="1050" y="514" on="1"/>
        <pt x="1061" y="503" on="0"/>
        <pt x="1071" y="489" on="1"/>
        <pt x="1092" y="457" on="0"/>
        <pt x="1094" y="409" on="1"/>
        <pt x="1095" y="364" on="0"/>
        <pt x="1079" y="331" on="1"/>
        <pt x="1070" y="313" on="0"/>
        <pt x="1049" y="291" on="1"/>
        <pt x="1040" y="282" on="0"/>
        <pt x="1021" y="266" on="0"/>
      </contour>
      <contour>
        <pt x="639" y="381" on="1"/>
        <pt x="638" y="377" on="0"/>
        <pt x="637" y="377" on="1"/>
        <pt x="637" y="377" on="0"/>
        <pt x="633" y="390" on="1"/>
        <pt x="627" y="410" on="0"/>
        <pt x="621" y="429" on="0"/>
        <pt x="615" y="443" on="0"/>
        <pt x="610" y="453" on="1"/>
        <pt x="595" y="483" on="0"/>
        <pt x="582" y="513" on="0"/>
        <pt x="574" y="539" on="1"/>
        <pt x="570" y="551" on="0"/>
        <pt x="568" y="563" on="0"/>
        <pt x="568" y="572" on="1"/>
        <pt x="569" y="604" on="0"/>
        <pt x="585" y="620" on="1"/>
        <pt x="598" y="632" on="0"/>
        <pt x="619" y="636" on="1"/>
        <pt x="625" y="637" on="0"/>
        <pt x="647" y="637" on="0"/>
        <pt x="652" y="636" on="1"/>
        <pt x="673" y="632" on="0"/>
        <pt x="688" y="617" on="1"/>
        <pt x="700" y="604" on="0"/>
        <pt x="705" y="588" on="1"/>
        <pt x="710" y="571" on="0"/>
        <pt x="706" y="554" on="1"/>
        <pt x="706" y="551" on="0"/>
        <pt x="693" y="517" on="0"/>
        <pt x="688" y="504" on="1"/>
        <pt x="683" y="490" on="0"/>
        <pt x="669" y="463" on="1"/>
        <pt x="663" y="449" on="0"/>
        <pt x="660" y="443" on="1"/>
        <pt x="658" y="436" on="0"/>
        <pt x="655" y="430" on="1"/>
        <pt x="652" y="424" on="0"/>
        <pt x="649" y="414" on="1"/>
        <pt x="646" y="405" on="0"/>
        <pt x="643" y="395" on="1"/>
        <pt x="640" y="385" on="0"/>
      </contour>
      <contour>
        <pt x="616" y="719" on="1"/>
        <pt x="616" y="680" on="1"/>
        <pt x="637" y="680" on="1"/>
        <pt x="658" y="680" on="1"/>
        <pt x="658" y="708" on="1"/>
        <pt x="658" y="719" on="0"/>
        <pt x="659" y="741" on="0"/>
        <pt x="659" y="746" on="1"/>
        <pt x="659" y="757" on="1"/>
        <pt x="669" y="757" on="1"/>
        <pt x="685" y="757" on="0"/>
        <pt x="715" y="758" on="0"/>
        <pt x="717" y="758" on="1"/>
        <pt x="723" y="760" on="0"/>
        <pt x="726" y="766" on="1"/>
        <pt x="727" y="770" on="0"/>
        <pt x="727" y="777" on="1"/>
        <pt x="727" y="784" on="0"/>
        <pt x="726" y="787" on="1"/>
        <pt x="723" y="792" on="0"/>
        <pt x="718" y="795" on="1"/>
        <pt x="716" y="796" on="0"/>
        <pt x="707" y="796" on="0"/>
        <pt x="687" y="796" on="1"/>
        <pt x="658" y="796" on="1"/>
        <pt x="658" y="825" on="1"/>
        <pt x="658" y="849" on="0"/>
        <pt x="656" y="858" on="0"/>
        <pt x="653" y="862" on="1"/>
        <pt x="648" y="866" on="0"/>
        <pt x="638" y="866" on="1"/>
        <pt x="629" y="866" on="0"/>
        <pt x="624" y="863" on="1"/>
        <pt x="621" y="861" on="0"/>
        <pt x="619" y="857" on="1"/>
        <pt x="617" y="853" on="1"/>
        <pt x="617" y="825" on="1"/>
        <pt x="616" y="796" on="1"/>
        <pt x="590" y="796" on="1"/>
        <pt x="568" y="796" on="0"/>
        <pt x="558" y="795" on="0"/>
        <pt x="555" y="793" on="1"/>
        <pt x="548" y="788" on="0"/>
        <pt x="548" y="777" on="1"/>
        <pt x="548" y="765" on="0"/>
        <pt x="555" y="761" on="1"/>
        <pt x="558" y="758" on="0"/>
        <pt x="569" y="757" on="0"/>
        <pt x="590" y="757" on="1"/>
        <pt x="616" y="757" on="1"/>
      </contour>
    </TTGlyph>
    <TTGlyph name="glyph00030" xMin="569" yMin="379" xMax="707" yMax="640">
      <contour>
        <pt x="630" y="404" on="1"/>
        <pt x="637" y="379" on="1"/>
        <pt x="644" y="401" on="1"/>
        <pt x="650" y="420" on="0"/>
        <pt x="661" y="447" on="0"/>
        <pt x="671" y="468" on="1"/>
        <pt x="687" y="502" on="0"/>
        <pt x="707" y="557" on="0"/>
        <pt x="707" y="567" on="1"/>
        <pt x="707" y="593" on="0"/>
        <pt x="672" y="633" on="0"/>
        <pt x="647" y="636" on="1"/>
        <pt x="606" y="640" on="0"/>
        <pt x="584" y="617" on="1"/>
        <pt x="570" y="600" on="0"/>
        <pt x="569" y="570" on="1"/>
        <pt x="569" y="560" on="0"/>
        <pt x="571" y="549" on="0"/>
        <pt x="576" y="536" on="1"/>
        <pt x="584" y="514" on="0"/>
        <pt x="594" y="489" on="0"/>
        <pt x="606" y="463" on="1"/>
        <pt x="622" y="429" on="0"/>
      </contour>
    </TTGlyph>
    <TTGlyph name="glyph00031" xMin="182" yMin="228" xMax="616" yMax="569">
      <contour>
        <pt x="273" y="251" on="1"/>
        <pt x="302" y="228" on="1"/>
        <pt x="314" y="232" on="1"/>
        <pt x="334" y="238" on="0"/>
        <pt x="399" y="252" on="0"/>
        <pt x="432" y="256" on="1"/>
        <pt x="454" y="259" on="0"/>
        <pt x="514" y="264" on="0"/>
        <pt x="572" y="267" on="0"/>
        <pt x="591" y="267" on="1"/>
        <pt x="610" y="267" on="0"/>
        <pt x="613" y="268" on="1"/>
        <pt x="616" y="269" on="0"/>
        <pt x="616" y="298" on="0"/>
        <pt x="612" y="337" on="0"/>
        <pt x="608" y="352" on="1"/>
        <pt x="595" y="404" on="0"/>
        <pt x="564" y="451" on="1"/>
        <pt x="554" y="465" on="0"/>
        <pt x="523" y="498" on="0"/>
        <pt x="511" y="505" on="1"/>
        <pt x="491" y="519" on="0"/>
        <pt x="427" y="545" on="0"/>
        <pt x="400" y="551" on="1"/>
        <pt x="312" y="569" on="0"/>
        <pt x="252" y="534" on="1"/>
        <pt x="242" y="529" on="0"/>
        <pt x="226" y="512" on="1"/>
        <pt x="203" y="489" on="0"/>
        <pt x="183" y="440" on="0"/>
        <pt x="182" y="405" on="1"/>
        <pt x="182" y="356" on="0"/>
        <pt x="202" y="322" on="1"/>
        <pt x="210" y="309" on="0"/>
        <pt x="247" y="272" on="0"/>
      </contour>
    </TTGlyph>
    <TTGlyph name="glyph00032" xMin="658" yMin="229" xMax="1093" yMax="561">
      <contour>
        <pt x="965" y="231" on="1"/>
        <pt x="969" y="229" on="0"/>
        <pt x="971" y="229" on="1"/>
        <pt x="973" y="229" on="0"/>
        <pt x="1002" y="252" on="0"/>
        <pt x="1036" y="281" on="0"/>
        <pt x="1046" y="290" on="1"/>
        <pt x="1066" y="311" on="0"/>
        <pt x="1085" y="345" on="0"/>
        <pt x="1090" y="369" on="1"/>
        <pt x="1093" y="386" on="0"/>
        <pt x="1091" y="437" on="0"/>
        <pt x="1087" y="452" on="1"/>
        <pt x="1076" y="488" on="0"/>
        <pt x="1020" y="541" on="0"/>
        <pt x="983" y="551" on="1"/>
        <pt x="944" y="561" on="0"/>
        <pt x="851" y="549" on="0"/>
        <pt x="805" y="528" on="1"/>
        <pt x="771" y="513" on="0"/>
        <pt x="727" y="476" on="0"/>
        <pt x="708" y="446" on="1"/>
        <pt x="694" y="425" on="0"/>
        <pt x="669" y="364" on="0"/>
        <pt x="664" y="340" on="1"/>
        <pt x="662" y="333" on="0"/>
        <pt x="659" y="299" on="0"/>
        <pt x="658" y="270" on="0"/>
        <pt x="659" y="269" on="1"/>
        <pt x="660" y="268" on="0"/>
        <pt x="676" y="267" on="1"/>
        <pt x="738" y="266" on="0"/>
        <pt x="864" y="254" on="0"/>
        <pt x="906" y="245" on="1"/>
        <pt x="921" y="243" on="0"/>
        <pt x="960" y="233" on="0"/>
      </contour>
    </TTGlyph>
    <TTGlyph name="glyph00033" xMin="331" yMin="110" xMax="943" yMax="226">
      <contour>
        <pt x="339" y="147" on="1"/>
        <pt x="342" y="132" on="0"/>
        <pt x="346" y="110" on="0"/>
        <pt x="346" y="110" on="1"/>
        <pt x="347" y="110" on="0"/>
        <pt x="361" y="113" on="1"/>
        <pt x="405" y="123" on="0"/>
        <pt x="532" y="136" on="0"/>
        <pt x="679" y="138" on="0"/>
        <pt x="752" y="134" on="1"/>
        <pt x="835" y="130" on="0"/>
        <pt x="904" y="116" on="1"/>
        <pt x="915" y="114" on="0"/>
        <pt x="930" y="112" on="0"/>
        <pt x="930" y="112" on="1"/>
        <pt x="930" y="113" on="0"/>
        <pt x="935" y="137" on="0"/>
        <pt x="940" y="168" on="0"/>
        <pt x="943" y="193" on="0"/>
        <pt x="943" y="194" on="1"/>
        <pt x="942" y="197" on="0"/>
        <pt x="892" y="207" on="0"/>
        <pt x="821" y="217" on="0"/>
        <pt x="789" y="220" on="1"/>
        <pt x="738" y="224" on="0"/>
        <pt x="617" y="226" on="0"/>
        <pt x="500" y="222" on="0"/>
        <pt x="454" y="217" on="1"/>
        <pt x="424" y="213" on="0"/>
        <pt x="353" y="201" on="0"/>
        <pt x="337" y="196" on="1"/>
        <pt x="331" y="194" on="0"/>
        <pt x="332" y="189" on="1"/>
        <pt x="332" y="187" on="0"/>
        <pt x="336" y="162" on="0"/>
      </contour>
    </TTGlyph>
    <TTGlyph name="glyph00034" xMin="335" yMin="5" xMax="940" yMax="98">
      <contour>
        <pt x="335" y="7" on="1"/>
        <pt x="335" y="5" on="0"/>
        <pt x="338" y="6" on="1"/>
        <pt x="355" y="12" on="0"/>
        <pt x="428" y="25" on="0"/>
        <pt x="461" y="28" on="1"/>
        <pt x="487" y="31" on="0"/>
        <pt x="526" y="34" on="0"/>
        <pt x="573" y="36" on="0"/>
        <pt x="613" y="36" on="1"/>
        <pt x="716" y="37" on="0"/>
        <pt x="862" y="25" on="0"/>
        <pt x="921" y="11" on="1"/>
        <pt x="929" y="9" on="0"/>
        <pt x="940" y="7" on="0"/>
        <pt x="940" y="7" on="1"/>
        <pt x="940" y="8" on="0"/>
        <pt x="932" y="39" on="0"/>
        <pt x="924" y="70" on="0"/>
        <pt x="923" y="70" on="1"/>
        <pt x="922" y="71" on="0"/>
        <pt x="888" y="78" on="0"/>
        <pt x="867" y="81" on="1"/>
        <pt x="808" y="90" on="0"/>
        <pt x="660" y="98" on="0"/>
        <pt x="509" y="94" on="0"/>
        <pt x="446" y="86" on="1"/>
        <pt x="429" y="84" on="0"/>
        <pt x="386" y="78" on="0"/>
        <pt x="353" y="71" on="0"/>
        <pt x="352" y="70" on="1"/>
        <pt x="351" y="70" on="0"/>
        <pt x="343" y="39" on="0"/>
        <pt x="335" y="8" on="0"/>
      </contour>
    </TTGlyph>
    <TTGlyph name="glyph00035" xMin="321" yMin="-93" xMax="956" yMax="-7">
      <contour>
        <pt x="559" y="-91" on="1"/>
        <pt x="559" y="-91" on="1"/>
        <pt x="623" y="-93" on="0"/>
        <pt x="764" y="-89" on="0"/>
        <pt x="818" y="-82" on="1"/>
        <pt x="854" y="-77" on="0"/>
        <pt x="926" y="-62" on="0"/>
        <pt x="945" y="-55" on="1"/>
        <pt x="956" y="-51" on="1"/>
        <pt x="935" y="-44" on="1"/>
        <pt x="858" y="-18" on="0"/>
        <pt x="740" y="-9" on="1"/>
        <pt x="726" y="-8" on="0"/>
        <pt x="671" y="-7" on="0"/>
        <pt x="607" y="-7" on="0"/>
        <pt x="552" y="-8" on="0"/>
        <pt x="539" y="-9" on="1"/>
        <pt x="407" y="-19" on="0"/>
        <pt x="334" y="-47" on="1"/>
        <pt x="321" y="-52" on="1"/>
        <pt x="332" y="-56" on="1"/>
        <pt x="416" y="-84" on="0"/>
      </contour>
    </TTGlyph>
    <TTGlyph name="glyph00036" xMin="137" yMin="-125" xMax="1136" yMax="810">
      <contour>
        <pt x="469" y="-125" on="1"/>
        <pt x="469" y="-125" on="1"/>
        <pt x="469" y="-125" on="0"/>
        <pt x="559" y="-125" on="0"/>
        <pt x="711" y="-125" on="0"/>
        <pt x="802" y="-125" on="1"/>
        <pt x="1136" y="-125" on="1"/>
        <pt x="1136" y="-123" on="1"/>
        <pt x="1136" y="-117" on="0"/>
        <pt x="1134" y="-79" on="0"/>
        <pt x="1132" y="-37" on="0"/>
        <pt x="1131" y="-26" on="1"/>
        <pt x="1124" y="50" on="0"/>
        <pt x="1103" y="120" on="1"/>
        <pt x="1099" y="133" on="0"/>
        <pt x="1086" y="168" on="0"/>
        <pt x="1082" y="179" on="1"/>
        <pt x="1081" y="181" on="0"/>
        <pt x="1078" y="187" on="1"/>
        <pt x="1075" y="194" on="0"/>
        <pt x="1074" y="196" on="1"/>
        <pt x="1072" y="201" on="0"/>
        <pt x="1061" y="223" on="0"/>
        <pt x="1051" y="242" on="0"/>
        <pt x="1050" y="243" on="1"/>
        <pt x="1050" y="243" on="0"/>
        <pt x="1048" y="247" on="1"/>
        <pt x="1045" y="251" on="0"/>
        <pt x="1043" y="255" on="1"/>
        <pt x="1041" y="258" on="0"/>
        <pt x="1040" y="260" on="1"/>
        <pt x="1039" y="262" on="0"/>
        <pt x="1029" y="277" on="0"/>
        <pt x="1020" y="291" on="0"/>
        <pt x="1019" y="291" on="1"/>
        <pt x="1018" y="292" on="0"/>
        <pt x="1018" y="293" on="1"/>
        <pt x="1017" y="295" on="0"/>
        <pt x="1015" y="297" on="1"/>
        <pt x="1013" y="300" on="0"/>
        <pt x="1012" y="301" on="1"/>
        <pt x="1007" y="308" on="0"/>
        <pt x="1002" y="315" on="1"/>
        <pt x="1000" y="317" on="0"/>
        <pt x="999" y="319" on="1"/>
        <pt x="997" y="321" on="0"/>
        <pt x="995" y="323" on="1"/>
        <pt x="993" y="325" on="0"/>
        <pt x="991" y="328" on="1"/>
        <pt x="989" y="331" on="0"/>
        <pt x="988" y="332" on="1"/>
        <pt x="986" y="333" on="0"/>
        <pt x="985" y="335" on="1"/>
        <pt x="979" y="343" on="0"/>
        <pt x="946" y="375" on="0"/>
        <pt x="935" y="383" on="1"/>
        <pt x="932" y="386" on="0"/>
        <pt x="929" y="388" on="1"/>
        <pt x="922" y="395" on="0"/>
        <pt x="919" y="396" on="1"/>
        <pt x="918" y="397" on="0"/>
        <pt x="915" y="399" on="1"/>
        <pt x="905" y="407" on="0"/>
        <pt x="904" y="407" on="1"/>
        <pt x="904" y="407" on="0"/>
        <pt x="896" y="412" on="1"/>
        <pt x="888" y="418" on="0"/>
        <pt x="884" y="420" on="1"/>
        <pt x="869" y="429" on="0"/>
        <pt x="868" y="429" on="1"/>
        <pt x="868" y="429" on="0"/>
        <pt x="864" y="431" on="1"/>
        <pt x="860" y="434" on="0"/>
        <pt x="854" y="437" on="1"/>
        <pt x="848" y="440" on="1"/>
        <pt x="848" y="481" on="1"/>
        <pt x="848" y="523" on="1"/>
        <pt x="852" y="525" on="1"/>
        <pt x="856" y="528" on="0"/>
        <pt x="859" y="530" on="1"/>
        <pt x="863" y="533" on="0"/>
        <pt x="867" y="536" on="1"/>
        <pt x="874" y="540" on="0"/>
        <pt x="882" y="547" on="1"/>
        <pt x="891" y="553" on="0"/>
        <pt x="898" y="557" on="1"/>
        <pt x="906" y="563" on="0"/>
        <pt x="913" y="568" on="1"/>
        <pt x="917" y="571" on="0"/>
        <pt x="921" y="573" on="1"/>
        <pt x="925" y="576" on="0"/>
        <pt x="928" y="579" on="1"/>
        <pt x="932" y="581" on="0"/>
        <pt x="936" y="584" on="1"/>
        <pt x="940" y="586" on="0"/>
        <pt x="944" y="589" on="1"/>
        <pt x="948" y="592" on="0"/>
        <pt x="951" y="594" on="1"/>
        <pt x="955" y="597" on="0"/>
        <pt x="959" y="600" on="1"/>
        <pt x="963" y="602" on="0"/>
        <pt x="967" y="605" on="1"/>
        <pt x="970" y="608" on="0"/>
        <pt x="974" y="610" on="1"/>
        <pt x="978" y="613" on="1"/>
        <pt x="978" y="711" on="1"/>
        <pt x="978" y="810" on="1"/>
        <pt x="898" y="810" on="1"/>
        <pt x="817" y="810" on="1"/>
        <pt x="817" y="774" on="1"/>
        <pt x="817" y="738" on="1"/>
        <pt x="768" y="738" on="1"/>
        <pt x="718" y="738" on="1"/>
        <pt x="718" y="774" on="1"/>
        <pt x="718" y="810" on="1"/>
        <pt x="638" y="810" on="1"/>
        <pt x="557" y="810" on="1"/>
        <pt x="557" y="774" on="1"/>
        <pt x="557" y="738" on="1"/>
        <pt x="507" y="738" on="1"/>
        <pt x="457" y="738" on="1"/>
        <pt x="457" y="774" on="1"/>
        <pt x="457" y="810" on="1"/>
        <pt x="377" y="810" on="1"/>
        <pt x="297" y="810" on="1"/>
        <pt x="297" y="712" on="1"/>
        <pt x="297" y="613" on="1"/>
        <pt x="300" y="611" on="1"/>
        <pt x="302" y="609" on="0"/>
        <pt x="305" y="607" on="1"/>
        <pt x="309" y="605" on="0"/>
        <pt x="312" y="603" on="1"/>
        <pt x="321" y="596" on="0"/>
        <pt x="327" y="592" on="1"/>
        <pt x="331" y="590" on="0"/>
        <pt x="331" y="589" on="1"/>
        <pt x="332" y="588" on="0"/>
        <pt x="336" y="586" on="1"/>
        <pt x="340" y="583" on="0"/>
        <pt x="342" y="581" on="1"/>
        <pt x="345" y="579" on="0"/>
        <pt x="349" y="576" on="1"/>
        <pt x="359" y="570" on="0"/>
        <pt x="364" y="566" on="1"/>
        <pt x="368" y="563" on="0"/>
        <pt x="372" y="561" on="1"/>
        <pt x="376" y="558" on="0"/>
        <pt x="380" y="555" on="1"/>
        <pt x="384" y="552" on="0"/>
        <pt x="388" y="549" on="1"/>
        <pt x="392" y="547" on="0"/>
        <pt x="397" y="543" on="1"/>
        <pt x="402" y="540" on="0"/>
        <pt x="405" y="538" on="1"/>
        <pt x="408" y="536" on="0"/>
        <pt x="411" y="533" on="1"/>
        <pt x="415" y="531" on="0"/>
        <pt x="417" y="529" on="1"/>
        <pt x="420" y="527" on="0"/>
        <pt x="424" y="524" on="1"/>
        <pt x="428" y="521" on="0"/>
        <pt x="431" y="519" on="1"/>
        <pt x="434" y="517" on="1"/>
        <pt x="434" y="482" on="1"/>
        <pt x="434" y="447" on="1"/>
        <pt x="433" y="448" on="1"/>
        <pt x="432" y="448" on="0"/>
        <pt x="427" y="448" on="1"/>
        <pt x="423" y="449" on="0"/>
        <pt x="420" y="449" on="1"/>
        <pt x="410" y="452" on="0"/>
        <pt x="398" y="447" on="1"/>
        <pt x="392" y="444" on="0"/>
        <pt x="382" y="441" on="1"/>
        <pt x="360" y="434" on="0"/>
        <pt x="349" y="424" on="1"/>
        <pt x="347" y="422" on="0"/>
        <pt x="344" y="421" on="1"/>
        <pt x="341" y="419" on="0"/>
        <pt x="339" y="417" on="1"/>
        <pt x="337" y="415" on="0"/>
        <pt x="337" y="415" on="1"/>
        <pt x="337" y="416" on="0"/>
        <pt x="319" y="397" on="0"/>
        <pt x="313" y="390" on="1"/>
        <pt x="311" y="387" on="0"/>
        <pt x="310" y="386" on="1"/>
        <pt x="309" y="385" on="0"/>
        <pt x="307" y="383" on="1"/>
        <pt x="306" y="381" on="0"/>
        <pt x="305" y="380" on="1"/>
        <pt x="305" y="380" on="0"/>
        <pt x="304" y="378" on="1"/>
        <pt x="302" y="376" on="0"/>
        <pt x="302" y="375" on="1"/>
        <pt x="301" y="375" on="0"/>
        <pt x="298" y="370" on="1"/>
        <pt x="294" y="365" on="0"/>
        <pt x="294" y="365" on="1"/>
        <pt x="294" y="364" on="0"/>
        <pt x="292" y="362" on="1"/>
        <pt x="291" y="360" on="0"/>
        <pt x="291" y="359" on="1"/>
        <pt x="290" y="359" on="0"/>
        <pt x="283" y="345" on="0"/>
        <pt x="282" y="342" on="1"/>
        <pt x="277" y="327" on="0"/>
        <pt x="276" y="300" on="1"/>
        <pt x="276" y="291" on="0"/>
        <pt x="275" y="285" on="1"/>
        <pt x="272" y="268" on="0"/>
        <pt x="256" y="240" on="1"/>
        <pt x="252" y="232" on="0"/>
        <pt x="234" y="206" on="0"/>
        <pt x="230" y="201" on="1"/>
        <pt x="229" y="200" on="0"/>
        <pt x="228" y="198" on="1"/>
        <pt x="226" y="195" on="0"/>
        <pt x="226" y="195" on="1"/>
        <pt x="225" y="195" on="0"/>
        <pt x="224" y="193" on="1"/>
        <pt x="222" y="190" on="0"/>
        <pt x="222" y="190" on="1"/>
        <pt x="221" y="190" on="0"/>
        <pt x="220" y="188" on="1"/>
        <pt x="219" y="186" on="0"/>
        <pt x="218" y="185" on="1"/>
        <pt x="217" y="184" on="0"/>
        <pt x="216" y="183" on="1"/>
        <pt x="213" y="179" on="0"/>
        <pt x="209" y="174" on="1"/>
        <pt x="207" y="172" on="0"/>
        <pt x="204" y="169" on="1"/>
        <pt x="202" y="166" on="0"/>
        <pt x="200" y="163" on="1"/>
        <pt x="198" y="161" on="0"/>
        <pt x="196" y="158" on="1"/>
        <pt x="194" y="156" on="0"/>
        <pt x="192" y="154" on="1"/>
        <pt x="190" y="152" on="0"/>
        <pt x="189" y="150" on="1"/>
        <pt x="188" y="149" on="0"/>
        <pt x="184" y="144" on="1"/>
        <pt x="175" y="132" on="0"/>
        <pt x="169" y="122" on="1"/>
        <pt x="163" y="114" on="0"/>
        <pt x="162" y="112" on="1"/>
        <pt x="161" y="110" on="0"/>
        <pt x="159" y="107" on="1"/>
        <pt x="153" y="96" on="0"/>
        <pt x="147" y="82" on="1"/>
        <pt x="137" y="58" on="0"/>
        <pt x="139" y="32" on="1"/>
        <pt x="142" y="0" on="0"/>
        <pt x="152" y="-21" on="1"/>
        <pt x="156" y="-30" on="0"/>
        <pt x="159" y="-33" on="1"/>
        <pt x="159" y="-34" on="0"/>
        <pt x="162" y="-38" on="1"/>
        <pt x="174" y="-54" on="0"/>
        <pt x="189" y="-67" on="1"/>
        <pt x="194" y="-71" on="0"/>
        <pt x="218" y="-83" on="0"/>
        <pt x="229" y="-87" on="1"/>
        <pt x="235" y="-89" on="1"/>
        <pt x="244" y="-89" on="1"/>
        <pt x="258" y="-88" on="0"/>
        <pt x="272" y="-85" on="1"/>
        <pt x="277" y="-84" on="0"/>
        <pt x="277" y="-84" on="1"/>
        <pt x="278" y="-84" on="0"/>
        <pt x="281" y="-87" on="1"/>
        <pt x="291" y="-103" on="0"/>
        <pt x="306" y="-108" on="1"/>
        <pt x="317" y="-113" on="0"/>
        <pt x="329" y="-112" on="1"/>
        <pt x="347" y="-111" on="0"/>
        <pt x="357" y="-105" on="1"/>
        <pt x="359" y="-103" on="0"/>
        <pt x="360" y="-102" on="1"/>
        <pt x="364" y="-100" on="0"/>
        <pt x="373" y="-87" on="1"/>
        <pt x="376" y="-82" on="0"/>
        <pt x="386" y="-65" on="1"/>
        <pt x="392" y="-56" on="0"/>
        <pt x="393" y="-55" on="1"/>
        <pt x="394" y="-53" on="0"/>
        <pt x="395" y="-51" on="1"/>
        <pt x="396" y="-49" on="0"/>
        <pt x="398" y="-46" on="1"/>
        <pt x="400" y="-43" on="0"/>
        <pt x="401" y="-41" on="1"/>
        <pt x="402" y="-39" on="0"/>
        <pt x="403" y="-38" on="1"/>
        <pt x="403" y="-38" on="0"/>
        <pt x="404" y="-36" on="1"/>
        <pt x="406" y="-33" on="0"/>
        <pt x="406" y="-33" on="1"/>
        <pt x="406" y="-33" on="0"/>
        <pt x="408" y="-31" on="1"/>
        <pt x="409" y="-29" on="0"/>
        <pt x="418" y="-18" on="0"/>
        <pt x="419" y="-16" on="1"/>
        <pt x="420" y="-15" on="0"/>
        <pt x="422" y="-13" on="1"/>
        <pt x="425" y="-10" on="0"/>
        <pt x="442" y="6" on="0"/>
        <pt x="457" y="20" on="0"/>
        <pt x="458" y="20" on="1"/>
        <pt x="458" y="20" on="0"/>
        <pt x="461" y="23" on="1"/>
        <pt x="464" y="25" on="0"/>
        <pt x="465" y="25" on="1"/>
        <pt x="465" y="25" on="0"/>
        <pt x="468" y="28" on="1"/>
        <pt x="472" y="30" on="0"/>
        <pt x="474" y="32" on="1"/>
        <pt x="482" y="37" on="0"/>
        <pt x="497" y="47" on="0"/>
        <pt x="498" y="47" on="1"/>
        <pt x="498" y="47" on="0"/>
        <pt x="500" y="48" on="1"/>
        <pt x="502" y="49" on="0"/>
        <pt x="508" y="52" on="1"/>
        <pt x="514" y="55" on="0"/>
        <pt x="515" y="56" on="1"/>
        <pt x="526" y="62" on="0"/>
        <pt x="568" y="79" on="0"/>
        <pt x="584" y="84" on="1"/>
        <pt x="593" y="87" on="0"/>
        <pt x="622" y="102" on="0"/>
        <pt x="632" y="109" on="1"/>
        <pt x="635" y="111" on="1"/>
        <pt x="635" y="107" on="1"/>
        <pt x="637" y="93" on="0"/>
        <pt x="631" y="71" on="1"/>
        <pt x="627" y="54" on="0"/>
        <pt x="622" y="42" on="1"/>
        <pt x="612" y="20" on="0"/>
        <pt x="604" y="9" on="1"/>
        <pt x="599" y="1" on="0"/>
        <pt x="595" y="-3" on="1"/>
        <pt x="592" y="-6" on="0"/>
        <pt x="575" y="-24" on="0"/>
        <pt x="565" y="-33" on="1"/>
        <pt x="554" y="-43" on="0"/>
        <pt x="549" y="-48" on="1"/>
        <pt x="545" y="-52" on="0"/>
        <pt x="535" y="-60" on="0"/>
        <pt x="523" y="-72" on="1"/>
        <pt x="514" y="-80" on="0"/>
        <pt x="512" y="-82" on="1"/>
        <pt x="509" y="-85" on="0"/>
        <pt x="503" y="-91" on="1"/>
        <pt x="494" y="-99" on="0"/>
        <pt x="469" y="-124" on="0"/>
      </contour>
      <contour>
        <pt x="1069" y="-63" on="1"/>
        <pt x="1069" y="-98" on="1"/>
        <pt x="809" y="-98" on="1"/>
        <pt x="737" y="-98" on="0"/>
        <pt x="619" y="-98" on="0"/>
        <pt x="548" y="-97" on="0"/>
        <pt x="548" y="-97" on="1"/>
        <pt x="549" y="-97" on="0"/>
        <pt x="552" y="-94" on="1"/>
        <pt x="555" y="-92" on="0"/>
        <pt x="558" y="-89" on="1"/>
        <pt x="561" y="-86" on="0"/>
        <pt x="565" y="-83" on="1"/>
        <pt x="569" y="-80" on="0"/>
        <pt x="571" y="-79" on="1"/>
        <pt x="573" y="-77" on="0"/>
        <pt x="575" y="-75" on="1"/>
        <pt x="580" y="-72" on="0"/>
        <pt x="589" y="-65" on="1"/>
        <pt x="627" y="-35" on="0"/>
        <pt x="645" y="-8" on="1"/>
        <pt x="655" y="7" on="0"/>
        <pt x="663" y="25" on="1"/>
        <pt x="665" y="30" on="0"/>
        <pt x="665" y="32" on="1"/>
        <pt x="673" y="49" on="0"/>
        <pt x="677" y="70" on="1"/>
        <pt x="684" y="108" on="0"/>
        <pt x="673" y="141" on="1"/>
        <pt x="671" y="147" on="1"/>
        <pt x="673" y="149" on="1"/>
        <pt x="675" y="152" on="0"/>
        <pt x="675" y="153" on="1"/>
        <pt x="675" y="153" on="0"/>
        <pt x="678" y="158" on="1"/>
        <pt x="681" y="162" on="0"/>
        <pt x="682" y="163" on="1"/>
        <pt x="683" y="164" on="0"/>
        <pt x="690" y="178" on="0"/>
        <pt x="692" y="181" on="1"/>
        <pt x="705" y="209" on="0"/>
        <pt x="708" y="241" on="1"/>
        <pt x="709" y="260" on="0"/>
        <pt x="703" y="267" on="1"/>
        <pt x="698" y="272" on="0"/>
        <pt x="686" y="272" on="1"/>
        <pt x="679" y="272" on="0"/>
        <pt x="675" y="271" on="1"/>
        <pt x="670" y="269" on="0"/>
        <pt x="669" y="267" on="1"/>
        <pt x="666" y="263" on="0"/>
        <pt x="667" y="258" on="1"/>
        <pt x="667" y="255" on="0"/>
        <pt x="667" y="234" on="0"/>
        <pt x="667" y="229" on="1"/>
        <pt x="666" y="218" on="0"/>
        <pt x="662" y="209" on="1"/>
        <pt x="661" y="205" on="0"/>
        <pt x="652" y="186" on="0"/>
        <pt x="650" y="184" on="1"/>
        <pt x="649" y="182" on="0"/>
        <pt x="647" y="179" on="1"/>
        <pt x="642" y="171" on="0"/>
        <pt x="634" y="163" on="1"/>
        <pt x="630" y="157" on="0"/>
        <pt x="609" y="139" on="0"/>
        <pt x="605" y="137" on="1"/>
        <pt x="604" y="136" on="0"/>
        <pt x="601" y="134" on="1"/>
        <pt x="599" y="133" on="0"/>
        <pt x="589" y="127" on="0"/>
        <pt x="588" y="126" on="1"/>
        <pt x="587" y="126" on="0"/>
        <pt x="583" y="124" on="1"/>
        <pt x="579" y="122" on="0"/>
        <pt x="577" y="121" on="1"/>
        <pt x="576" y="121" on="0"/>
        <pt x="570" y="118" on="1"/>
        <pt x="565" y="116" on="0"/>
        <pt x="565" y="116" on="1"/>
        <pt x="564" y="116" on="0"/>
        <pt x="558" y="113" on="1"/>
        <pt x="552" y="110" on="0"/>
        <pt x="552" y="110" on="1"/>
        <pt x="551" y="110" on="0"/>
        <pt x="546" y="108" on="1"/>
        <pt x="540" y="106" on="0"/>
        <pt x="540" y="106" on="1"/>
        <pt x="539" y="106" on="0"/>
        <pt x="535" y="104" on="1"/>
        <pt x="530" y="102" on="0"/>
        <pt x="525" y="100" on="1"/>
        <pt x="499" y="91" on="0"/>
        <pt x="484" y="81" on="1"/>
        <pt x="481" y="79" on="0"/>
        <pt x="481" y="79" on="1"/>
        <pt x="480" y="79" on="0"/>
        <pt x="477" y="76" on="1"/>
        <pt x="473" y="74" on="0"/>
        <pt x="472" y="74" on="1"/>
        <pt x="471" y="73" on="0"/>
        <pt x="468" y="71" on="1"/>
        <pt x="464" y="68" on="0"/>
        <pt x="464" y="68" on="1"/>
        <pt x="463" y="68" on="0"/>
        <pt x="460" y="66" on="1"/>
        <pt x="457" y="63" on="0"/>
        <pt x="456" y="63" on="1"/>
        <pt x="456" y="63" on="0"/>
        <pt x="453" y="61" on="1"/>
        <pt x="450" y="58" on="0"/>
        <pt x="449" y="57" on="1"/>
        <pt x="447" y="56" on="0"/>
        <pt x="445" y="55" on="1"/>
        <pt x="443" y="53" on="0"/>
        <pt x="439" y="50" on="1"/>
        <pt x="430" y="43" on="0"/>
        <pt x="426" y="39" on="1"/>
        <pt x="423" y="37" on="0"/>
        <pt x="422" y="37" on="1"/>
        <pt x="422" y="37" on="0"/>
        <pt x="404" y="19" on="0"/>
        <pt x="401" y="16" on="1"/>
        <pt x="398" y="12" on="0"/>
        <pt x="396" y="11" on="1"/>
        <pt x="395" y="9" on="0"/>
        <pt x="393" y="7" on="1"/>
        <pt x="392" y="5" on="0"/>
        <pt x="391" y="4" on="1"/>
        <pt x="390" y="3" on="0"/>
        <pt x="389" y="1" on="1"/>
        <pt x="388" y="-1" on="0"/>
        <pt x="387" y="-1" on="1"/>
        <pt x="387" y="-1" on="0"/>
        <pt x="380" y="-11" on="0"/>
        <pt x="379" y="-13" on="1"/>
        <pt x="365" y="-34" on="0"/>
        <pt x="354" y="-54" on="1"/>
        <pt x="346" y="-68" on="0"/>
        <pt x="340" y="-77" on="0"/>
        <pt x="334" y="-81" on="1"/>
        <pt x="330" y="-85" on="0"/>
        <pt x="326" y="-86" on="1"/>
        <pt x="322" y="-86" on="0"/>
        <pt x="319" y="-86" on="1"/>
        <pt x="312" y="-84" on="0"/>
        <pt x="307" y="-70" on="1"/>
        <pt x="306" y="-68" on="0"/>
        <pt x="308" y="-67" on="1"/>
        <pt x="309" y="-65" on="0"/>
        <pt x="309" y="-65" on="1"/>
        <pt x="310" y="-65" on="0"/>
        <pt x="311" y="-63" on="1"/>
        <pt x="313" y="-60" on="0"/>
        <pt x="313" y="-60" on="1"/>
        <pt x="317" y="-56" on="0"/>
        <pt x="330" y="-35" on="0"/>
        <pt x="333" y="-29" on="1"/>
        <pt x="334" y="-25" on="0"/>
        <pt x="339" y="-12" on="0"/>
        <pt x="339" y="-10" on="1"/>
        <pt x="341" y="-5" on="0"/>
        <pt x="337" y="1" on="1"/>
        <pt x="335" y="4" on="0"/>
        <pt x="331" y="5" on="1"/>
        <pt x="327" y="7" on="0"/>
        <pt x="325" y="7" on="1"/>
        <pt x="317" y="7" on="0"/>
        <pt x="309" y="-7" on="1"/>
        <pt x="306" y="-10" on="0"/>
        <pt x="305" y="-12" on="1"/>
        <pt x="304" y="-13" on="0"/>
        <pt x="301" y="-20" on="1"/>
        <pt x="296" y="-30" on="0"/>
        <pt x="293" y="-34" on="1"/>
        <pt x="285" y="-44" on="0"/>
        <pt x="267" y="-49" on="1"/>
        <pt x="261" y="-51" on="0"/>
        <pt x="252" y="-51" on="1"/>
        <pt x="243" y="-51" on="0"/>
        <pt x="238" y="-49" on="1"/>
        <pt x="223" y="-45" on="0"/>
        <pt x="206" y="-31" on="1"/>
        <pt x="198" y="-24" on="0"/>
        <pt x="194" y="-19" on="1"/>
        <pt x="192" y="-17" on="0"/>
        <pt x="192" y="-16" on="1"/>
        <pt x="191" y="-15" on="0"/>
        <pt x="185" y="-4" on="0"/>
        <pt x="184" y="0" on="1"/>
        <pt x="178" y="16" on="0"/>
        <pt x="178" y="38" on="1"/>
        <pt x="179" y="48" on="0"/>
        <pt x="180" y="55" on="1"/>
        <pt x="186" y="75" on="0"/>
        <pt x="193" y="89" on="1"/>
        <pt x="195" y="92" on="0"/>
        <pt x="202" y="104" on="0"/>
        <pt x="203" y="105" on="1"/>
        <pt x="204" y="105" on="0"/>
        <pt x="205" y="107" on="1"/>
        <pt x="207" y="109" on="0"/>
        <pt x="208" y="110" on="1"/>
        <pt x="209" y="111" on="0"/>
        <pt x="213" y="118" on="1"/>
        <pt x="218" y="124" on="0"/>
        <pt x="219" y="125" on="1"/>
        <pt x="220" y="126" on="0"/>
        <pt x="221" y="128" on="1"/>
        <pt x="222" y="130" on="0"/>
        <pt x="226" y="134" on="1"/>
        <pt x="235" y="147" on="0"/>
        <pt x="242" y="156" on="1"/>
        <pt x="246" y="162" on="0"/>
        <pt x="246" y="163" on="1"/>
        <pt x="247" y="163" on="0"/>
        <pt x="248" y="165" on="1"/>
        <pt x="250" y="167" on="0"/>
        <pt x="254" y="174" on="1"/>
        <pt x="256" y="176" on="0"/>
        <pt x="257" y="177" on="1"/>
        <pt x="258" y="178" on="0"/>
        <pt x="264" y="187" on="1"/>
        <pt x="270" y="195" on="0"/>
        <pt x="271" y="197" on="1"/>
        <pt x="272" y="198" on="0"/>
        <pt x="273" y="199" on="1"/>
        <pt x="277" y="206" on="0"/>
        <pt x="286" y="219" on="1"/>
        <pt x="291" y="226" on="0"/>
        <pt x="291" y="227" on="1"/>
        <pt x="293" y="229" on="0"/>
        <pt x="302" y="244" on="0"/>
        <pt x="304" y="249" on="1"/>
        <pt x="312" y="265" on="0"/>
        <pt x="315" y="282" on="1"/>
        <pt x="316" y="287" on="0"/>
        <pt x="315" y="297" on="1"/>
        <pt x="314" y="311" on="0"/>
        <pt x="317" y="320" on="1"/>
        <pt x="320" y="330" on="0"/>
        <pt x="330" y="347" on="1"/>
        <pt x="335" y="354" on="0"/>
        <pt x="336" y="356" on="1"/>
        <pt x="337" y="359" on="0"/>
        <pt x="338" y="359" on="1"/>
        <pt x="338" y="359" on="0"/>
        <pt x="339" y="361" on="1"/>
        <pt x="341" y="364" on="0"/>
        <pt x="341" y="364" on="1"/>
        <pt x="341" y="364" on="0"/>
        <pt x="343" y="367" on="1"/>
        <pt x="344" y="369" on="0"/>
        <pt x="345" y="369" on="1"/>
        <pt x="345" y="370" on="0"/>
        <pt x="346" y="372" on="1"/>
        <pt x="349" y="376" on="0"/>
        <pt x="361" y="388" on="0"/>
        <pt x="363" y="389" on="1"/>
        <pt x="365" y="390" on="0"/>
        <pt x="367" y="392" on="1"/>
        <pt x="370" y="394" on="0"/>
        <pt x="390" y="404" on="0"/>
        <pt x="401" y="408" on="1"/>
        <pt x="407" y="411" on="0"/>
        <pt x="409" y="412" on="1"/>
        <pt x="411" y="413" on="0"/>
        <pt x="417" y="414" on="1"/>
        <pt x="424" y="414" on="0"/>
        <pt x="432" y="411" on="1"/>
        <pt x="438" y="407" on="0"/>
        <pt x="450" y="407" on="1"/>
        <pt x="457" y="407" on="0"/>
        <pt x="469" y="413" on="1"/>
        <pt x="475" y="416" on="0"/>
        <pt x="479" y="417" on="1"/>
        <pt x="483" y="418" on="0"/>
        <pt x="486" y="420" on="1"/>
        <pt x="490" y="422" on="0"/>
        <pt x="493" y="422" on="1"/>
        <pt x="495" y="423" on="0"/>
        <pt x="501" y="425" on="1"/>
        <pt x="509" y="428" on="0"/>
        <pt x="509" y="426" on="1"/>
        <pt x="508" y="424" on="0"/>
        <pt x="508" y="421" on="1"/>
        <pt x="508" y="410" on="0"/>
        <pt x="518" y="406" on="1"/>
        <pt x="521" y="404" on="0"/>
        <pt x="529" y="404" on="1"/>
        <pt x="537" y="404" on="0"/>
        <pt x="540" y="406" on="1"/>
        <pt x="547" y="410" on="0"/>
        <pt x="548" y="424" on="1"/>
        <pt x="550" y="447" on="0"/>
        <pt x="560" y="469" on="1"/>
        <pt x="562" y="473" on="0"/>
        <pt x="568" y="486" on="0"/>
        <pt x="569" y="486" on="1"/>
        <pt x="569" y="486" on="0"/>
        <pt x="571" y="489" on="1"/>
        <pt x="572" y="491" on="0"/>
        <pt x="572" y="491" on="1"/>
        <pt x="573" y="492" on="0"/>
        <pt x="574" y="494" on="1"/>
        <pt x="579" y="501" on="0"/>
        <pt x="595" y="518" on="0"/>
        <pt x="596" y="518" on="1"/>
        <pt x="597" y="518" on="0"/>
        <pt x="605" y="510" on="1"/>
        <pt x="628" y="487" on="0"/>
        <pt x="639" y="461" on="1"/>
        <pt x="644" y="452" on="0"/>
        <pt x="647" y="438" on="1"/>
        <pt x="650" y="424" on="0"/>
        <pt x="651" y="405" on="1"/>
        <pt x="651" y="395" on="0"/>
        <pt x="652" y="390" on="0"/>
        <pt x="652" y="388" on="1"/>
        <pt x="657" y="380" on="0"/>
        <pt x="670" y="380" on="1"/>
        <pt x="687" y="380" on="0"/>
        <pt x="690" y="395" on="1"/>
        <pt x="691" y="401" on="0"/>
        <pt x="688" y="435" on="0"/>
        <pt x="686" y="448" on="1"/>
        <pt x="685" y="450" on="0"/>
        <pt x="687" y="449" on="1"/>
        <pt x="688" y="449" on="0"/>
        <pt x="693" y="449" on="1"/>
        <pt x="704" y="447" on="0"/>
        <pt x="737" y="439" on="1"/>
        <pt x="745" y="437" on="0"/>
        <pt x="771" y="428" on="0"/>
        <pt x="778" y="426" on="1"/>
        <pt x="782" y="424" on="0"/>
        <pt x="786" y="422" on="1"/>
        <pt x="790" y="421" on="0"/>
        <pt x="792" y="420" on="1"/>
        <pt x="795" y="418" on="0"/>
        <pt x="797" y="418" on="1"/>
        <pt x="798" y="417" on="0"/>
        <pt x="812" y="411" on="0"/>
        <pt x="820" y="407" on="1"/>
        <pt x="828" y="403" on="0"/>
        <pt x="838" y="398" on="0"/>
        <pt x="851" y="391" on="1"/>
        <pt x="855" y="388" on="0"/>
        <pt x="857" y="387" on="1"/>
        <pt x="859" y="385" on="0"/>
        <pt x="859" y="385" on="1"/>
        <pt x="860" y="385" on="0"/>
        <pt x="863" y="383" on="1"/>
        <pt x="867" y="380" on="0"/>
        <pt x="868" y="379" on="1"/>
        <pt x="871" y="378" on="0"/>
        <pt x="883" y="369" on="1"/>
        <pt x="886" y="367" on="0"/>
        <pt x="890" y="364" on="1"/>
        <pt x="895" y="360" on="0"/>
        <pt x="897" y="359" on="1"/>
        <pt x="900" y="357" on="0"/>
        <pt x="909" y="348" on="1"/>
        <pt x="926" y="334" on="0"/>
        <pt x="940" y="316" on="1"/>
        <pt x="943" y="313" on="0"/>
        <pt x="944" y="312" on="1"/>
        <pt x="945" y="310" on="0"/>
        <pt x="947" y="308" on="1"/>
        <pt x="948" y="306" on="0"/>
        <pt x="949" y="305" on="1"/>
        <pt x="950" y="304" on="0"/>
        <pt x="951" y="303" on="1"/>
        <pt x="952" y="301" on="0"/>
        <pt x="953" y="301" on="1"/>
        <pt x="953" y="301" on="0"/>
        <pt x="955" y="298" on="1"/>
        <pt x="957" y="296" on="0"/>
        <pt x="957" y="296" on="1"/>
        <pt x="957" y="296" on="0"/>
        <pt x="959" y="293" on="1"/>
        <pt x="960" y="291" on="0"/>
        <pt x="961" y="290" on="1"/>
        <pt x="965" y="285" on="0"/>
        <pt x="967" y="282" on="1"/>
        <pt x="967" y="281" on="0"/>
        <pt x="968" y="280" on="1"/>
        <pt x="969" y="279" on="0"/>
        <pt x="970" y="277" on="1"/>
        <pt x="972" y="275" on="0"/>
        <pt x="973" y="274" on="1"/>
        <pt x="973" y="273" on="0"/>
        <pt x="974" y="272" on="1"/>
        <pt x="975" y="270" on="0"/>
        <pt x="978" y="266" on="1"/>
        <pt x="980" y="262" on="0"/>
        <pt x="981" y="260" on="1"/>
        <pt x="982" y="258" on="0"/>
        <pt x="983" y="258" on="1"/>
        <pt x="983" y="257" on="0"/>
        <pt x="987" y="251" on="0"/>
        <pt x="993" y="240" on="1"/>
        <pt x="1008" y="214" on="0"/>
        <pt x="1018" y="189" on="1"/>
        <pt x="1022" y="180" on="0"/>
        <pt x="1022" y="179" on="1"/>
        <pt x="1024" y="175" on="0"/>
        <pt x="1034" y="147" on="0"/>
        <pt x="1038" y="136" on="1"/>
        <pt x="1062" y="66" on="0"/>
        <pt x="1067" y="4" on="1"/>
        <pt x="1068" y="-9" on="0"/>
        <pt x="1069" y="-37" on="0"/>
      </contour>
      <contour>
        <pt x="221" y="14" on="1"/>
        <pt x="224" y="13" on="0"/>
        <pt x="231" y="13" on="1"/>
        <pt x="242" y="13" on="0"/>
        <pt x="247" y="18" on="1"/>
        <pt x="251" y="22" on="0"/>
        <pt x="252" y="31" on="1"/>
        <pt x="252" y="40" on="0"/>
        <pt x="260" y="48" on="1"/>
        <pt x="264" y="52" on="0"/>
        <pt x="270" y="56" on="1"/>
        <pt x="279" y="61" on="0"/>
        <pt x="280" y="66" on="1"/>
        <pt x="282" y="73" on="0"/>
        <pt x="275" y="81" on="1"/>
        <pt x="273" y="84" on="0"/>
        <pt x="267" y="87" on="1"/>
        <pt x="260" y="90" on="0"/>
        <pt x="251" y="86" on="1"/>
        <pt x="238" y="79" on="0"/>
        <pt x="225" y="64" on="1"/>
        <pt x="222" y="61" on="0"/>
        <pt x="218" y="53" on="1"/>
        <pt x="212" y="40" on="0"/>
        <pt x="212" y="28" on="1"/>
        <pt x="212" y="23" on="0"/>
        <pt x="215" y="18" on="1"/>
        <pt x="217" y="15" on="0"/>
      </contour>
      <contour>
        <pt x="361" y="241" on="1"/>
        <pt x="370" y="238" on="0"/>
        <pt x="377" y="242" on="1"/>
        <pt x="381" y="243" on="0"/>
        <pt x="383" y="247" on="1"/>
        <pt x="386" y="251" on="0"/>
        <pt x="386" y="251" on="1"/>
        <pt x="386" y="252" on="0"/>
        <pt x="392" y="263" on="0"/>
        <pt x="393" y="263" on="1"/>
        <pt x="393" y="264" on="0"/>
        <pt x="398" y="262" on="1"/>
        <pt x="402" y="259" on="0"/>
        <pt x="405" y="259" on="1"/>
        <pt x="408" y="258" on="0"/>
        <pt x="426" y="258" on="0"/>
        <pt x="430" y="258" on="1"/>
        <pt x="437" y="260" on="0"/>
        <pt x="443" y="267" on="1"/>
        <pt x="456" y="281" on="0"/>
        <pt x="451" y="298" on="1"/>
        <pt x="449" y="304" on="0"/>
        <pt x="447" y="307" on="1"/>
        <pt x="446" y="308" on="0"/>
        <pt x="447" y="309" on="1"/>
        <pt x="448" y="310" on="0"/>
        <pt x="451" y="311" on="1"/>
        <pt x="454" y="312" on="0"/>
        <pt x="460" y="315" on="1"/>
        <pt x="466" y="318" on="0"/>
        <pt x="468" y="320" on="1"/>
        <pt x="474" y="327" on="0"/>
        <pt x="469" y="338" on="1"/>
        <pt x="466" y="345" on="0"/>
        <pt x="459" y="348" on="1"/>
        <pt x="456" y="349" on="0"/>
        <pt x="451" y="349" on="1"/>
        <pt x="446" y="349" on="0"/>
        <pt x="440" y="347" on="0"/>
        <pt x="429" y="343" on="1"/>
        <pt x="425" y="341" on="0"/>
        <pt x="407" y="332" on="0"/>
        <pt x="404" y="330" on="1"/>
        <pt x="394" y="323" on="0"/>
        <pt x="388" y="318" on="1"/>
        <pt x="384" y="315" on="0"/>
        <pt x="371" y="302" on="0"/>
        <pt x="369" y="299" on="1"/>
        <pt x="367" y="297" on="0"/>
        <pt x="366" y="296" on="1"/>
        <pt x="365" y="295" on="0"/>
        <pt x="354" y="279" on="0"/>
        <pt x="352" y="273" on="1"/>
        <pt x="347" y="264" on="0"/>
        <pt x="347" y="259" on="1"/>
        <pt x="347" y="246" on="0"/>
      </contour>
      <contour>
        <pt x="474" y="453" on="1"/>
        <pt x="468" y="450" on="0"/>
        <pt x="468" y="450" on="1"/>
        <pt x="468" y="450" on="0"/>
        <pt x="468" y="471" on="0"/>
        <pt x="468" y="486" on="1"/>
        <pt x="468" y="523" on="1"/>
        <pt x="507" y="523" on="1"/>
        <pt x="524" y="523" on="0"/>
        <pt x="547" y="523" on="0"/>
        <pt x="547" y="522" on="1"/>
        <pt x="548" y="522" on="0"/>
        <pt x="544" y="517" on="1"/>
        <pt x="541" y="512" on="0"/>
        <pt x="535" y="504" on="1"/>
        <pt x="528" y="491" on="0"/>
        <pt x="522" y="475" on="1"/>
        <pt x="520" y="471" on="1"/>
        <pt x="515" y="469" on="1"/>
        <pt x="482" y="457" on="0"/>
      </contour>
      <contour>
        <pt x="807" y="490" on="1"/>
        <pt x="807" y="477" on="0"/>
        <pt x="807" y="458" on="0"/>
        <pt x="807" y="458" on="1"/>
        <pt x="807" y="458" on="0"/>
        <pt x="804" y="459" on="1"/>
        <pt x="802" y="460" on="0"/>
        <pt x="800" y="460" on="1"/>
        <pt x="798" y="461" on="0"/>
        <pt x="792" y="463" on="1"/>
        <pt x="786" y="465" on="0"/>
        <pt x="768" y="471" on="0"/>
        <pt x="765" y="471" on="1"/>
        <pt x="763" y="472" on="0"/>
        <pt x="753" y="474" on="1"/>
        <pt x="744" y="476" on="0"/>
        <pt x="719" y="481" on="0"/>
        <pt x="714" y="482" on="1"/>
        <pt x="708" y="482" on="0"/>
        <pt x="702" y="483" on="1"/>
        <pt x="691" y="485" on="0"/>
        <pt x="674" y="486" on="1"/>
        <pt x="669" y="487" on="0"/>
        <pt x="669" y="488" on="1"/>
        <pt x="668" y="490" on="0"/>
        <pt x="667" y="492" on="1"/>
        <pt x="665" y="494" on="0"/>
        <pt x="663" y="498" on="1"/>
        <pt x="660" y="501" on="0"/>
        <pt x="660" y="502" on="1"/>
        <pt x="659" y="503" on="0"/>
        <pt x="658" y="504" on="1"/>
        <pt x="655" y="510" on="0"/>
        <pt x="647" y="519" on="1"/>
        <pt x="645" y="522" on="0"/>
        <pt x="645" y="522" on="1"/>
        <pt x="645" y="523" on="0"/>
        <pt x="693" y="523" on="0"/>
        <pt x="726" y="523" on="1"/>
        <pt x="807" y="523" on="1"/>
      </contour>
      <contour>
        <pt x="591" y="561" on="1"/>
        <pt x="586" y="558" on="1"/>
        <pt x="516" y="558" on="1"/>
        <pt x="446" y="558" on="1"/>
        <pt x="445" y="559" on="1"/>
        <pt x="443" y="561" on="0"/>
        <pt x="439" y="564" on="1"/>
        <pt x="435" y="567" on="0"/>
        <pt x="431" y="569" on="1"/>
        <pt x="428" y="572" on="0"/>
        <pt x="425" y="574" on="1"/>
        <pt x="416" y="580" on="0"/>
        <pt x="409" y="585" on="1"/>
        <pt x="406" y="588" on="0"/>
        <pt x="403" y="590" on="1"/>
        <pt x="388" y="600" on="0"/>
        <pt x="381" y="606" on="1"/>
        <pt x="378" y="608" on="0"/>
        <pt x="377" y="608" on="1"/>
        <pt x="377" y="608" on="0"/>
        <pt x="375" y="610" on="1"/>
        <pt x="372" y="612" on="1"/>
        <pt x="637" y="612" on="1"/>
        <pt x="902" y="612" on="1"/>
        <pt x="900" y="610" on="1"/>
        <pt x="897" y="608" on="0"/>
        <pt x="897" y="608" on="1"/>
        <pt x="896" y="608" on="0"/>
        <pt x="893" y="606" on="1"/>
        <pt x="886" y="600" on="0"/>
        <pt x="871" y="590" on="1"/>
        <pt x="868" y="588" on="0"/>
        <pt x="865" y="585" on="1"/>
        <pt x="861" y="582" on="0"/>
        <pt x="857" y="579" on="1"/>
        <pt x="851" y="575" on="0"/>
        <pt x="843" y="569" on="1"/>
        <pt x="840" y="567" on="0"/>
        <pt x="836" y="564" on="1"/>
        <pt x="831" y="560" on="0"/>
        <pt x="830" y="559" on="1"/>
        <pt x="828" y="558" on="1"/>
        <pt x="717" y="558" on="1"/>
        <pt x="605" y="558" on="1"/>
        <pt x="603" y="560" on="1"/>
        <pt x="600" y="561" on="0"/>
        <pt x="598" y="563" on="1"/>
        <pt x="595" y="564" on="1"/>
      </contour>
      <contour>
        <pt x="938" y="712" on="1"/>
        <pt x="938" y="648" on="1"/>
        <pt x="638" y="648" on="1"/>
        <pt x="338" y="648" on="1"/>
        <pt x="338" y="712" on="1"/>
        <pt x="338" y="775" on="1"/>
        <pt x="378" y="775" on="1"/>
        <pt x="418" y="775" on="1"/>
        <pt x="418" y="739" on="1"/>
        <pt x="418" y="703" on="1"/>
        <pt x="508" y="703" on="1"/>
        <pt x="598" y="703" on="1"/>
        <pt x="598" y="739" on="1"/>
        <pt x="598" y="775" on="1"/>
        <pt x="637" y="775" on="1"/>
        <pt x="677" y="775" on="1"/>
        <pt x="677" y="739" on="1"/>
        <pt x="677" y="703" on="1"/>
        <pt x="767" y="703" on="1"/>
        <pt x="857" y="703" on="1"/>
        <pt x="857" y="739" on="1"/>
        <pt x="857" y="775" on="1"/>
        <pt x="897" y="775" on="1"/>
        <pt x="938" y="775" on="1"/>
      </contour>
    </TTGlyph>
    <TTGlyph name="glyph00037" xMin="338" yMin="649" xMax="937" yMax="774">
      <contour>
        <pt x="338" y="712" on="1"/>
        <pt x="338" y="649" on="1"/>
        <pt x="638" y="649" on="1"/>
        <pt x="937" y="649" on="1"/>
        <pt x="937" y="712" on="1"/>
        <pt x="937" y="774" on="1"/>
        <pt x="898" y="774" on="1"/>
        <pt x="859" y="774" on="1"/>
        <pt x="859" y="739" on="1"/>
        <pt x="859" y="703" on="1"/>
        <pt x="767" y="703" on="1"/>
        <pt x="676" y="703" on="1"/>
        <pt x="676" y="739" on="1"/>
        <pt x="676" y="774" on="1"/>
        <pt x="638" y="774" on="1"/>
        <pt x="599" y="774" on="1"/>
        <pt x="599" y="739" on="1"/>
        <pt x="599" y="703" on="1"/>
        <pt x="508" y="703" on="1"/>
        <pt x="416" y="703" on="1"/>
        <pt x="416" y="739" on="1"/>
        <pt x="416" y="774" on="1"/>
        <pt x="377" y="774" on="1"/>
        <pt x="338" y="774" on="1"/>
      </contour>
    </TTGlyph>
    <TTGlyph name="glyph00038" xMin="377" yMin="559" xMax="898" yMax="611">
      <contour>
        <pt x="412" y="585" on="1"/>
        <pt x="446" y="559" on="1"/>
        <pt x="516" y="559" on="1"/>
        <pt x="549" y="559" on="0"/>
        <pt x="579" y="559" on="0"/>
        <pt x="588" y="561" on="0"/>
        <pt x="590" y="562" on="1"/>
        <pt x="596" y="566" on="1"/>
        <pt x="601" y="562" on="1"/>
        <pt x="603" y="561" on="0"/>
        <pt x="615" y="559" on="0"/>
        <pt x="662" y="559" on="0"/>
        <pt x="716" y="559" on="1"/>
        <pt x="828" y="559" on="1"/>
        <pt x="863" y="585" on="1"/>
        <pt x="898" y="610" on="1"/>
        <pt x="768" y="611" on="1"/>
        <pt x="733" y="611" on="0"/>
        <pt x="638" y="611" on="0"/>
        <pt x="544" y="611" on="0"/>
        <pt x="508" y="611" on="1"/>
        <pt x="377" y="610" on="1"/>
      </contour>
    </TTGlyph>
    <TTGlyph name="glyph00039" xMin="647" yMin="459" xMax="806" yMax="521">
      <contour>
        <pt x="790" y="465" on="1"/>
        <pt x="804" y="460" on="0"/>
        <pt x="805" y="460" on="1"/>
        <pt x="806" y="459" on="0"/>
        <pt x="806" y="478" on="0"/>
        <pt x="806" y="490" on="1"/>
        <pt x="806" y="521" on="1"/>
        <pt x="727" y="521" on="1"/>
        <pt x="647" y="521" on="1"/>
        <pt x="655" y="511" on="1"/>
        <pt x="663" y="500" on="0"/>
        <pt x="666" y="494" on="1"/>
        <pt x="670" y="488" on="1"/>
        <pt x="699" y="484" on="1"/>
        <pt x="723" y="481" on="0"/>
        <pt x="773" y="470" on="0"/>
      </contour>
    </TTGlyph>
    <TTGlyph name="glyph00040" xMin="469" yMin="451" xMax="546" yMax="521">
      <contour>
        <pt x="469" y="486" on="1"/>
        <pt x="469" y="451" on="1"/>
        <pt x="472" y="453" on="1"/>
        <pt x="474" y="454" on="0"/>
        <pt x="489" y="460" on="0"/>
        <pt x="498" y="463" on="1"/>
        <pt x="519" y="472" on="1"/>
        <pt x="525" y="485" on="1"/>
        <pt x="532" y="500" on="0"/>
        <pt x="543" y="517" on="1"/>
        <pt x="546" y="521" on="1"/>
        <pt x="507" y="521" on="1"/>
        <pt x="469" y="521" on="1"/>
      </contour>
    </TTGlyph>
    <TTGlyph name="glyph00041" xMin="180" yMin="-102" xMax="1070" yMax="517">
      <contour>
        <pt x="563" y="-96" on="1"/>
        <pt x="566" y="-96" on="0"/>
        <pt x="638" y="-97" on="0"/>
        <pt x="754" y="-97" on="0"/>
        <pt x="822" y="-97" on="1"/>
        <pt x="1070" y="-97" on="1"/>
        <pt x="1069" y="-55" on="1"/>
        <pt x="1067" y="-4" on="0"/>
        <pt x="1060" y="57" on="0"/>
        <pt x="1050" y="94" on="1"/>
        <pt x="1012" y="234" on="0"/>
        <pt x="934" y="322" on="1"/>
        <pt x="898" y="363" on="0"/>
        <pt x="783" y="427" on="0"/>
        <pt x="718" y="442" on="1"/>
        <pt x="694" y="448" on="0"/>
        <pt x="687" y="447" on="0"/>
        <pt x="688" y="437" on="1"/>
        <pt x="690" y="426" on="0"/>
        <pt x="690" y="408" on="1"/>
        <pt x="690" y="394" on="0"/>
        <pt x="689" y="388" on="0"/>
        <pt x="685" y="385" on="1"/>
        <pt x="679" y="378" on="0"/>
        <pt x="654" y="381" on="0"/>
        <pt x="651" y="389" on="1"/>
        <pt x="650" y="393" on="0"/>
        <pt x="650" y="405" on="1"/>
        <pt x="650" y="448" on="0"/>
        <pt x="625" y="484" on="1"/>
        <pt x="620" y="492" on="0"/>
        <pt x="597" y="517" on="0"/>
        <pt x="596" y="517" on="1"/>
        <pt x="594" y="517" on="0"/>
        <pt x="573" y="490" on="0"/>
        <pt x="568" y="482" on="1"/>
        <pt x="554" y="459" on="0"/>
        <pt x="549" y="428" on="1"/>
        <pt x="547" y="412" on="0"/>
        <pt x="540" y="404" on="0"/>
        <pt x="529" y="404" on="1"/>
        <pt x="510" y="404" on="0"/>
        <pt x="508" y="419" on="1"/>
        <pt x="507" y="426" on="1"/>
        <pt x="499" y="424" on="1"/>
        <pt x="491" y="421" on="0"/>
        <pt x="474" y="414" on="1"/>
        <pt x="449" y="404" on="0"/>
        <pt x="432" y="410" on="1"/>
        <pt x="422" y="413" on="0"/>
        <pt x="400" y="408" on="0"/>
        <pt x="377" y="397" on="1"/>
        <pt x="363" y="390" on="0"/>
        <pt x="333" y="353" on="0"/>
        <pt x="322" y="329" on="1"/>
        <pt x="317" y="320" on="0"/>
        <pt x="316" y="311" on="0"/>
        <pt x="316" y="297" on="1"/>
        <pt x="316" y="284" on="0"/>
        <pt x="314" y="273" on="0"/>
        <pt x="311" y="264" on="1"/>
        <pt x="307" y="251" on="0"/>
        <pt x="301" y="241" on="1"/>
        <pt x="296" y="231" on="0"/>
        <pt x="257" y="176" on="0"/>
        <pt x="231" y="141" on="1"/>
        <pt x="206" y="107" on="0"/>
        <pt x="189" y="80" on="0"/>
        <pt x="185" y="65" on="1"/>
        <pt x="180" y="50" on="0"/>
        <pt x="180" y="35" on="1"/>
        <pt x="180" y="-2" on="0"/>
        <pt x="198" y="-21" on="1"/>
        <pt x="215" y="-40" on="0"/>
        <pt x="233" y="-47" on="1"/>
        <pt x="261" y="-57" on="0"/>
        <pt x="285" y="-39" on="1"/>
        <pt x="291" y="-35" on="0"/>
        <pt x="300" y="-19" on="1"/>
        <pt x="309" y="-4" on="0"/>
        <pt x="320" y="7" on="0"/>
        <pt x="326" y="7" on="1"/>
        <pt x="340" y="7" on="0"/>
        <pt x="340" y="-6" on="1"/>
        <pt x="340" y="-16" on="0"/>
        <pt x="325" y="-48" on="0"/>
        <pt x="314" y="-60" on="1"/>
        <pt x="307" y="-69" on="1"/>
        <pt x="311" y="-75" on="1"/>
        <pt x="326" y="-102" on="0"/>
        <pt x="353" y="-53" on="1"/>
        <pt x="369" y="-26" on="0"/>
        <pt x="394" y="10" on="0"/>
        <pt x="409" y="24" on="1"/>
        <pt x="460" y="76" on="0"/>
        <pt x="533" y="104" on="1"/>
        <pt x="547" y="110" on="0"/>
        <pt x="573" y="121" on="0"/>
        <pt x="579" y="123" on="1"/>
        <pt x="631" y="147" on="0"/>
        <pt x="655" y="196" on="1"/>
        <pt x="662" y="209" on="0"/>
        <pt x="666" y="229" on="0"/>
        <pt x="666" y="246" on="1"/>
        <pt x="666" y="262" on="0"/>
        <pt x="670" y="271" on="0"/>
        <pt x="678" y="273" on="1"/>
        <pt x="696" y="276" on="0"/>
        <pt x="704" y="267" on="1"/>
        <pt x="707" y="263" on="0"/>
        <pt x="709" y="258" on="0"/>
        <pt x="709" y="249" on="1"/>
        <pt x="709" y="200" on="0"/>
        <pt x="678" y="156" on="1"/>
        <pt x="672" y="147" on="1"/>
        <pt x="675" y="136" on="1"/>
        <pt x="678" y="126" on="0"/>
        <pt x="680" y="82" on="0"/>
        <pt x="677" y="70" on="1"/>
        <pt x="674" y="49" on="0"/>
        <pt x="651" y="-2" on="0"/>
        <pt x="638" y="-18" on="1"/>
        <pt x="629" y="-30" on="0"/>
        <pt x="597" y="-60" on="0"/>
        <pt x="580" y="-73" on="1"/>
        <pt x="562" y="-87" on="0"/>
        <pt x="557" y="-91" on="1"/>
        <pt x="552" y="-96" on="1"/>
      </contour>
      <contour>
        <pt x="244" y="15" on="1"/>
        <pt x="239" y="12" on="0"/>
        <pt x="221" y="12" on="0"/>
        <pt x="218" y="15" on="1"/>
        <pt x="210" y="20" on="0"/>
        <pt x="212" y="33" on="1"/>
        <pt x="216" y="57" on="0"/>
        <pt x="233" y="73" on="1"/>
        <pt x="262" y="101" on="0"/>
        <pt x="277" y="79" on="1"/>
        <pt x="285" y="68" on="0"/>
        <pt x="275" y="59" on="1"/>
        <pt x="255" y="42" on="0"/>
        <pt x="254" y="35" on="1"/>
        <pt x="251" y="24" on="0"/>
        <pt x="248" y="18" on="0"/>
      </contour>
      <contour>
        <pt x="378" y="241" on="1"/>
        <pt x="368" y="236" on="0"/>
        <pt x="346" y="248" on="0"/>
        <pt x="346" y="258" on="1"/>
        <pt x="346" y="264" on="0"/>
        <pt x="360" y="290" on="0"/>
        <pt x="368" y="300" on="1"/>
        <pt x="385" y="320" on="0"/>
        <pt x="411" y="335" on="1"/>
        <pt x="420" y="340" on="0"/>
        <pt x="447" y="350" on="0"/>
        <pt x="452" y="350" on="1"/>
        <pt x="462" y="350" on="0"/>
        <pt x="475" y="329" on="0"/>
        <pt x="469" y="321" on="1"/>
        <pt x="467" y="317" on="0"/>
        <pt x="457" y="312" on="1"/>
        <pt x="447" y="307" on="1"/>
        <pt x="450" y="302" on="1"/>
        <pt x="452" y="298" on="0"/>
        <pt x="451" y="279" on="0"/>
        <pt x="448" y="273" on="1"/>
        <pt x="445" y="267" on="0"/>
        <pt x="439" y="262" on="1"/>
        <pt x="434" y="258" on="0"/>
        <pt x="420" y="257" on="1"/>
        <pt x="407" y="257" on="0"/>
        <pt x="401" y="259" on="1"/>
        <pt x="395" y="262" on="0"/>
        <pt x="394" y="262" on="1"/>
        <pt x="392" y="262" on="0"/>
        <pt x="387" y="252" on="1"/>
        <pt x="382" y="243" on="0"/>
      </contour>
    </TTGlyph>
    <TTGlyph name="glyph00044" xMin="295" yMin="-135" xMax="976" yMax="831">
      <contour>
        <pt x="320" y="-133" on="1"/>
        <pt x="321" y="-135" on="1"/>
        <pt x="638" y="-135" on="1"/>
        <pt x="954" y="-135" on="1"/>
        <pt x="956" y="-128" on="1"/>
        <pt x="968" y="-95" on="0"/>
        <pt x="973" y="-61" on="1"/>
        <pt x="975" y="-48" on="0"/>
        <pt x="976" y="-29" on="0"/>
        <pt x="976" y="-12" on="1"/>
        <pt x="976" y="5" on="0"/>
        <pt x="975" y="25" on="0"/>
        <pt x="973" y="38" on="1"/>
        <pt x="963" y="112" on="0"/>
        <pt x="921" y="174" on="1"/>
        <pt x="868" y="252" on="0"/>
        <pt x="787" y="292" on="1"/>
        <pt x="780" y="295" on="0"/>
        <pt x="759" y="305" on="0"/>
        <pt x="758" y="305" on="1"/>
        <pt x="756" y="305" on="0"/>
        <pt x="764" y="309" on="1"/>
        <pt x="785" y="320" on="0"/>
        <pt x="804" y="338" on="1"/>
        <pt x="849" y="384" on="0"/>
        <pt x="851" y="446" on="1"/>
        <pt x="853" y="505" on="0"/>
        <pt x="817" y="550" on="1"/>
        <pt x="805" y="566" on="0"/>
        <pt x="789" y="578" on="1"/>
        <pt x="758" y="602" on="0"/>
        <pt x="722" y="608" on="1"/>
        <pt x="712" y="610" on="0"/>
        <pt x="711" y="611" on="0"/>
        <pt x="716" y="616" on="1"/>
        <pt x="759" y="652" on="0"/>
        <pt x="757" y="709" on="1"/>
        <pt x="755" y="747" on="0"/>
        <pt x="734" y="775" on="1"/>
        <pt x="725" y="787" on="0"/>
        <pt x="712" y="798" on="1"/>
        <pt x="690" y="816" on="0"/>
        <pt x="662" y="822" on="1"/>
        <pt x="616" y="831" on="0"/>
        <pt x="578" y="809" on="1"/>
        <pt x="531" y="781" on="0"/>
        <pt x="520" y="730" on="1"/>
        <pt x="514" y="698" on="0"/>
        <pt x="523" y="669" on="1"/>
        <pt x="533" y="638" on="0"/>
        <pt x="559" y="616" on="1"/>
        <pt x="564" y="611" on="0"/>
        <pt x="563" y="610" on="0"/>
        <pt x="553" y="608" on="1"/>
        <pt x="499" y="599" on="0"/>
        <pt x="462" y="555" on="1"/>
        <pt x="431" y="520" on="0"/>
        <pt x="425" y="474" on="1"/>
        <pt x="424" y="467" on="0"/>
        <pt x="424" y="452" on="1"/>
        <pt x="424" y="431" on="0"/>
        <pt x="428" y="415" on="1"/>
        <pt x="435" y="382" on="0"/>
        <pt x="479" y="325" on="0"/>
        <pt x="510" y="309" on="1"/>
        <pt x="518" y="305" on="0"/>
        <pt x="516" y="305" on="1"/>
        <pt x="515" y="305" on="0"/>
        <pt x="494" y="295" on="0"/>
        <pt x="486" y="291" on="1"/>
        <pt x="406" y="252" on="0"/>
        <pt x="354" y="175" on="1"/>
        <pt x="295" y="88" on="0"/>
        <pt x="298" y="-19" on="1"/>
        <pt x="298" y="-42" on="0"/>
        <pt x="301" y="-61" on="1"/>
        <pt x="307" y="-98" on="0"/>
      </contour>
      <contour>
        <pt x="926" y="-93" on="1"/>
        <pt x="925" y="-95" on="1"/>
        <pt x="637" y="-95" on="1"/>
        <pt x="350" y="-95" on="1"/>
        <pt x="348" y="-90" on="1"/>
        <pt x="330" y="-29" on="0"/>
        <pt x="342" y="40" on="1"/>
        <pt x="357" y="131" on="0"/>
        <pt x="427" y="201" on="1"/>
        <pt x="462" y="236" on="0"/>
        <pt x="506" y="257" on="1"/>
        <pt x="517" y="263" on="0"/>
        <pt x="522" y="263" on="1"/>
        <pt x="550" y="267" on="0"/>
        <pt x="556" y="291" on="1"/>
        <pt x="557" y="295" on="0"/>
        <pt x="557" y="304" on="1"/>
        <pt x="557" y="312" on="0"/>
        <pt x="556" y="317" on="1"/>
        <pt x="549" y="337" on="0"/>
        <pt x="523" y="349" on="1"/>
        <pt x="513" y="353" on="0"/>
        <pt x="500" y="366" on="1"/>
        <pt x="478" y="387" on="0"/>
        <pt x="469" y="413" on="1"/>
        <pt x="458" y="449" on="0"/>
        <pt x="468" y="485" on="1"/>
        <pt x="475" y="509" on="0"/>
        <pt x="511" y="551" on="0"/>
        <pt x="535" y="561" on="1"/>
        <pt x="549" y="567" on="0"/>
        <pt x="572" y="571" on="1"/>
        <pt x="585" y="572" on="0"/>
        <pt x="593" y="581" on="1"/>
        <pt x="601" y="590" on="0"/>
        <pt x="602" y="606" on="1"/>
        <pt x="603" y="618" on="0"/>
        <pt x="598" y="629" on="1"/>
        <pt x="596" y="633" on="0"/>
        <pt x="592" y="637" on="0"/>
        <pt x="585" y="644" on="1"/>
        <pt x="564" y="665" on="0"/>
        <pt x="559" y="689" on="1"/>
        <pt x="556" y="705" on="0"/>
        <pt x="559" y="722" on="1"/>
        <pt x="564" y="744" on="0"/>
        <pt x="582" y="761" on="1"/>
        <pt x="598" y="778" on="0"/>
        <pt x="621" y="783" on="1"/>
        <pt x="638" y="786" on="0"/>
        <pt x="654" y="783" on="1"/>
        <pt x="677" y="778" on="0"/>
        <pt x="694" y="760" on="1"/>
        <pt x="711" y="743" on="0"/>
        <pt x="715" y="720" on="1"/>
        <pt x="719" y="704" on="0"/>
        <pt x="715" y="687" on="1"/>
        <pt x="710" y="663" on="0"/>
        <pt x="690" y="645" on="1"/>
        <pt x="680" y="635" on="0"/>
        <pt x="676" y="626" on="1"/>
        <pt x="667" y="607" on="0"/>
        <pt x="677" y="587" on="1"/>
        <pt x="681" y="579" on="0"/>
        <pt x="689" y="575" on="1"/>
        <pt x="694" y="573" on="0"/>
        <pt x="701" y="571" on="0"/>
        <pt x="711" y="569" on="1"/>
        <pt x="746" y="564" on="0"/>
        <pt x="773" y="539" on="1"/>
        <pt x="806" y="508" on="0"/>
        <pt x="811" y="466" on="1"/>
        <pt x="817" y="414" on="0"/>
        <pt x="785" y="376" on="1"/>
        <pt x="778" y="368" on="0"/>
        <pt x="759" y="352" on="0"/>
        <pt x="754" y="350" on="1"/>
        <pt x="730" y="340" on="0"/>
        <pt x="722" y="324" on="1"/>
        <pt x="717" y="314" on="0"/>
        <pt x="718" y="302" on="1"/>
        <pt x="720" y="269" on="0"/>
        <pt x="751" y="264" on="1"/>
        <pt x="756" y="263" on="0"/>
        <pt x="761" y="261" on="0"/>
        <pt x="769" y="257" on="1"/>
        <pt x="814" y="235" on="0"/>
        <pt x="848" y="200" on="1"/>
        <pt x="911" y="137" on="0"/>
        <pt x="930" y="57" on="1"/>
        <pt x="943" y="0" on="0"/>
        <pt x="934" y="-58" on="1"/>
        <pt x="930" y="-79" on="0"/>
      </contour>
    </TTGlyph>
    <TTGlyph name="glyph00045" xMin="338" yMin="-94" xMax="957" yMax="783">
      <contour>
        <pt x="349" y="-90" on="1"/>
        <pt x="351" y="-94" on="1"/>
        <pt x="638" y="-94" on="1"/>
        <pt x="924" y="-94" on="1"/>
        <pt x="926" y="-90" on="1"/>
        <pt x="927" y="-87" on="0"/>
        <pt x="930" y="-70" on="1"/>
        <pt x="957" y="61" on="0"/>
        <pt x="874" y="170" on="1"/>
        <pt x="866" y="179" on="0"/>
        <pt x="834" y="212" on="0"/>
        <pt x="825" y="220" on="1"/>
        <pt x="807" y="235" on="0"/>
        <pt x="764" y="260" on="0"/>
        <pt x="751" y="263" on="1"/>
        <pt x="735" y="267" on="0"/>
        <pt x="721" y="280" on="0"/>
        <pt x="718" y="294" on="1"/>
        <pt x="715" y="311" on="0"/>
        <pt x="723" y="326" on="1"/>
        <pt x="730" y="338" on="0"/>
        <pt x="749" y="348" on="1"/>
        <pt x="781" y="364" on="0"/>
        <pt x="798" y="399" on="1"/>
        <pt x="810" y="422" on="0"/>
        <pt x="810" y="480" on="0"/>
        <pt x="799" y="503" on="1"/>
        <pt x="783" y="533" on="0"/>
        <pt x="754" y="551" on="1"/>
        <pt x="735" y="564" on="0"/>
        <pt x="709" y="569" on="1"/>
        <pt x="692" y="572" on="0"/>
        <pt x="689" y="574" on="1"/>
        <pt x="676" y="580" on="0"/>
        <pt x="673" y="596" on="1"/>
        <pt x="670" y="611" on="0"/>
        <pt x="676" y="631" on="0"/>
        <pt x="689" y="645" on="1"/>
        <pt x="702" y="659" on="0"/>
        <pt x="708" y="672" on="1"/>
        <pt x="713" y="681" on="0"/>
        <pt x="714" y="689" on="0"/>
        <pt x="714" y="704" on="1"/>
        <pt x="714" y="718" on="0"/>
        <pt x="713" y="728" on="0"/>
        <pt x="710" y="734" on="1"/>
        <pt x="694" y="769" on="0"/>
        <pt x="662" y="779" on="1"/>
        <pt x="655" y="782" on="0"/>
        <pt x="645" y="783" on="0"/>
        <pt x="634" y="782" on="1"/>
        <pt x="621" y="782" on="0"/>
        <pt x="612" y="780" on="0"/>
        <pt x="604" y="776" on="1"/>
        <pt x="580" y="764" on="0"/>
        <pt x="556" y="717" on="0"/>
        <pt x="560" y="692" on="1"/>
        <pt x="564" y="669" on="0"/>
        <pt x="584" y="647" on="1"/>
        <pt x="595" y="636" on="0"/>
        <pt x="602" y="620" on="0"/>
        <pt x="602" y="610" on="1"/>
        <pt x="602" y="590" on="0"/>
        <pt x="586" y="572" on="0"/>
        <pt x="563" y="568" on="1"/>
        <pt x="548" y="565" on="0"/>
        <pt x="538" y="561" on="1"/>
        <pt x="513" y="551" on="0"/>
        <pt x="475" y="508" on="0"/>
        <pt x="468" y="481" on="1"/>
        <pt x="465" y="469" on="0"/>
        <pt x="465" y="433" on="0"/>
        <pt x="468" y="423" on="1"/>
        <pt x="481" y="371" on="0"/>
        <pt x="527" y="348" on="1"/>
        <pt x="546" y="338" on="0"/>
        <pt x="554" y="323" on="1"/>
        <pt x="557" y="317" on="0"/>
        <pt x="558" y="291" on="0"/>
        <pt x="554" y="285" on="1"/>
        <pt x="546" y="267" on="0"/>
        <pt x="525" y="263" on="1"/>
        <pt x="517" y="262" on="0"/>
        <pt x="500" y="253" on="1"/>
        <pt x="414" y="208" on="0"/>
        <pt x="370" y="120" on="1"/>
        <pt x="356" y="92" on="0"/>
        <pt x="342" y="41" on="0"/>
        <pt x="339" y="9" on="1"/>
        <pt x="338" y="-14" on="0"/>
        <pt x="339" y="-35" on="1"/>
        <pt x="341" y="-50" on="0"/>
        <pt x="347" y="-84" on="0"/>
      </contour>
    </TTGlyph>
    <TTGlyph name="glyph00046" xMin="94" yMin="-147" xMax="1183" yMax="856">
      <contour>
        <pt x="587" y="-147" on="1"/>
        <pt x="598" y="-147" on="0"/>
        <pt x="647" y="-147" on="0"/>
        <pt x="696" y="-146" on="0"/>
        <pt x="706" y="-146" on="1"/>
        <pt x="771" y="-143" on="0"/>
        <pt x="824" y="-137" on="1"/>
        <pt x="934" y="-124" on="0"/>
        <pt x="980" y="-100" on="1"/>
        <pt x="984" y="-98" on="0"/>
        <pt x="996" y="-91" on="0"/>
        <pt x="997" y="-89" on="1"/>
        <pt x="997" y="-89" on="0"/>
        <pt x="996" y="-81" on="0"/>
        <pt x="988" y="-51" on="0"/>
        <pt x="979" y="-17" on="1"/>
        <pt x="960" y="54" on="1"/>
        <pt x="968" y="101" on="1"/>
        <pt x="976" y="148" on="1"/>
        <pt x="1003" y="192" on="1"/>
        <pt x="1029" y="237" on="1"/>
        <pt x="1046" y="365" on="1"/>
        <pt x="1051" y="400" on="0"/>
        <pt x="1060" y="473" on="0"/>
        <pt x="1068" y="531" on="0"/>
        <pt x="1070" y="546" on="1"/>
        <pt x="1073" y="568" on="0"/>
        <pt x="1077" y="599" on="0"/>
        <pt x="1077" y="599" on="1"/>
        <pt x="1076" y="600" on="0"/>
        <pt x="1063" y="606" on="1"/>
        <pt x="1049" y="613" on="1"/>
        <pt x="1040" y="598" on="1"/>
        <pt x="1037" y="591" on="0"/>
        <pt x="990" y="512" on="0"/>
        <pt x="960" y="462" on="1"/>
        <pt x="931" y="412" on="0"/>
        <pt x="889" y="342" on="0"/>
        <pt x="888" y="342" on="1"/>
        <pt x="888" y="342" on="0"/>
        <pt x="888" y="385" on="0"/>
        <pt x="887" y="458" on="0"/>
        <pt x="887" y="502" on="1"/>
        <pt x="886" y="546" on="0"/>
        <pt x="885" y="619" on="0"/>
        <pt x="885" y="663" on="0"/>
        <pt x="885" y="663" on="1"/>
        <pt x="884" y="663" on="0"/>
        <pt x="864" y="667" on="0"/>
        <pt x="844" y="670" on="0"/>
        <pt x="844" y="670" on="1"/>
        <pt x="844" y="670" on="0"/>
        <pt x="828" y="626" on="0"/>
        <pt x="800" y="553" on="0"/>
        <pt x="784" y="509" on="1"/>
        <pt x="723" y="349" on="0"/>
        <pt x="723" y="350" on="1"/>
        <pt x="723" y="350" on="0"/>
        <pt x="714" y="397" on="0"/>
        <pt x="699" y="474" on="0"/>
        <pt x="690" y="521" on="1"/>
        <pt x="681" y="568" on="0"/>
        <pt x="667" y="646" on="0"/>
        <pt x="658" y="693" on="0"/>
        <pt x="658" y="693" on="1"/>
        <pt x="657" y="695" on="1"/>
        <pt x="637" y="695" on="1"/>
        <pt x="617" y="695" on="1"/>
        <pt x="617" y="693" on="1"/>
        <pt x="617" y="693" on="0"/>
        <pt x="607" y="644" on="0"/>
        <pt x="593" y="568" on="0"/>
        <pt x="577" y="482" on="0"/>
        <pt x="563" y="406" on="0"/>
        <pt x="558" y="384" on="1"/>
        <pt x="556" y="369" on="0"/>
        <pt x="552" y="349" on="0"/>
        <pt x="551" y="348" on="1"/>
        <pt x="551" y="347" on="0"/>
        <pt x="490" y="508" on="1"/>
        <pt x="474" y="553" on="0"/>
        <pt x="446" y="626" on="0"/>
        <pt x="430" y="670" on="0"/>
        <pt x="430" y="670" on="1"/>
        <pt x="429" y="670" on="0"/>
        <pt x="409" y="667" on="0"/>
        <pt x="390" y="663" on="0"/>
        <pt x="389" y="663" on="1"/>
        <pt x="389" y="663" on="0"/>
        <pt x="389" y="619" on="0"/>
        <pt x="388" y="546" on="0"/>
        <pt x="387" y="502" on="1"/>
        <pt x="387" y="458" on="0"/>
        <pt x="386" y="385" on="0"/>
        <pt x="385" y="342" on="0"/>
        <pt x="385" y="342" on="1"/>
        <pt x="385" y="342" on="0"/>
        <pt x="339" y="420" on="0"/>
        <pt x="306" y="476" on="1"/>
        <pt x="273" y="531" on="0"/>
        <pt x="226" y="610" on="0"/>
        <pt x="226" y="611" on="1"/>
        <pt x="225" y="612" on="0"/>
        <pt x="221" y="611" on="0"/>
        <pt x="211" y="606" on="1"/>
        <pt x="197" y="601" on="0"/>
        <pt x="197" y="600" on="1"/>
        <pt x="197" y="600" on="0"/>
        <pt x="206" y="532" on="0"/>
        <pt x="212" y="484" on="1"/>
        <pt x="216" y="453" on="0"/>
        <pt x="226" y="382" on="0"/>
        <pt x="235" y="321" on="0"/>
        <pt x="237" y="302" on="1"/>
        <pt x="246" y="236" on="1"/>
        <pt x="272" y="191" on="1"/>
        <pt x="298" y="147" on="1"/>
        <pt x="306" y="101" on="1"/>
        <pt x="314" y="54" on="1"/>
        <pt x="296" y="-16" on="1"/>
        <pt x="277" y="-86" on="1"/>
        <pt x="279" y="-88" on="1"/>
        <pt x="297" y="-105" on="0"/>
        <pt x="352" y="-119" on="1"/>
        <pt x="446" y="-142" on="0"/>
      </contour>
      <contour>
        <pt x="708" y="-107" on="1"/>
        <pt x="702" y="-108" on="0"/>
        <pt x="672" y="-108" on="0"/>
        <pt x="635" y="-108" on="0"/>
        <pt x="605" y="-108" on="0"/>
        <pt x="599" y="-108" on="1"/>
        <pt x="457" y="-104" on="0"/>
        <pt x="367" y="-82" on="1"/>
        <pt x="354" y="-78" on="0"/>
        <pt x="325" y="-69" on="0"/>
        <pt x="325" y="-69" on="1"/>
        <pt x="325" y="-68" on="0"/>
        <pt x="326" y="-68" on="1"/>
        <pt x="327" y="-68" on="0"/>
        <pt x="335" y="-65" on="1"/>
        <pt x="415" y="-32" on="0"/>
        <pt x="561" y="-24" on="1"/>
        <pt x="599" y="-22" on="0"/>
        <pt x="693" y="-23" on="0"/>
        <pt x="731" y="-25" on="1"/>
        <pt x="860" y="-33" on="0"/>
        <pt x="941" y="-64" on="1"/>
        <pt x="950" y="-67" on="0"/>
        <pt x="950" y="-68" on="1"/>
        <pt x="950" y="-68" on="0"/>
        <pt x="942" y="-71" on="1"/>
        <pt x="899" y="-87" on="0"/>
        <pt x="787" y="-104" on="0"/>
      </contour>
      <contour>
        <pt x="350" y="-10" on="1"/>
        <pt x="340" y="-13" on="0"/>
        <pt x="339" y="-13" on="1"/>
        <pt x="338" y="-14" on="0"/>
        <pt x="338" y="-13" on="1"/>
        <pt x="338" y="-12" on="0"/>
        <pt x="344" y="7" on="0"/>
        <pt x="347" y="20" on="1"/>
        <pt x="356" y="52" on="1"/>
        <pt x="352" y="76" on="1"/>
        <pt x="349" y="101" on="0"/>
        <pt x="349" y="101" on="1"/>
        <pt x="350" y="102" on="0"/>
        <pt x="378" y="108" on="0"/>
        <pt x="387" y="109" on="1"/>
        <pt x="497" y="130" on="0"/>
        <pt x="658" y="129" on="1"/>
        <pt x="732" y="128" on="0"/>
        <pt x="847" y="118" on="0"/>
        <pt x="898" y="108" on="1"/>
        <pt x="908" y="106" on="0"/>
        <pt x="925" y="102" on="0"/>
        <pt x="925" y="102" on="1"/>
        <pt x="926" y="102" on="0"/>
        <pt x="924" y="87" on="0"/>
        <pt x="922" y="76" on="1"/>
        <pt x="919" y="51" on="1"/>
        <pt x="927" y="20" on="1"/>
        <pt x="930" y="7" on="0"/>
        <pt x="935" y="-12" on="0"/>
        <pt x="936" y="-12" on="1"/>
        <pt x="936" y="-13" on="0"/>
        <pt x="935" y="-13" on="1"/>
        <pt x="933" y="-12" on="0"/>
        <pt x="898" y="-4" on="0"/>
        <pt x="890" y="-2" on="1"/>
        <pt x="851" y="6" on="0"/>
        <pt x="765" y="15" on="0"/>
        <pt x="706" y="18" on="1"/>
        <pt x="697" y="18" on="0"/>
        <pt x="660" y="18" on="0"/>
        <pt x="616" y="18" on="0"/>
        <pt x="579" y="18" on="0"/>
        <pt x="570" y="18" on="1"/>
        <pt x="432" y="12" on="0"/>
      </contour>
      <contour>
        <pt x="352" y="149" on="1"/>
        <pt x="342" y="146" on="0"/>
        <pt x="342" y="146" on="1"/>
        <pt x="341" y="146" on="0"/>
        <pt x="339" y="149" on="0"/>
        <pt x="327" y="170" on="0"/>
        <pt x="312" y="199" on="1"/>
        <pt x="303" y="217" on="0"/>
        <pt x="288" y="245" on="0"/>
        <pt x="287" y="247" on="1"/>
        <pt x="284" y="252" on="1"/>
        <pt x="291" y="250" on="1"/>
        <pt x="319" y="240" on="0"/>
        <pt x="349" y="241" on="1"/>
        <pt x="383" y="243" on="0"/>
        <pt x="412" y="257" on="1"/>
        <pt x="426" y="264" on="0"/>
        <pt x="438" y="273" on="1"/>
        <pt x="453" y="284" on="0"/>
        <pt x="466" y="299" on="1"/>
        <pt x="470" y="304" on="1"/>
        <pt x="474" y="301" on="1"/>
        <pt x="496" y="284" on="0"/>
        <pt x="523" y="278" on="1"/>
        <pt x="537" y="275" on="0"/>
        <pt x="552" y="276" on="1"/>
        <pt x="597" y="278" on="0"/>
        <pt x="630" y="310" on="1"/>
        <pt x="637" y="317" on="1"/>
        <pt x="639" y="314" on="1"/>
        <pt x="665" y="282" on="0"/>
        <pt x="702" y="275" on="1"/>
        <pt x="758" y="264" on="0"/>
        <pt x="801" y="299" on="1"/>
        <pt x="805" y="302" on="1"/>
        <pt x="810" y="296" on="1"/>
        <pt x="822" y="281" on="0"/>
        <pt x="835" y="270" on="1"/>
        <pt x="873" y="240" on="0"/>
        <pt x="924" y="238" on="1"/>
        <pt x="954" y="237" on="0"/>
        <pt x="983" y="247" on="1"/>
        <pt x="989" y="249" on="1"/>
        <pt x="986" y="242" on="1"/>
        <pt x="984" y="240" on="0"/>
        <pt x="968" y="210" on="0"/>
        <pt x="959" y="191" on="1"/>
        <pt x="949" y="173" on="0"/>
        <pt x="935" y="146" on="0"/>
        <pt x="935" y="146" on="1"/>
        <pt x="935" y="146" on="0"/>
        <pt x="928" y="148" on="1"/>
        <pt x="848" y="168" on="0"/>
        <pt x="726" y="173" on="1"/>
        <pt x="684" y="175" on="0"/>
        <pt x="582" y="175" on="0"/>
        <pt x="540" y="173" on="1"/>
        <pt x="427" y="167" on="0"/>
      </contour>
      <contour>
        <pt x="941" y="279" on="1"/>
        <pt x="930" y="278" on="0"/>
        <pt x="921" y="279" on="1"/>
        <pt x="915" y="280" on="0"/>
        <pt x="901" y="283" on="0"/>
        <pt x="901" y="284" on="1"/>
        <pt x="901" y="284" on="0"/>
        <pt x="927" y="329" on="0"/>
        <pt x="965" y="394" on="0"/>
        <pt x="1003" y="459" on="0"/>
        <pt x="1029" y="504" on="0"/>
        <pt x="1029" y="504" on="1"/>
        <pt x="1029" y="504" on="0"/>
        <pt x="1020" y="444" on="0"/>
        <pt x="1013" y="403" on="1"/>
        <pt x="997" y="302" on="1"/>
        <pt x="995" y="300" on="1"/>
        <pt x="989" y="295" on="0"/>
        <pt x="976" y="289" on="1"/>
        <pt x="960" y="281" on="0"/>
      </contour>
      <contour>
        <pt x="360" y="284" on="1"/>
        <pt x="346" y="281" on="0"/>
        <pt x="332" y="283" on="1"/>
        <pt x="317" y="285" on="0"/>
        <pt x="301" y="292" on="1"/>
        <pt x="297" y="294" on="0"/>
        <pt x="282" y="303" on="0"/>
        <pt x="280" y="304" on="1"/>
        <pt x="278" y="306" on="1"/>
        <pt x="262" y="404" on="1"/>
        <pt x="255" y="445" on="0"/>
        <pt x="246" y="502" on="0"/>
        <pt x="246" y="502" on="1"/>
        <pt x="246" y="502" on="0"/>
        <pt x="283" y="439" on="0"/>
        <pt x="308" y="395" on="1"/>
        <pt x="334" y="351" on="0"/>
        <pt x="371" y="287" on="0"/>
        <pt x="371" y="287" on="1"/>
        <pt x="372" y="286" on="0"/>
      </contour>
      <contour>
        <pt x="849" y="514" on="1"/>
        <pt x="850" y="486" on="0"/>
        <pt x="850" y="407" on="0"/>
        <pt x="849" y="379" on="1"/>
        <pt x="849" y="311" on="1"/>
        <pt x="846" y="314" on="1"/>
        <pt x="843" y="317" on="0"/>
        <pt x="841" y="321" on="1"/>
        <pt x="835" y="329" on="0"/>
        <pt x="828" y="334" on="1"/>
        <pt x="804" y="350" on="0"/>
        <pt x="782" y="335" on="1"/>
        <pt x="777" y="332" on="0"/>
        <pt x="774" y="329" on="1"/>
        <pt x="768" y="322" on="0"/>
        <pt x="758" y="318" on="1"/>
        <pt x="753" y="316" on="0"/>
        <pt x="753" y="316" on="1"/>
        <pt x="753" y="316" on="0"/>
        <pt x="781" y="394" on="0"/>
        <pt x="801" y="449" on="1"/>
        <pt x="849" y="581" on="1"/>
      </contour>
      <contour>
        <pt x="431" y="323" on="1"/>
        <pt x="430" y="320" on="0"/>
        <pt x="427" y="317" on="1"/>
        <pt x="424" y="315" on="1"/>
        <pt x="424" y="448" on="1"/>
        <pt x="424" y="581" on="1"/>
        <pt x="429" y="570" on="1"/>
        <pt x="430" y="566" on="0"/>
        <pt x="448" y="515" on="0"/>
        <pt x="474" y="445" on="0"/>
        <pt x="500" y="375" on="0"/>
        <pt x="517" y="327" on="0"/>
        <pt x="518" y="324" on="1"/>
        <pt x="520" y="319" on="1"/>
        <pt x="518" y="320" on="1"/>
        <pt x="507" y="324" on="0"/>
        <pt x="500" y="331" on="1"/>
        <pt x="494" y="337" on="0"/>
        <pt x="488" y="340" on="1"/>
        <pt x="482" y="343" on="0"/>
        <pt x="479" y="343" on="1"/>
        <pt x="468" y="346" on="0"/>
        <pt x="456" y="343" on="1"/>
        <pt x="440" y="339" on="0"/>
      </contour>
      <contour>
        <pt x="663" y="464" on="1"/>
        <pt x="673" y="406" on="0"/>
        <pt x="687" y="322" on="0"/>
        <pt x="687" y="322" on="1"/>
        <pt x="687" y="321" on="0"/>
        <pt x="680" y="327" on="1"/>
        <pt x="676" y="330" on="0"/>
        <pt x="673" y="337" on="1"/>
        <pt x="664" y="356" on="0"/>
        <pt x="640" y="358" on="1"/>
        <pt x="614" y="359" on="0"/>
        <pt x="599" y="337" on="1"/>
        <pt x="595" y="329" on="0"/>
        <pt x="592" y="328" on="1"/>
        <pt x="590" y="327" on="0"/>
        <pt x="589" y="326" on="1"/>
        <pt x="588" y="325" on="1"/>
        <pt x="588" y="326" on="1"/>
        <pt x="588" y="327" on="0"/>
        <pt x="597" y="379" on="0"/>
        <pt x="612" y="461" on="0"/>
        <pt x="628" y="552" on="0"/>
        <pt x="635" y="593" on="1"/>
        <pt x="637" y="607" on="0"/>
        <pt x="637" y="607" on="1"/>
        <pt x="638" y="607" on="0"/>
        <pt x="652" y="523" on="0"/>
      </contour>
      <contour>
        <pt x="166" y="602" on="1"/>
        <pt x="170" y="602" on="0"/>
        <pt x="189" y="602" on="0"/>
        <pt x="192" y="603" on="1"/>
        <pt x="213" y="608" on="0"/>
        <pt x="228" y="621" on="1"/>
        <pt x="257" y="647" on="0"/>
        <pt x="255" y="685" on="1"/>
        <pt x="254" y="708" on="0"/>
        <pt x="242" y="726" on="1"/>
        <pt x="239" y="730" on="0"/>
        <pt x="225" y="745" on="0"/>
        <pt x="220" y="748" on="1"/>
        <pt x="199" y="762" on="0"/>
        <pt x="172" y="761" on="1"/>
        <pt x="141" y="760" on="0"/>
        <pt x="119" y="738" on="1"/>
        <pt x="94" y="714" on="0"/>
        <pt x="96" y="679" on="1"/>
        <pt x="97" y="647" on="0"/>
        <pt x="119" y="625" on="1"/>
        <pt x="132" y="612" on="0"/>
        <pt x="148" y="606" on="1"/>
        <pt x="157" y="603" on="0"/>
      </contour>
      <contour>
        <pt x="190" y="644" on="1"/>
        <pt x="178" y="641" on="0"/>
        <pt x="165" y="643" on="1"/>
        <pt x="135" y="649" on="0"/>
        <pt x="137" y="685" on="1"/>
        <pt x="138" y="702" on="0"/>
        <pt x="146" y="710" on="1"/>
        <pt x="156" y="720" on="0"/>
        <pt x="176" y="720" on="1"/>
        <pt x="189" y="720" on="0"/>
        <pt x="197" y="716" on="1"/>
        <pt x="209" y="710" on="0"/>
        <pt x="213" y="695" on="1"/>
        <pt x="217" y="681" on="0"/>
        <pt x="213" y="668" on="1"/>
        <pt x="208" y="649" on="0"/>
      </contour>
      <contour>
        <pt x="1089" y="602" on="1"/>
        <pt x="1102" y="600" on="0"/>
        <pt x="1115" y="603" on="1"/>
        <pt x="1137" y="607" on="0"/>
        <pt x="1170" y="638" on="0"/>
        <pt x="1176" y="659" on="1"/>
        <pt x="1183" y="684" on="0"/>
        <pt x="1176" y="707" on="1"/>
        <pt x="1170" y="724" on="0"/>
        <pt x="1156" y="738" on="1"/>
        <pt x="1138" y="756" on="0"/>
        <pt x="1115" y="760" on="1"/>
        <pt x="1100" y="763" on="0"/>
        <pt x="1084" y="760" on="1"/>
        <pt x="1061" y="755" on="0"/>
        <pt x="1043" y="738" on="1"/>
        <pt x="1025" y="720" on="0"/>
        <pt x="1021" y="697" on="1"/>
        <pt x="1020" y="692" on="0"/>
        <pt x="1020" y="671" on="0"/>
        <pt x="1021" y="666" on="1"/>
        <pt x="1023" y="655" on="0"/>
        <pt x="1027" y="647" on="1"/>
        <pt x="1047" y="607" on="0"/>
      </contour>
      <contour>
        <pt x="1113" y="644" on="1"/>
        <pt x="1102" y="641" on="0"/>
        <pt x="1091" y="643" on="1"/>
        <pt x="1068" y="647" on="0"/>
        <pt x="1062" y="668" on="1"/>
        <pt x="1058" y="681" on="0"/>
        <pt x="1062" y="695" on="1"/>
        <pt x="1067" y="713" on="0"/>
        <pt x="1085" y="719" on="1"/>
        <pt x="1090" y="720" on="0"/>
        <pt x="1100" y="720" on="1"/>
        <pt x="1114" y="720" on="0"/>
        <pt x="1122" y="716" on="1"/>
        <pt x="1130" y="712" on="0"/>
        <pt x="1134" y="703" on="1"/>
        <pt x="1138" y="695" on="0"/>
        <pt x="1138" y="681" on="1"/>
        <pt x="1138" y="668" on="0"/>
        <pt x="1134" y="660" on="1"/>
        <pt x="1128" y="648" on="0"/>
      </contour>
      <contour>
        <pt x="380" y="667" on="1"/>
        <pt x="394" y="665" on="0"/>
        <pt x="408" y="668" on="1"/>
        <pt x="437" y="674" on="0"/>
        <pt x="455" y="698" on="1"/>
        <pt x="464" y="710" on="0"/>
        <pt x="467" y="722" on="1"/>
        <pt x="474" y="747" on="0"/>
        <pt x="467" y="771" on="1"/>
        <pt x="454" y="810" on="0"/>
        <pt x="415" y="822" on="1"/>
        <pt x="404" y="826" on="0"/>
        <pt x="390" y="826" on="1"/>
        <pt x="371" y="826" on="0"/>
        <pt x="356" y="818" on="1"/>
        <pt x="325" y="803" on="0"/>
        <pt x="314" y="771" on="1"/>
        <pt x="311" y="760" on="0"/>
        <pt x="311" y="745" on="1"/>
        <pt x="311" y="730" on="0"/>
        <pt x="315" y="719" on="1"/>
        <pt x="322" y="698" on="0"/>
        <pt x="358" y="669" on="0"/>
      </contour>
      <contour>
        <pt x="405" y="709" on="1"/>
        <pt x="394" y="706" on="0"/>
        <pt x="381" y="708" on="1"/>
        <pt x="372" y="709" on="0"/>
        <pt x="366" y="713" on="1"/>
        <pt x="356" y="719" on="0"/>
        <pt x="353" y="733" on="1"/>
        <pt x="349" y="746" on="0"/>
        <pt x="353" y="760" on="1"/>
        <pt x="358" y="779" on="0"/>
        <pt x="378" y="784" on="1"/>
        <pt x="391" y="787" on="0"/>
        <pt x="404" y="784" on="1"/>
        <pt x="422" y="779" on="0"/>
        <pt x="428" y="760" on="1"/>
        <pt x="429" y="755" on="0"/>
        <pt x="429" y="746" on="1"/>
        <pt x="429" y="726" on="0"/>
        <pt x="419" y="717" on="1"/>
        <pt x="414" y="711" on="0"/>
      </contour>
      <contour>
        <pt x="872" y="667" on="1"/>
        <pt x="887" y="665" on="0"/>
        <pt x="901" y="668" on="1"/>
        <pt x="929" y="674" on="0"/>
        <pt x="948" y="698" on="1"/>
        <pt x="956" y="710" on="0"/>
        <pt x="960" y="722" on="1"/>
        <pt x="967" y="747" on="0"/>
        <pt x="959" y="771" on="1"/>
        <pt x="947" y="810" on="0"/>
        <pt x="908" y="822" on="1"/>
        <pt x="897" y="826" on="0"/>
        <pt x="883" y="826" on="1"/>
        <pt x="863" y="826" on="0"/>
        <pt x="848" y="818" on="1"/>
        <pt x="818" y="803" on="0"/>
        <pt x="807" y="771" on="1"/>
        <pt x="804" y="760" on="0"/>
        <pt x="804" y="745" on="1"/>
        <pt x="804" y="730" on="0"/>
        <pt x="808" y="719" on="1"/>
        <pt x="815" y="698" on="0"/>
        <pt x="851" y="669" on="0"/>
      </contour>
      <contour>
        <pt x="898" y="709" on="1"/>
        <pt x="886" y="706" on="0"/>
        <pt x="874" y="708" on="1"/>
        <pt x="865" y="709" on="0"/>
        <pt x="859" y="713" on="1"/>
        <pt x="849" y="719" on="0"/>
        <pt x="846" y="733" on="1"/>
        <pt x="842" y="746" on="0"/>
        <pt x="846" y="760" on="1"/>
        <pt x="851" y="779" on="0"/>
        <pt x="871" y="784" on="1"/>
        <pt x="884" y="787" on="0"/>
        <pt x="897" y="784" on="1"/>
        <pt x="915" y="779" on="0"/>
        <pt x="921" y="760" on="1"/>
        <pt x="922" y="755" on="0"/>
        <pt x="922" y="746" on="1"/>
        <pt x="922" y="726" on="0"/>
        <pt x="912" y="717" on="1"/>
        <pt x="906" y="711" on="0"/>
      </contour>
      <contour>
        <pt x="628" y="696" on="1"/>
        <pt x="663" y="693" on="0"/>
        <pt x="689" y="715" on="1"/>
        <pt x="710" y="733" on="0"/>
        <pt x="716" y="759" on="1"/>
        <pt x="719" y="775" on="0"/>
        <pt x="716" y="791" on="1"/>
        <pt x="709" y="825" on="0"/>
        <pt x="678" y="844" on="1"/>
        <pt x="658" y="856" on="0"/>
        <pt x="633" y="855" on="1"/>
        <pt x="602" y="854" on="0"/>
        <pt x="581" y="832" on="1"/>
        <pt x="556" y="807" on="0"/>
        <pt x="557" y="772" on="1"/>
        <pt x="559" y="741" on="0"/>
        <pt x="581" y="718" on="1"/>
        <pt x="594" y="706" on="0"/>
        <pt x="610" y="700" on="1"/>
        <pt x="619" y="697" on="0"/>
      </contour>
      <contour>
        <pt x="646" y="738" on="1"/>
        <pt x="632" y="736" on="0"/>
        <pt x="620" y="739" on="1"/>
        <pt x="608" y="743" on="0"/>
        <pt x="603" y="754" on="1"/>
        <pt x="599" y="762" on="0"/>
        <pt x="599" y="776" on="1"/>
        <pt x="599" y="795" on="0"/>
        <pt x="608" y="805" on="1"/>
        <pt x="614" y="810" on="0"/>
        <pt x="623" y="813" on="1"/>
        <pt x="627" y="814" on="0"/>
        <pt x="637" y="814" on="1"/>
        <pt x="647" y="814" on="0"/>
        <pt x="651" y="813" on="1"/>
        <pt x="661" y="810" on="0"/>
        <pt x="666" y="804" on="1"/>
        <pt x="676" y="795" on="0"/>
        <pt x="676" y="776" on="1"/>
        <pt x="676" y="767" on="0"/>
        <pt x="675" y="762" on="1"/>
        <pt x="669" y="741" on="0"/>
      </contour>
    </TTGlyph>
    <TTGlyph name="glyph00047" xMin="138" yMin="644" xMax="213" yMax="719">
      <contour>
        <pt x="155" y="648" on="1"/>
        <pt x="161" y="645" on="0"/>
        <pt x="168" y="644" on="0"/>
        <pt x="177" y="644" on="1"/>
        <pt x="213" y="646" on="0"/>
        <pt x="213" y="682" on="1"/>
        <pt x="213" y="719" on="0"/>
        <pt x="175" y="719" on="1"/>
        <pt x="138" y="719" on="0"/>
        <pt x="138" y="682" on="1"/>
        <pt x="138" y="657" on="0"/>
      </contour>
    </TTGlyph>
    <TTGlyph name="glyph00048" xMin="349" yMin="707" xMax="429" yMax="786">
      <contour>
        <pt x="375" y="710" on="1"/>
        <pt x="386" y="707" on="0"/>
        <pt x="414" y="712" on="0"/>
        <pt x="420" y="718" on="1"/>
        <pt x="426" y="725" on="0"/>
        <pt x="429" y="756" on="0"/>
        <pt x="425" y="766" on="1"/>
        <pt x="420" y="776" on="0"/>
        <pt x="394" y="786" on="0"/>
        <pt x="379" y="783" on="1"/>
        <pt x="364" y="779" on="0"/>
        <pt x="349" y="750" on="0"/>
        <pt x="354" y="732" on="1"/>
        <pt x="359" y="715" on="0"/>
      </contour>
    </TTGlyph>
    <TTGlyph name="glyph00049" xMin="596" yMin="739" xMax="675" yMax="820">
      <contour>
        <pt x="619" y="741" on="1"/>
        <pt x="624" y="739" on="0"/>
        <pt x="639" y="739" on="1"/>
        <pt x="649" y="739" on="0"/>
        <pt x="656" y="741" on="0"/>
        <pt x="661" y="744" on="1"/>
        <pt x="675" y="753" on="0"/>
        <pt x="674" y="778" on="1"/>
        <pt x="674" y="789" on="0"/>
        <pt x="672" y="795" on="0"/>
        <pt x="669" y="800" on="1"/>
        <pt x="653" y="820" on="0"/>
        <pt x="623" y="811" on="1"/>
        <pt x="608" y="807" on="0"/>
        <pt x="596" y="779" on="0"/>
        <pt x="602" y="760" on="1"/>
        <pt x="606" y="747" on="0"/>
      </contour>
    </TTGlyph>
    <TTGlyph name="glyph00050" xMin="846" yMin="708" xMax="922" yMax="783">
      <contour>
        <pt x="869" y="710" on="1"/>
        <pt x="876" y="708" on="0"/>
        <pt x="886" y="708" on="1"/>
        <pt x="919" y="711" on="0"/>
        <pt x="921" y="742" on="1"/>
        <pt x="922" y="770" on="0"/>
        <pt x="904" y="780" on="1"/>
        <pt x="897" y="783" on="0"/>
        <pt x="883" y="783" on="1"/>
        <pt x="874" y="783" on="0"/>
        <pt x="867" y="782" on="0"/>
        <pt x="862" y="779" on="1"/>
        <pt x="846" y="770" on="0"/>
        <pt x="846" y="746" on="1"/>
        <pt x="846" y="717" on="0"/>
      </contour>
    </TTGlyph>
    <TTGlyph name="glyph00051" xMin="1062" yMin="638" xMax="1137" yMax="721">
      <contour>
        <pt x="1079" y="648" on="1"/>
        <pt x="1100" y="638" on="0"/>
        <pt x="1120" y="648" on="1"/>
        <pt x="1137" y="657" on="0"/>
        <pt x="1137" y="682" on="1"/>
        <pt x="1137" y="721" on="0"/>
        <pt x="1096" y="719" on="1"/>
        <pt x="1083" y="718" on="0"/>
        <pt x="1076" y="714" on="1"/>
        <pt x="1062" y="704" on="0"/>
        <pt x="1062" y="682" on="1"/>
        <pt x="1062" y="657" on="0"/>
      </contour>
    </TTGlyph>
    <TTGlyph name="glyph00052" xMin="248" yMin="283" xMax="368" yMax="495">
      <contour>
        <pt x="320" y="286" on="1"/>
        <pt x="332" y="283" on="0"/>
        <pt x="347" y="284" on="1"/>
        <pt x="362" y="285" on="0"/>
        <pt x="366" y="286" on="1"/>
        <pt x="368" y="286" on="0"/>
        <pt x="364" y="296" on="0"/>
        <pt x="339" y="340" on="0"/>
        <pt x="309" y="391" on="1"/>
        <pt x="285" y="434" on="0"/>
        <pt x="249" y="495" on="0"/>
        <pt x="248" y="495" on="1"/>
        <pt x="248" y="494" on="0"/>
        <pt x="257" y="440" on="0"/>
        <pt x="263" y="401" on="1"/>
        <pt x="278" y="308" on="0"/>
        <pt x="280" y="306" on="1"/>
        <pt x="283" y="302" on="0"/>
        <pt x="311" y="289" on="0"/>
      </contour>
    </TTGlyph>
    <TTGlyph name="glyph00053" xMin="424" yMin="319" xMax="518" yMax="575">
      <contour>
        <pt x="424" y="446" on="1"/>
        <pt x="425" y="381" on="0"/>
        <pt x="425" y="328" on="0"/>
        <pt x="426" y="319" on="0"/>
        <pt x="428" y="321" on="1"/>
        <pt x="431" y="325" on="0"/>
        <pt x="436" y="331" on="1"/>
        <pt x="444" y="341" on="0"/>
        <pt x="473" y="347" on="0"/>
        <pt x="486" y="341" on="1"/>
        <pt x="495" y="337" on="0"/>
        <pt x="501" y="331" on="1"/>
        <pt x="507" y="327" on="0"/>
        <pt x="518" y="320" on="0"/>
        <pt x="518" y="322" on="1"/>
        <pt x="518" y="322" on="0"/>
        <pt x="504" y="359" on="0"/>
        <pt x="483" y="417" on="0"/>
        <pt x="460" y="481" on="0"/>
        <pt x="439" y="538" on="0"/>
        <pt x="425" y="575" on="0"/>
        <pt x="425" y="575" on="1"/>
        <pt x="425" y="575" on="0"/>
        <pt x="424" y="500" on="0"/>
      </contour>
    </TTGlyph>
    <TTGlyph name="glyph00054" xMin="590" yMin="324" xMax="686" yMax="602">
      <contour>
        <pt x="680" y="329" on="1"/>
        <pt x="684" y="324" on="0"/>
        <pt x="685" y="324" on="1"/>
        <pt x="686" y="325" on="0"/>
        <pt x="671" y="413" on="0"/>
        <pt x="651" y="523" on="1"/>
        <pt x="646" y="554" on="0"/>
        <pt x="638" y="599" on="0"/>
        <pt x="638" y="600" on="1"/>
        <pt x="638" y="602" on="0"/>
        <pt x="637" y="601" on="1"/>
        <pt x="637" y="600" on="0"/>
        <pt x="630" y="560" on="0"/>
        <pt x="619" y="498" on="0"/>
        <pt x="607" y="429" on="0"/>
        <pt x="597" y="368" on="0"/>
        <pt x="590" y="329" on="0"/>
        <pt x="590" y="329" on="1"/>
        <pt x="591" y="328" on="0"/>
        <pt x="594" y="332" on="1"/>
        <pt x="603" y="344" on="0"/>
        <pt x="612" y="352" on="0"/>
        <pt x="618" y="354" on="1"/>
        <pt x="627" y="359" on="0"/>
        <pt x="640" y="358" on="1"/>
        <pt x="662" y="357" on="0"/>
        <pt x="671" y="342" on="1"/>
        <pt x="675" y="335" on="0"/>
      </contour>
    </TTGlyph>
    <TTGlyph name="glyph00055" xMin="756" yMin="314" xMax="849" yMax="575">
      <contour>
        <pt x="839" y="324" on="1"/>
        <pt x="848" y="314" on="1"/>
        <pt x="849" y="379" on="1"/>
        <pt x="849" y="406" on="0"/>
        <pt x="849" y="483" on="0"/>
        <pt x="849" y="510" on="1"/>
        <pt x="848" y="575" on="1"/>
        <pt x="802" y="448" on="1"/>
        <pt x="783" y="395" on="0"/>
        <pt x="756" y="320" on="0"/>
        <pt x="756" y="320" on="1"/>
        <pt x="759" y="317" on="0"/>
        <pt x="775" y="331" on="1"/>
        <pt x="790" y="343" on="0"/>
        <pt x="808" y="341" on="1"/>
        <pt x="825" y="340" on="0"/>
      </contour>
    </TTGlyph>
    <TTGlyph name="glyph00056" xMin="903" yMin="277" xMax="1027" yMax="496">
      <contour>
        <pt x="910" y="282" on="1"/>
        <pt x="929" y="277" on="0"/>
        <pt x="953" y="282" on="1"/>
        <pt x="963" y="284" on="0"/>
        <pt x="994" y="300" on="0"/>
        <pt x="996" y="303" on="1"/>
        <pt x="996" y="304" on="0"/>
        <pt x="1003" y="344" on="0"/>
        <pt x="1012" y="400" on="0"/>
        <pt x="1021" y="456" on="0"/>
        <pt x="1027" y="495" on="0"/>
        <pt x="1027" y="495" on="1"/>
        <pt x="1026" y="496" on="0"/>
        <pt x="1002" y="454" on="0"/>
        <pt x="965" y="392" on="0"/>
        <pt x="929" y="330" on="0"/>
        <pt x="904" y="286" on="0"/>
        <pt x="903" y="285" on="1"/>
        <pt x="903" y="283" on="0"/>
      </contour>
    </TTGlyph>
    <TTGlyph name="glyph00057" xMin="287" yMin="147" xMax="986" yMax="314">
      <contour>
        <pt x="340" y="149" on="1"/>
        <pt x="342" y="147" on="0"/>
        <pt x="345" y="148" on="1"/>
        <pt x="395" y="159" on="0"/>
        <pt x="488" y="171" on="0"/>
        <pt x="595" y="176" on="0"/>
        <pt x="664" y="175" on="1"/>
        <pt x="747" y="174" on="0"/>
        <pt x="866" y="163" on="0"/>
        <pt x="914" y="152" on="1"/>
        <pt x="932" y="148" on="0"/>
        <pt x="933" y="148" on="1"/>
        <pt x="934" y="148" on="0"/>
        <pt x="950" y="177" on="0"/>
        <pt x="971" y="215" on="0"/>
        <pt x="986" y="245" on="0"/>
        <pt x="986" y="246" on="1"/>
        <pt x="986" y="247" on="0"/>
        <pt x="977" y="244" on="1"/>
        <pt x="952" y="236" on="0"/>
        <pt x="921" y="238" on="1"/>
        <pt x="860" y="241" on="0"/>
        <pt x="818" y="285" on="1"/>
        <pt x="805" y="299" on="0"/>
        <pt x="804" y="299" on="1"/>
        <pt x="803" y="299" on="0"/>
        <pt x="795" y="294" on="1"/>
        <pt x="762" y="270" on="0"/>
        <pt x="719" y="272" on="1"/>
        <pt x="679" y="275" on="0"/>
        <pt x="649" y="302" on="1"/>
        <pt x="637" y="314" on="1"/>
        <pt x="627" y="306" on="1"/>
        <pt x="599" y="281" on="0"/>
        <pt x="564" y="276" on="1"/>
        <pt x="516" y="270" on="0"/>
        <pt x="478" y="297" on="1"/>
        <pt x="471" y="302" on="1"/>
        <pt x="459" y="290" on="1"/>
        <pt x="436" y="268" on="0"/>
        <pt x="412" y="256" on="1"/>
        <pt x="395" y="248" on="0"/>
        <pt x="365" y="242" on="0"/>
        <pt x="342" y="242" on="1"/>
        <pt x="325" y="242" on="0"/>
        <pt x="311" y="243" on="0"/>
        <pt x="302" y="246" on="1"/>
        <pt x="287" y="250" on="0"/>
        <pt x="287" y="249" on="1"/>
        <pt x="287" y="249" on="0"/>
        <pt x="303" y="219" on="0"/>
        <pt x="323" y="180" on="0"/>
        <pt x="339" y="150" on="0"/>
      </contour>
    </TTGlyph>
    <TTGlyph name="glyph00058" xMin="340" yMin="-11" xMax="934" yMax="130">
      <contour>
        <pt x="340" y="-9" on="1"/>
        <pt x="340" y="-11" on="0"/>
        <pt x="347" y="-10" on="0"/>
        <pt x="362" y="-7" on="1"/>
        <pt x="404" y="4" on="0"/>
        <pt x="461" y="10" on="1"/>
        <pt x="491" y="14" on="0"/>
        <pt x="533" y="17" on="0"/>
        <pt x="590" y="18" on="0"/>
        <pt x="639" y="18" on="1"/>
        <pt x="679" y="18" on="0"/>
        <pt x="726" y="17" on="0"/>
        <pt x="756" y="16" on="0"/>
        <pt x="771" y="15" on="1"/>
        <pt x="814" y="11" on="0"/>
        <pt x="883" y="1" on="0"/>
        <pt x="918" y="-7" on="1"/>
        <pt x="933" y="-11" on="0"/>
        <pt x="933" y="-10" on="1"/>
        <pt x="934" y="-10" on="0"/>
        <pt x="929" y="8" on="0"/>
        <pt x="926" y="21" on="1"/>
        <pt x="918" y="51" on="1"/>
        <pt x="921" y="73" on="1"/>
        <pt x="924" y="96" on="0"/>
        <pt x="922" y="102" on="0"/>
        <pt x="908" y="105" on="1"/>
        <pt x="866" y="114" on="0"/>
        <pt x="776" y="124" on="0"/>
        <pt x="717" y="126" on="1"/>
        <pt x="622" y="130" on="0"/>
        <pt x="438" y="119" on="0"/>
        <pt x="373" y="106" on="1"/>
        <pt x="353" y="102" on="0"/>
        <pt x="352" y="100" on="1"/>
        <pt x="350" y="99" on="0"/>
        <pt x="353" y="75" on="1"/>
        <pt x="356" y="51" on="1"/>
        <pt x="349" y="22" on="1"/>
        <pt x="346" y="10" on="0"/>
        <pt x="341" y="-8" on="0"/>
      </contour>
    </TTGlyph>
</ttFont>
